SplineFontDB: 3.0
FontName: MenloClojure-Bold
FullName: Menlo Clojure Bold
FamilyName: MenloClojure
Weight: Bold
Copyright: Copyright (c) 2009 Apple Inc. Copyright (c)  2006 by Tavmjong Bah. Copyright (c) 2003 by Bitstream, Inc. All Rights Reserved.
Version: 8.0d2e1
ItalicAngle: 0
UnderlinePosition: -175
UnderlineWidth: 90
Ascent: 1556
Descent: 492
InvalidEm: 0
sfntRevision: 0x0002072b
LayerCount: 2
Layer: 0 1 "Back" 1
Layer: 1 1 "Fore" 0
XUID: [1021 234 1713769992 12396243]
FSType: 0
OS2Version: 3
OS2_WeightWidthSlopeOnly: 0
OS2_UseTypoMetrics: 1
CreationTime: 1229875379
ModificationTime: 1443290854
PfmFamily: 17
TTFWeight: 700
TTFWidth: 5
LineGap: 0
VLineGap: 0
Panose: 2 11 6 9 3 8 4 2 2 4
OS2TypoAscent: 1556
OS2TypoAOffset: 0
OS2TypoDescent: -492
OS2TypoDOffset: 0
OS2TypoLinegap: 410
OS2WinAscent: 1901
OS2WinAOffset: 0
OS2WinDescent: 483
OS2WinDOffset: 0
HheadAscent: 1901
HheadAOffset: 0
HheadDescent: -483
HheadDOffset: 0
OS2SubXSize: 1331
OS2SubYSize: 1433
OS2SubXOff: 0
OS2SubYOff: 286
OS2SupXSize: 1331
OS2SupYSize: 1433
OS2SupXOff: 0
OS2SupYOff: 983
OS2StrikeYSize: 102
OS2StrikeYPos: 530
OS2CapHeight: 1493
OS2XHeight: 1120
OS2Vendor: 'PfEd'
OS2CodePages: 600001df.ffdf0000
OS2UnicodeRanges: e60022ff.d200f9fb.02000028.00000000
MarkAttachClasses: 1
DEI: 91125
MacFeat: 1 0 0
MacName: 0 0 9 "Ligatures"
MacSetting: 2
MacName: 0 0 16 "Common Ligatures"
EndMacFeatures
TtTable: prep
PUSHW_1
 8
CALL
PUSHW_2
 640
 277
PUSHB_3
 148
 93
 5
NPUSHW
 28
 277
 150
 3
 277
 128
 4
 276
 254
 3
 275
 254
 3
 274
 18
 3
 273
 254
 3
 272
 254
 3
 271
 154
 3
 270
 254
 3
 269
PUSHB_3
 235
 71
 5
NPUSHW
 37
 269
 125
 3
 268
 37
 3
 267
 50
 3
 266
 150
 3
 265
 254
 3
 264
 14
 3
 263
 254
 3
 262
 37
 3
 261
 254
 3
 260
 14
 3
 259
 37
 3
 258
 254
 3
 257
NPUSHB
 89
 254
 3
 254
 254
 3
 253
 125
 3
 252
 254
 3
 251
 254
 3
 250
 50
 3
 249
 187
 3
 248
 125
 3
 247
 246
 140
 5
 247
 254
 3
 247
 192
 4
 246
 245
 89
 5
 246
 140
 3
 246
 128
 4
 245
 244
 38
 5
 245
 89
 3

StartChar: exclam
Encoding: 33 33 1
Width: 1233
Flags: W
LayerCount: 2
Back
Fore
SplineSet
483 283 m 1,0,-1
 750 283 l 1,1,-1
 750 0 l 1,2,-1
 483 0 l 1,3,-1
 483 283 l 1,0,-1
483 1493 m 1,4,-1
 750 1493 l 1,5,-1
 750 838 l 1,6,-1
 717 481 l 1,7,-1
 518 481 l 1,8,-1
 483 838 l 1,9,-1
 483 1493 l 1,4,-1
EndSplineSet
EndChar

StartChar: quotedbl
Encoding: 34 34 2
Width: 1233
Flags: W
LayerCount: 2
Back
Fore
SplineSet
999 1493 m 1,0,-1
 999 938 l 1,1,-1
 743 938 l 1,2,-1
 743 1493 l 1,3,-1
 999 1493 l 1,0,-1
487 1493 m 1,4,-1
 487 938 l 1,5,-1
 231 938 l 1,6,-1
 231 1493 l 1,7,-1
 487 1493 l 1,4,-1
EndSplineSet
EndChar

StartChar: numbersign
Encoding: 35 35 3
Width: 1233
Flags: W
LayerCount: 2
Back
Fore
SplineSet
707 1470 m 1,0,-1
 612 1096 l 1,1,-1
 815 1096 l 1,2,-1
 909 1470 l 1,3,-1
 1133 1470 l 1,4,-1
 1036 1096 l 1,5,-1
 1229 1096 l 1,6,-1
 1229 881 l 1,7,-1
 983 881 l 1,8,-1
 909 588 l 1,9,-1
 1114 588 l 1,10,-1
 1114 373 l 1,11,-1
 856 373 l 1,12,-1
 762 0 l 1,13,-1
 541 0 l 1,14,-1
 635 373 l 1,15,-1
 430 373 l 1,16,-1
 336 0 l 1,17,-1
 115 0 l 1,18,-1
 209 373 l 1,19,-1
 2 373 l 1,20,-1
 2 588 l 1,21,-1
 262 588 l 1,22,-1
 336 881 l 1,23,-1
 117 881 l 1,24,-1
 117 1096 l 1,25,-1
 391 1096 l 1,26,-1
 485 1470 l 1,27,-1
 707 1470 l 1,0,-1
762 881 m 1,28,-1
 557 881 l 1,29,-1
 483 588 l 1,30,-1
 688 588 l 1,31,-1
 762 881 l 1,28,-1
EndSplineSet
EndChar

StartChar: dollar
Encoding: 36 36 4
Width: 1233
Flags: W
LayerCount: 2
Back
Fore
SplineSet
694 528 m 1,0,-1
 694 226 l 1,1,2
 757 235 757 235 792 274.5 c 128,-1,3
 827 314 827 314 827 375 c 0,4,5
 827 437 827 437 792.5 476.5 c 128,-1,6
 758 516 758 516 694 528 c 1,0,-1
553 817 m 1,7,-1
 553 1100 l 1,8,9
 491 1092 491 1092 459.5 1058.5 c 128,-1,10
 428 1025 428 1025 428 967 c 0,11,12
 428 910 428 910 459.5 872 c 128,-1,13
 491 834 491 834 553 817 c 1,7,-1
694 -301 m 1,14,-1
 553 -301 l 1,15,-1
 552 0 l 1,16,17
 465 3 465 3 370 26 c 128,-1,18
 275 49 275 49 172 92 c 1,19,-1
 172 354 l 1,20,21
 275 293 275 293 371.5 260 c 128,-1,22
 468 227 468 227 553 226 c 1,23,-1
 553 555 l 1,24,25
 356 594 356 594 260 689.5 c 128,-1,26
 164 785 164 785 164 942 c 0,27,28
 164 1109 164 1109 266 1208 c 128,-1,29
 368 1307 368 1307 553 1319 c 1,30,-1
 553 1556 l 1,31,-1
 694 1556 l 1,32,-1
 695 1319 l 1,33,34
 766 1315 766 1315 842.5 1301 c 128,-1,35
 919 1287 919 1287 999 1262 c 1,36,-1
 999 1006 l 1,37,38
 937 1046 937 1046 861 1070 c 128,-1,39
 785 1094 785 1094 694 1100 c 1,40,-1
 694 793 l 1,41,42
 891 762 891 762 991.5 658.5 c 128,-1,43
 1092 555 1092 555 1092 383 c 0,44,45
 1092 219 1092 219 983.5 114 c 128,-1,46
 875 9 875 9 695 0 c 1,47,-1
 694 -301 l 1,14,-1
EndSplineSet
EndChar

StartChar: percent
Encoding: 37 37 5
Width: 1233
Flags: W
LayerCount: 2
Back
Fore
SplineSet
33 1112 m 256,0,1
 33 1246 33 1246 126 1339 c 128,-1,2
 219 1432 219 1432 352 1432 c 256,3,4
 485 1432 485 1432 578.5 1338.5 c 128,-1,5
 672 1245 672 1245 672 1112 c 256,6,7
 672 979 672 979 578.5 886 c 128,-1,8
 485 793 485 793 352 793 c 256,9,10
 219 793 219 793 126 885.5 c 128,-1,11
 33 978 33 978 33 1112 c 256,0,1
352 1249 m 256,12,13
 295 1249 295 1249 255 1209.5 c 128,-1,14
 215 1170 215 1170 215 1112 c 256,15,16
 215 1054 215 1054 255 1014.5 c 128,-1,17
 295 975 295 975 352 975 c 0,18,19
 410 975 410 975 449.5 1014.5 c 128,-1,20
 489 1054 489 1054 489 1112 c 0,21,22
 489 1169 489 1169 449 1209 c 128,-1,23
 409 1249 409 1249 352 1249 c 256,12,13
86 561 m 1,24,-1
 1128 979 l 1,25,-1
 1169 883 l 1,26,-1
 121 465 l 1,27,-1
 86 561 l 1,24,-1
580 319 m 256,28,29
 580 453 580 453 672.5 546 c 128,-1,30
 765 639 765 639 899 639 c 0,31,32
 1031 639 1031 639 1125 545.5 c 128,-1,33
 1219 452 1219 452 1219 319 c 0,34,35
 1219 187 1219 187 1125 93.5 c 128,-1,36
 1031 0 1031 0 899 0 c 0,37,38
 765 0 765 0 672.5 92.5 c 128,-1,39
 580 185 580 185 580 319 c 256,28,29
897 457 m 0,40,41
 841 457 841 457 801.5 417 c 128,-1,42
 762 377 762 377 762 319 c 256,43,44
 762 261 762 261 801 221.5 c 128,-1,45
 840 182 840 182 897 182 c 0,46,47
 955 182 955 182 995.5 222 c 128,-1,48
 1036 262 1036 262 1036 319 c 256,49,50
 1036 376 1036 376 995 416.5 c 128,-1,51
 954 457 954 457 897 457 c 0,40,41
EndSplineSet
EndChar

StartChar: ampersand
Encoding: 38 38 6
Width: 1233
Flags: W
LayerCount: 2
Back
Fore
SplineSet
870 72 m 1,0,1
 795 22 795 22 710.5 -3.5 c 128,-1,2
 626 -29 626 -29 539 -29 c 0,3,4
 315 -29 315 -29 176 102 c 128,-1,5
 37 233 37 233 37 442 c 0,6,7
 37 587 37 587 107.5 706 c 128,-1,8
 178 825 178 825 317 913 c 1,9,10
 267 991 267 991 243 1057.5 c 128,-1,11
 219 1124 219 1124 219 1184 c 0,12,13
 219 1346 219 1346 328 1433 c 128,-1,14
 437 1520 437 1520 643 1520 c 0,15,16
 716 1520 716 1520 786 1509 c 128,-1,17
 856 1498 856 1498 924 1477 c 1,18,-1
 924 1221 l 1,19,20
 860 1257 860 1257 794.5 1275.5 c 128,-1,21
 729 1294 729 1294 664 1294 c 0,22,23
 584 1294 584 1294 543 1266 c 128,-1,24
 502 1238 502 1238 502 1184 c 0,25,26
 502 1148 502 1148 532.5 1085 c 128,-1,27
 563 1022 563 1022 631 920 c 2,28,-1
 944 440 l 1,29,30
 965 478 965 478 976 527 c 128,-1,31
 987 576 987 576 987 633 c 0,32,33
 987 663 987 663 985 691.5 c 128,-1,34
 983 720 983 720 979 745 c 1,35,-1
 1214 745 l 1,36,-1
 1214 694 l 2,37,38
 1214 549 1214 549 1180 440.5 c 128,-1,39
 1146 332 1146 332 1073 246 c 1,40,-1
 1235 0 l 1,41,-1
 918 0 l 1,42,-1
 870 72 l 1,0,1
440 731 m 1,43,44
 374 688 374 688 340.5 628.5 c 128,-1,45
 307 569 307 569 307 496 c 0,46,47
 307 374 307 374 385.5 290.5 c 128,-1,48
 464 207 464 207 578 207 c 0,49,50
 606 207 606 207 635.5 213.5 c 128,-1,51
 665 220 665 220 693 232 c 0,52,53
 695 233 695 233 701 236 c 0,54,55
 730 250 730 250 748 262 c 1,56,-1
 440 731 l 1,43,44
EndSplineSet
EndChar

StartChar: quotesingle
Encoding: 39 39 7
Width: 1233
Flags: W
LayerCount: 2
Back
Fore
SplineSet
743 1493 m 1,0,-1
 743 938 l 1,1,-1
 487 938 l 1,2,-1
 487 1493 l 1,3,-1
 743 1493 l 1,0,-1
EndSplineSet
EndChar

StartChar: parenleft
Encoding: 40 40 8
Width: 1233
Flags: W
LayerCount: 2
Back
Fore
SplineSet
924 1554 m 1,0,1
 792 1315 792 1315 728 1091 c 128,-1,2
 664 867 664 867 664 643 c 0,3,4
 664 421 664 421 728 195.5 c 128,-1,5
 792 -30 792 -30 924 -270 c 1,6,-1
 696 -270 l 1,7,8
 537 -39 537 -39 460 185.5 c 128,-1,9
 383 410 383 410 383 643 c 0,10,11
 383 875 383 875 460.5 1100.5 c 128,-1,12
 538 1326 538 1326 696 1554 c 1,13,-1
 924 1554 l 1,0,1
EndSplineSet
EndChar

StartChar: parenright
Encoding: 41 41 9
Width: 1233
Flags: W
LayerCount: 2
Back
Fore
SplineSet
309 1554 m 1,0,-1
 537 1554 l 1,1,2
 695 1326 695 1326 772.5 1100.5 c 128,-1,3
 850 875 850 875 850 643 c 0,4,5
 850 410 850 410 773 185.5 c 128,-1,6
 696 -39 696 -39 537 -270 c 1,7,-1
 309 -270 l 1,8,9
 441 -30 441 -30 505 195.5 c 128,-1,10
 569 421 569 421 569 643 c 0,11,12
 569 867 569 867 505 1091 c 128,-1,13
 441 1315 441 1315 309 1554 c 1,0,-1
EndSplineSet
EndChar

StartChar: asterisk
Encoding: 42 42 10
Width: 1233
Flags: W
LayerCount: 2
Back
Fore
SplineSet
1175 852 m 1,0,-1
 762 629 l 1,1,-1
 1176 404 l 1,2,-1
 1088 252 l 1,3,-1
 697 488 l 1,4,-1
 697 51 l 1,5,-1
 520 51 l 1,6,-1
 520 487 l 1,7,8
 425 430 425 430 324 369 c 128,-1,9
 223 308 223 308 129 252 c 1,10,-1
 42 404 l 1,11,-1
 457 629 l 1,12,-1
 43 852 l 1,13,-1
 129 1005 l 1,14,-1
 520 770 l 1,15,-1
 520 1206 l 1,16,-1
 697 1206 l 1,17,-1
 697 770 l 1,18,19
 793 827 793 827 893.5 888 c 128,-1,20
 994 949 994 949 1088 1005 c 1,21,-1
 1175 852 l 1,0,-1
EndSplineSet
EndChar

StartChar: plus
Encoding: 43 43 11
Width: 1233
Flags: W
LayerCount: 2
Back
Fore
SplineSet
735 1192 m 1,0,-1
 735 762 l 1,1,-1
 1165 762 l 1,2,-1
 1165 524 l 1,3,-1
 735 524 l 1,4,-1
 735 92 l 1,5,-1
 498 92 l 1,6,-1
 498 524 l 1,7,-1
 66 524 l 1,8,-1
 66 762 l 1,9,-1
 498 762 l 1,10,-1
 498 1192 l 1,11,-1
 735 1192 l 1,0,-1
EndSplineSet
EndChar

StartChar: comma
Encoding: 44 44 12
Width: 1233
Flags: W
LayerCount: 2
Back
Fore
SplineSet
461 367 m 1,0,-1
 774 367 l 1,1,-1
 774 96 l 1,2,-1
 578 -287 l 1,3,-1
 362 -287 l 1,4,-1
 461 96 l 1,5,-1
 461 367 l 1,0,-1
EndSplineSet
EndChar

StartChar: hyphen
Encoding: 45 45 13
Width: 1233
Flags: W
LayerCount: 2
Back
Fore
SplineSet
102 724 m 1,0,-1
 1162 724 l 1,1,-1
 1162 455 l 1,2,-1
 102 455 l 1,3,-1
 102 724 l 1,0,-1
EndSplineSet
EndChar

StartChar: period
Encoding: 46 46 14
Width: 1233
Flags: W
LayerCount: 2
Back
Fore
SplineSet
449 367 m 1,0,-1
 782 367 l 1,1,-1
 782 0 l 1,2,-1
 449 0 l 1,3,-1
 449 367 l 1,0,-1
EndSplineSet
EndChar

StartChar: slash
Encoding: 47 47 15
Width: 1233
Flags: W
LayerCount: 2
Back
Fore
SplineSet
899 1493 m 1,0,-1
 1120 1493 l 1,1,-1
 334 -190 l 1,2,-1
 113 -190 l 1,3,-1
 899 1493 l 1,0,-1
EndSplineSet
EndChar

StartChar: zero
Encoding: 48 48 16
Width: 1233
Flags: W
LayerCount: 2
Back
Fore
SplineSet
123 745 m 0,0,1
 123 1133 123 1133 246 1326.5 c 128,-1,2
 369 1520 369 1520 616 1520 c 0,3,4
 864 1520 864 1520 987 1327 c 128,-1,5
 1110 1134 1110 1134 1110 745 c 0,6,7
 1110 357 1110 357 987 164 c 128,-1,8
 864 -29 864 -29 616 -29 c 0,9,10
 369 -29 369 -29 246 164.5 c 128,-1,11
 123 358 123 358 123 745 c 0,0,1
467 346 m 0,12,13
 514 221 514 221 616 221 c 0,14,15
 719 221 719 221 766 346 c 128,-1,16
 813 471 813 471 813 745 c 0,17,18
 813 849 813 849 806 931 c 1,19,-1
 457 375 l 1,20,21
 462 359 462 359 467 346 c 0,12,13
616 1270 m 0,22,23
 514 1270 514 1270 467 1145 c 128,-1,24
 420 1020 420 1020 420 745 c 0,25,26
 420 660 420 660 424 590 c 1,27,-1
 768 1139 l 2,28,29
 767 1142 767 1142 766 1145 c 0,30,31
 719 1270 719 1270 616 1270 c 0,22,23
EndSplineSet
EndChar

StartChar: one
Encoding: 49 49 17
Width: 1233
Flags: W
LayerCount: 2
Back
Fore
SplineSet
188 260 m 1,0,-1
 518 260 l 1,1,-1
 518 1229 l 1,2,-1
 211 1153 l 1,3,-1
 211 1419 l 1,4,-1
 520 1493 l 1,5,-1
 805 1493 l 1,6,-1
 805 260 l 1,7,-1
 1135 260 l 1,8,-1
 1135 0 l 1,9,-1
 188 0 l 1,10,-1
 188 260 l 1,0,-1
EndSplineSet
EndChar

StartChar: two
Encoding: 50 50 18
Width: 1233
Flags: W
LayerCount: 2
Back
Fore
SplineSet
434 260 m 1,0,-1
 1063 260 l 1,1,-1
 1063 0 l 1,2,-1
 115 0 l 1,3,-1
 115 252 l 1,4,-1
 275 422 l 2,5,6
 560 725 560 725 621 795 c 0,7,8
 696 881 696 881 729 947.5 c 128,-1,9
 762 1014 762 1014 762 1079 c 0,10,11
 762 1179 762 1179 701.5 1233.5 c 128,-1,12
 641 1288 641 1288 530 1288 c 0,13,14
 451 1288 451 1288 352.5 1256.5 c 128,-1,15
 254 1225 254 1225 147 1165 c 1,16,-1
 147 1440 l 1,17,18
 254 1479 254 1479 356.5 1499.5 c 128,-1,19
 459 1520 459 1520 553 1520 c 0,20,21
 790 1520 790 1520 925.5 1409.5 c 128,-1,22
 1061 1299 1061 1299 1061 1108 c 0,23,24
 1061 1020 1061 1020 1031.5 943 c 128,-1,25
 1002 866 1002 866 930 772 c 0,26,27
 877 704 877 704 639 466 c 0,28,29
 510 337 510 337 434 260 c 1,0,-1
EndSplineSet
EndChar

StartChar: three
Encoding: 51 51 19
Width: 1233
Flags: W
LayerCount: 2
Back
Fore
SplineSet
549 668 m 2,0,-1
 391 668 l 1,1,-1
 391 928 l 1,2,-1
 549 928 l 2,3,4
 659 928 659 928 719.5 971.5 c 128,-1,5
 780 1015 780 1015 780 1094 c 0,6,7
 780 1177 780 1177 719.5 1223.5 c 128,-1,8
 659 1270 659 1270 549 1270 c 0,9,10
 465 1270 465 1270 369 1249 c 128,-1,11
 273 1228 273 1228 170 1188 c 1,12,-1
 170 1456 l 1,13,14
 273 1487 273 1487 373 1503.5 c 128,-1,15
 473 1520 473 1520 565 1520 c 0,16,17
 801 1520 801 1520 933 1417 c 128,-1,18
 1065 1314 1065 1314 1065 1133 c 0,19,20
 1065 1000 1065 1000 989 915.5 c 128,-1,21
 913 831 913 831 772 805 c 1,22,23
 932 777 932 777 1016 677.5 c 128,-1,24
 1100 578 1100 578 1100 416 c 0,25,26
 1100 199 1100 199 961 85 c 128,-1,27
 822 -29 822 -29 557 -29 c 0,28,29
 444 -29 444 -29 334.5 -10 c 128,-1,30
 225 9 225 9 125 45 c 1,31,-1
 125 319 l 1,32,33
 219 272 219 272 328 247.5 c 128,-1,34
 437 223 437 223 557 223 c 256,35,36
 677 223 677 223 747 278.5 c 128,-1,37
 817 334 817 334 817 428 c 0,38,39
 817 543 817 543 747 605.5 c 128,-1,40
 677 668 677 668 549 668 c 2,0,-1
EndSplineSet
EndChar

StartChar: four
Encoding: 52 52 20
Width: 1233
Flags: W
LayerCount: 2
Back
Fore
SplineSet
694 1165 m 1,0,-1
 317 575 l 1,1,-1
 694 575 l 1,2,-1
 694 1165 l 1,0,-1
668 1493 m 1,3,-1
 977 1493 l 1,4,-1
 977 575 l 1,5,-1
 1141 575 l 1,6,-1
 1141 322 l 1,7,-1
 977 322 l 1,8,-1
 977 0 l 1,9,-1
 694 0 l 1,10,-1
 694 322 l 1,11,-1
 102 322 l 1,12,-1
 102 608 l 1,13,-1
 668 1493 l 1,3,-1
EndSplineSet
EndChar

StartChar: five
Encoding: 53 53 21
Width: 1233
Flags: W
LayerCount: 2
Back
Fore
SplineSet
193 1493 m 1,0,-1
 1004 1493 l 1,1,-1
 1004 1233 l 1,2,-1
 432 1233 l 1,3,-1
 432 956 l 1,4,5
 468 970 468 970 509 976.5 c 128,-1,6
 550 983 550 983 596 983 c 0,7,8
 818 983 818 983 956 843 c 128,-1,9
 1094 703 1094 703 1094 479 c 0,10,11
 1094 244 1094 244 944.5 107.5 c 128,-1,12
 795 -29 795 -29 537 -29 c 0,13,14
 441 -29 441 -29 343 -13 c 128,-1,15
 245 3 245 3 143 35 c 1,16,-1
 143 301 l 1,17,18
 226 260 226 260 313.5 239.5 c 128,-1,19
 401 219 401 219 489 219 c 0,20,21
 645 219 645 219 726 285.5 c 128,-1,22
 807 352 807 352 807 479 c 0,23,24
 807 596 807 596 726.5 666.5 c 128,-1,25
 646 737 646 737 512 737 c 0,26,27
 433 737 433 737 353.5 717.5 c 128,-1,28
 274 698 274 698 193 659 c 1,29,-1
 193 1493 l 1,0,-1
EndSplineSet
EndChar

StartChar: six
Encoding: 54 54 22
Width: 1233
Flags: W
LayerCount: 2
Back
Fore
SplineSet
643 748 m 256,0,1
 547 748 547 748 496.5 678.5 c 128,-1,2
 446 609 446 609 446 477 c 0,3,4
 446 346 446 346 496.5 276.5 c 128,-1,5
 547 207 547 207 643 207 c 256,6,7
 739 207 739 207 790.5 276.5 c 128,-1,8
 842 346 842 346 842 477 c 256,9,10
 842 608 842 608 790.5 678 c 128,-1,11
 739 748 739 748 643 748 c 256,0,1
1030 1458 m 1,12,-1
 1030 1190 l 1,13,14
 951 1235 951 1235 878.5 1257.5 c 128,-1,15
 806 1280 806 1280 739 1280 c 0,16,17
 579 1280 579 1280 495.5 1172.5 c 128,-1,18
 412 1065 412 1065 408 855 c 1,19,20
 455 920 455 920 528 952.5 c 128,-1,21
 601 985 601 985 700 985 c 0,22,23
 902 985 902 985 1012 857.5 c 128,-1,24
 1122 730 1122 730 1122 496 c 0,25,26
 1122 245 1122 245 998.5 107 c 128,-1,27
 875 -31 875 -31 651 -31 c 0,28,29
 378 -31 378 -31 254.5 152 c 128,-1,30
 131 335 131 335 131 743 c 0,31,32
 131 1131 131 1131 282 1324.5 c 128,-1,33
 433 1518 433 1518 735 1518 c 0,34,35
 805 1518 805 1518 879.5 1503 c 128,-1,36
 954 1488 954 1488 1030 1458 c 1,12,-1
EndSplineSet
EndChar

StartChar: seven
Encoding: 55 55 23
Width: 1233
Flags: W
LayerCount: 2
Back
Fore
SplineSet
135 1493 m 1,0,-1
 1079 1493 l 1,1,-1
 1079 1284 l 1,2,-1
 573 0 l 1,3,-1
 272 0 l 1,4,-1
 758 1233 l 1,5,-1
 135 1233 l 1,6,-1
 135 1493 l 1,0,-1
EndSplineSet
EndChar

StartChar: eight
Encoding: 56 56 24
Width: 1233
Flags: W
LayerCount: 2
Back
Fore
SplineSet
616 666 m 0,0,1
 517 666 517 666 456 603.5 c 128,-1,2
 395 541 395 541 395 438 c 256,3,4
 395 335 395 335 456 272 c 128,-1,5
 517 209 517 209 616 209 c 256,6,7
 715 209 715 209 776.5 273 c 128,-1,8
 838 337 838 337 838 438 c 0,9,10
 838 541 838 541 777 603.5 c 128,-1,11
 716 666 716 666 616 666 c 0,0,1
397 791 m 1,12,13
 284 830 284 830 225 913.5 c 128,-1,14
 166 997 166 997 166 1118 c 0,15,16
 166 1304 166 1304 287 1412 c 128,-1,17
 408 1520 408 1520 616 1520 c 0,18,19
 825 1520 825 1520 946 1412 c 128,-1,20
 1067 1304 1067 1304 1067 1118 c 0,21,22
 1067 998 1067 998 1009 914.5 c 128,-1,23
 951 831 951 831 840 791 c 1,24,25
 964 753 964 753 1034 655 c 128,-1,26
 1104 557 1104 557 1104 420 c 0,27,28
 1104 205 1104 205 977 88 c 128,-1,29
 850 -29 850 -29 616 -29 c 0,30,31
 383 -29 383 -29 256 88 c 128,-1,32
 129 205 129 205 129 420 c 0,33,34
 129 558 129 558 200 656 c 128,-1,35
 271 754 271 754 397 791 c 1,12,13
428 1094 m 0,36,37
 428 1006 428 1006 478.5 954.5 c 128,-1,38
 529 903 529 903 616 903 c 0,39,40
 704 903 704 903 754.5 954.5 c 128,-1,41
 805 1006 805 1006 805 1094 c 0,42,43
 805 1181 805 1181 754.5 1231.5 c 128,-1,44
 704 1282 704 1282 616 1282 c 0,45,46
 530 1282 530 1282 479 1231 c 128,-1,47
 428 1180 428 1180 428 1094 c 0,36,37
EndSplineSet
EndChar

StartChar: nine
Encoding: 57 57 25
Width: 1233
Flags: W
LayerCount: 2
Back
Fore
SplineSet
203 20 m 1,0,-1
 203 289 l 1,1,2
 282 243 282 243 354.5 221 c 128,-1,3
 427 199 427 199 494 199 c 0,4,5
 653 199 653 199 736.5 305.5 c 128,-1,6
 820 412 820 412 825 624 c 1,7,8
 778 559 778 559 705 526.5 c 128,-1,9
 632 494 632 494 532 494 c 0,10,11
 331 494 331 494 221 621.5 c 128,-1,12
 111 749 111 749 111 983 c 0,13,14
 111 1233 111 1233 234 1370 c 128,-1,15
 357 1507 357 1507 582 1507 c 0,16,17
 855 1507 855 1507 978.5 1324.5 c 128,-1,18
 1102 1142 1102 1142 1102 735 c 0,19,20
 1102 348 1102 348 951 154.5 c 128,-1,21
 800 -39 800 -39 498 -39 c 0,22,23
 428 -39 428 -39 353.5 -24 c 128,-1,24
 279 -9 279 -9 203 20 c 1,0,-1
590 741 m 0,25,26
 685 741 685 741 735.5 810.5 c 128,-1,27
 786 880 786 880 786 1012 c 0,28,29
 786 1143 786 1143 735.5 1212.5 c 128,-1,30
 685 1282 685 1282 590 1282 c 0,31,32
 494 1282 494 1282 442.5 1212.5 c 128,-1,33
 391 1143 391 1143 391 1012 c 256,34,35
 391 881 391 881 442.5 811 c 128,-1,36
 494 741 494 741 590 741 c 0,25,26
EndSplineSet
EndChar

StartChar: colon
Encoding: 58 58 26
Width: 1233
Flags: W
LayerCount: 2
Back
Fore
SplineSet
449 1063 m 1,0,-1
 782 1063 l 1,1,-1
 782 698 l 1,2,-1
 449 698 l 1,3,-1
 449 1063 l 1,0,-1
449 367 m 1,4,-1
 782 367 l 1,5,-1
 782 0 l 1,6,-1
 449 0 l 1,7,-1
 449 367 l 1,4,-1
EndSplineSet
EndChar

StartChar: semicolon
Encoding: 59 59 27
Width: 1233
Flags: W
LayerCount: 2
Back
Fore
SplineSet
449 367 m 1,0,-1
 782 367 l 1,1,-1
 782 96 l 1,2,-1
 586 -287 l 1,3,-1
 371 -287 l 1,4,-1
 449 96 l 1,5,-1
 449 367 l 1,0,-1
449 1063 m 1,6,-1
 782 1063 l 1,7,-1
 782 698 l 1,8,-1
 449 698 l 1,9,-1
 449 1063 l 1,6,-1
EndSplineSet
EndChar

StartChar: less
Encoding: 60 60 28
Width: 1233
Flags: W
LayerCount: 2
Back
Fore
SplineSet
1145 926 m 1,0,-1
 350 641 l 1,1,-1
 1145 358 l 1,2,-1
 1145 109 l 1,3,-1
 88 524 l 1,4,-1
 88 760 l 1,5,-1
 1145 1176 l 1,6,-1
 1145 926 l 1,0,-1
EndSplineSet
EndChar

StartChar: equal
Encoding: 61 61 29
Width: 1233
Flags: W
LayerCount: 2
Back
Fore
SplineSet
88 532 m 1,0,-1
 1145 532 l 1,1,-1
 1145 295 l 1,2,-1
 88 295 l 1,3,-1
 88 532 l 1,0,-1
88 987 m 1,4,-1
 1145 987 l 1,5,-1
 1145 752 l 1,6,-1
 88 752 l 1,7,-1
 88 987 l 1,4,-1
EndSplineSet
EndChar

StartChar: greater
Encoding: 62 62 30
Width: 1233
Flags: W
LayerCount: 2
Back
Fore
SplineSet
88 926 m 1,0,-1
 88 1176 l 1,1,-1
 1145 760 l 1,2,-1
 1145 524 l 1,3,-1
 88 109 l 1,4,-1
 88 358 l 1,5,-1
 883 641 l 1,6,-1
 88 926 l 1,0,-1
EndSplineSet
EndChar

StartChar: question
Encoding: 63 63 31
Width: 1233
Flags: W
LayerCount: 2
Back
Fore
SplineSet
440 283 m 1,0,-1
 707 283 l 1,1,-1
 707 0 l 1,2,-1
 440 0 l 1,3,-1
 440 283 l 1,0,-1
707 401 m 1,4,-1
 440 401 l 1,5,-1
 440 555 l 2,6,7
 440 654 440 654 471 724 c 128,-1,8
 502 794 502 794 582 872 c 2,9,-1
 672 961 l 2,10,11
 735 1022 735 1022 757.5 1062 c 128,-1,12
 780 1102 780 1102 780 1145 c 0,13,14
 780 1212 780 1212 734 1246 c 128,-1,15
 688 1280 688 1280 596 1280 c 0,16,17
 512 1280 512 1280 420.5 1244.5 c 128,-1,18
 329 1209 329 1209 233 1139 c 1,19,-1
 233 1407 l 1,20,21
 331 1463 331 1463 431.5 1491.5 c 128,-1,22
 532 1520 532 1520 633 1520 c 0,23,24
 835 1520 835 1520 950 1426 c 128,-1,25
 1065 1332 1065 1332 1065 1167 c 0,26,27
 1065 1091 1065 1091 1031 1025.5 c 128,-1,28
 997 960 997 960 903 868 c 2,29,-1
 815 782 l 2,30,31
 747 716 747 716 728 674 c 128,-1,32
 709 632 709 632 709 571 c 0,33,34
 709 562 709 562 708.5 550 c 128,-1,35
 708 538 708 538 707 524 c 2,36,-1
 707 401 l 1,4,-1
EndSplineSet
EndChar

StartChar: at
Encoding: 64 64 32
Width: 1233
Flags: W
LayerCount: 2
Back
Fore
SplineSet
973 545 m 0,0,1
 973 658 973 658 922 722 c 128,-1,2
 871 786 871 786 782 786 c 256,3,4
 693 786 693 786 642.5 722 c 128,-1,5
 592 658 592 658 592 545 c 0,6,7
 592 431 592 431 642.5 367 c 128,-1,8
 693 303 693 303 782 303 c 256,9,10
 871 303 871 303 922 367 c 128,-1,11
 973 431 973 431 973 545 c 0,0,1
1159 135 m 1,12,-1
 963 135 l 1,13,-1
 963 217 l 1,14,15
 925 164 925 164 873.5 139.5 c 128,-1,16
 822 115 822 115 750 115 c 0,17,18
 586 115 586 115 485.5 233 c 128,-1,19
 385 351 385 351 385 545 c 0,20,21
 385 738 385 738 485 855.5 c 128,-1,22
 585 973 585 973 750 973 c 0,23,24
 821 973 821 973 875 948.5 c 128,-1,25
 929 924 929 924 963 877 c 1,26,-1
 963 918 l 2,27,28
 963 1054 963 1054 888.5 1128 c 128,-1,29
 814 1202 814 1202 676 1202 c 0,30,31
 468 1202 468 1202 336.5 1019 c 128,-1,32
 205 836 205 836 205 543 c 0,33,34
 205 236 205 236 357 54.5 c 128,-1,35
 509 -127 509 -127 762 -127 c 0,36,37
 842 -127 842 -127 917 -103.5 c 128,-1,38
 992 -80 992 -80 1061 -33 c 1,39,-1
 1153 -209 l 1,40,41
 1072 -264 1072 -264 976.5 -291.5 c 128,-1,42
 881 -319 881 -319 772 -319 c 0,43,44
 422 -319 422 -319 214 -86 c 128,-1,45
 6 147 6 147 6 543 c 0,46,47
 6 930 6 930 193 1162.5 c 128,-1,48
 380 1395 380 1395 688 1395 c 0,49,50
 906 1395 906 1395 1032.5 1263.5 c 128,-1,51
 1159 1132 1159 1132 1159 905 c 2,52,-1
 1159 135 l 1,12,-1
EndSplineSet
EndChar

StartChar: A
Encoding: 65 65 33
Width: 1233
Flags: W
LayerCount: 2
Back
Fore
SplineSet
616 1223 m 1,0,-1
 477 612 l 1,1,-1
 756 612 l 1,2,-1
 616 1223 l 1,0,-1
436 1493 m 1,3,-1
 797 1493 l 1,4,-1
 1200 0 l 1,5,-1
 905 0 l 1,6,-1
 813 369 l 1,7,-1
 418 369 l 1,8,-1
 328 0 l 1,9,-1
 33 0 l 1,10,-1
 436 1493 l 1,3,-1
EndSplineSet
EndChar

StartChar: B
Encoding: 66 66 34
Width: 1233
Flags: W
LayerCount: 2
Back
Fore
SplineSet
410 678 m 1,0,-1
 410 236 l 1,1,-1
 606 236 l 2,2,3
 747 236 747 236 803.5 284 c 128,-1,4
 860 332 860 332 860 451 c 0,5,6
 860 572 860 572 801 625 c 128,-1,7
 742 678 742 678 606 678 c 2,8,-1
 410 678 l 1,0,-1
410 1260 m 1,9,-1
 410 913 l 1,10,-1
 606 913 l 2,11,12
 718 913 718 913 765.5 953 c 128,-1,13
 813 993 813 993 813 1085 c 256,14,15
 813 1177 813 1177 764.5 1218.5 c 128,-1,16
 716 1260 716 1260 606 1260 c 2,17,-1
 410 1260 l 1,9,-1
125 1495 m 1,18,-1
 606 1495 l 2,19,20
 855 1495 855 1495 980.5 1400.5 c 128,-1,21
 1106 1306 1106 1306 1106 1118 c 0,22,23
 1106 974 1106 974 1032 893 c 128,-1,24
 958 812 958 812 815 799 c 1,25,26
 986 782 986 782 1072.5 684 c 128,-1,27
 1159 586 1159 586 1159 410 c 0,28,29
 1159 194 1159 194 1029 97 c 128,-1,30
 899 0 899 0 606 0 c 2,31,-1
 125 0 l 1,32,-1
 125 1495 l 1,18,-1
EndSplineSet
EndChar

StartChar: C
Encoding: 67 67 35
Width: 1233
Flags: W
LayerCount: 2
Back
Fore
SplineSet
1081 43 m 1,0,1
 1011 7 1011 7 934 -11 c 128,-1,2
 857 -29 857 -29 772 -29 c 0,3,4
 470 -29 470 -29 311 170 c 128,-1,5
 152 369 152 369 152 745 c 0,6,7
 152 1122 152 1122 311 1321 c 128,-1,8
 470 1520 470 1520 772 1520 c 0,9,10
 857 1520 857 1520 935 1502 c 128,-1,11
 1013 1484 1013 1484 1081 1448 c 1,12,-1
 1081 1120 l 1,13,14
 1005 1190 1005 1190 933.5 1222.5 c 128,-1,15
 862 1255 862 1255 786 1255 c 0,16,17
 624 1255 624 1255 541.5 1126.5 c 128,-1,18
 459 998 459 998 459 745 c 0,19,20
 459 493 459 493 541.5 364.5 c 128,-1,21
 624 236 624 236 786 236 c 0,22,23
 862 236 862 236 933.5 268.5 c 128,-1,24
 1005 301 1005 301 1081 371 c 1,25,-1
 1081 43 l 1,0,1
EndSplineSet
EndChar

StartChar: D
Encoding: 68 68 36
Width: 1233
Flags: W
LayerCount: 2
Back
Fore
SplineSet
432 1227 m 1,0,-1
 432 266 l 1,1,-1
 512 266 l 2,2,3
 686 266 686 266 760 375.5 c 128,-1,4
 834 485 834 485 834 748 c 0,5,6
 834 1009 834 1009 760 1118 c 128,-1,7
 686 1227 686 1227 512 1227 c 2,8,-1
 432 1227 l 1,0,-1
137 1493 m 1,9,-1
 453 1493 l 2,10,11
 819 1493 819 1493 980 1318.5 c 128,-1,12
 1141 1144 1141 1144 1141 748 c 0,13,14
 1141 351 1141 351 980 175.5 c 128,-1,15
 819 0 819 0 453 0 c 2,16,-1
 137 0 l 1,17,-1
 137 1493 l 1,9,-1
EndSplineSet
EndChar

StartChar: E
Encoding: 69 69 37
Width: 1233
Flags: W
LayerCount: 2
Back
Fore
SplineSet
1098 0 m 1,0,-1
 168 0 l 1,1,-1
 168 1493 l 1,2,-1
 1098 1493 l 1,3,-1
 1098 1233 l 1,4,-1
 463 1233 l 1,5,-1
 463 911 l 1,6,-1
 1038 911 l 1,7,-1
 1038 651 l 1,8,-1
 463 651 l 1,9,-1
 463 260 l 1,10,-1
 1098 260 l 1,11,-1
 1098 0 l 1,0,-1
EndSplineSet
EndChar

StartChar: F
Encoding: 70 70 38
Width: 1233
Flags: W
LayerCount: 2
Back
Fore
SplineSet
1112 1233 m 1,0,-1
 477 1233 l 1,1,-1
 477 911 l 1,2,-1
 1055 911 l 1,3,-1
 1055 651 l 1,4,-1
 477 651 l 1,5,-1
 477 0 l 1,6,-1
 182 0 l 1,7,-1
 182 1493 l 1,8,-1
 1112 1493 l 1,9,-1
 1112 1233 l 1,0,-1
EndSplineSet
EndChar

StartChar: G
Encoding: 71 71 39
Width: 1233
Flags: W
LayerCount: 2
Back
Fore
SplineSet
872 270 m 1,0,-1
 872 555 l 1,1,-1
 670 555 l 1,2,-1
 670 803 l 1,3,-1
 1130 803 l 1,4,-1
 1130 119 l 1,5,6
 1045 46 1045 46 942.5 8.5 c 128,-1,7
 840 -29 840 -29 723 -29 c 0,8,9
 433 -29 433 -29 275 172.5 c 128,-1,10
 117 374 117 374 117 745 c 0,11,12
 117 1122 117 1122 276.5 1321 c 128,-1,13
 436 1520 436 1520 737 1520 c 0,14,15
 827 1520 827 1520 914 1494.5 c 128,-1,16
 1001 1469 1001 1469 1077 1421 c 1,17,-1
 1077 1094 l 1,18,19
 1015 1174 1015 1174 934.5 1214.5 c 128,-1,20
 854 1255 854 1255 758 1255 c 0,21,22
 590 1255 590 1255 507 1128.5 c 128,-1,23
 424 1002 424 1002 424 745 c 0,24,25
 424 496 424 496 504 366 c 128,-1,26
 584 236 584 236 737 236 c 0,27,28
 783 236 783 236 817 244.5 c 128,-1,29
 851 253 851 253 872 270 c 1,0,-1
EndSplineSet
EndChar

StartChar: H
Encoding: 72 72 40
Width: 1233
Flags: W
LayerCount: 2
Back
Fore
SplineSet
137 1493 m 1,0,-1
 432 1493 l 1,1,-1
 432 924 l 1,2,-1
 801 924 l 1,3,-1
 801 1493 l 1,4,-1
 1096 1493 l 1,5,-1
 1096 0 l 1,6,-1
 801 0 l 1,7,-1
 801 664 l 1,8,-1
 432 664 l 1,9,-1
 432 0 l 1,10,-1
 137 0 l 1,11,-1
 137 1493 l 1,0,-1
EndSplineSet
EndChar

StartChar: I
Encoding: 73 73 41
Width: 1233
Flags: W
LayerCount: 2
Back
Fore
SplineSet
172 1233 m 1,0,-1
 172 1493 l 1,1,-1
 1061 1493 l 1,2,-1
 1061 1233 l 1,3,-1
 764 1233 l 1,4,-1
 764 260 l 1,5,-1
 1061 260 l 1,6,-1
 1061 0 l 1,7,-1
 172 0 l 1,8,-1
 172 260 l 1,9,-1
 469 260 l 1,10,-1
 469 1233 l 1,11,-1
 172 1233 l 1,0,-1
EndSplineSet
EndChar

StartChar: J
Encoding: 74 74 42
Width: 1233
Flags: W
LayerCount: 2
Back
Fore
SplineSet
109 74 m 1,0,-1
 109 416 l 1,1,2
 195 328 195 328 292.5 282 c 128,-1,3
 390 236 390 236 489 236 c 0,4,5
 605 236 605 236 659 294 c 128,-1,6
 713 352 713 352 713 479 c 2,7,-1
 713 1233 l 1,8,-1
 352 1233 l 1,9,-1
 352 1493 l 1,10,-1
 1008 1493 l 1,11,-1
 1008 479 l 2,12,13
 1008 206 1008 206 893.5 88.5 c 128,-1,14
 779 -29 779 -29 516 -29 c 0,15,16
 421 -29 421 -29 317.5 -3 c 128,-1,17
 214 23 214 23 109 74 c 1,0,-1
EndSplineSet
EndChar

StartChar: K
Encoding: 75 75 43
Width: 1233
Flags: W
LayerCount: 2
Back
Fore
SplineSet
117 1493 m 1,0,-1
 412 1493 l 1,1,-1
 412 903 l 1,2,-1
 874 1493 l 1,3,-1
 1208 1493 l 1,4,-1
 737 905 l 1,5,-1
 1225 0 l 1,6,-1
 897 0 l 1,7,-1
 543 672 l 1,8,-1
 412 506 l 1,9,-1
 412 0 l 1,10,-1
 117 0 l 1,11,-1
 117 1493 l 1,0,-1
EndSplineSet
EndChar

StartChar: L
Encoding: 76 76 44
Width: 1233
Flags: W
LayerCount: 2
Back
Fore
SplineSet
225 0 m 1,0,-1
 225 1493 l 1,1,-1
 520 1493 l 1,2,-1
 520 260 l 1,3,-1
 1151 260 l 1,4,-1
 1151 0 l 1,5,-1
 225 0 l 1,0,-1
EndSplineSet
EndChar

StartChar: M
Encoding: 77 77 45
Width: 1233
Flags: W
LayerCount: 2
Back
Fore
SplineSet
86 1493 m 1,0,-1
 438 1493 l 1,1,-1
 616 838 l 1,2,-1
 793 1493 l 1,3,-1
 1147 1493 l 1,4,-1
 1147 0 l 1,5,-1
 893 0 l 1,6,-1
 893 1196 l 1,7,-1
 735 543 l 1,8,-1
 500 543 l 1,9,-1
 340 1196 l 1,10,-1
 340 0 l 1,11,-1
 86 0 l 1,12,-1
 86 1493 l 1,0,-1
EndSplineSet
EndChar

StartChar: N
Encoding: 78 78 46
Width: 1233
Flags: W
LayerCount: 2
Back
Fore
SplineSet
119 1493 m 1,0,-1
 436 1493 l 1,1,-1
 852 408 l 1,2,-1
 852 1493 l 1,3,-1
 1112 1493 l 1,4,-1
 1112 0 l 1,5,-1
 797 0 l 1,6,-1
 379 1085 l 1,7,-1
 379 0 l 1,8,-1
 119 0 l 1,9,-1
 119 1493 l 1,0,-1
EndSplineSet
EndChar

StartChar: O
Encoding: 79 79 47
Width: 1233
Flags: W
LayerCount: 2
Back
Fore
SplineSet
616 1255 m 0,0,1
 503 1255 503 1255 451 1134.5 c 128,-1,2
 399 1014 399 1014 399 745 c 0,3,4
 399 477 399 477 451 356.5 c 128,-1,5
 503 236 503 236 616 236 c 0,6,7
 730 236 730 236 782 356.5 c 128,-1,8
 834 477 834 477 834 745 c 0,9,10
 834 1014 834 1014 782 1134.5 c 128,-1,11
 730 1255 730 1255 616 1255 c 0,0,1
92 745 m 0,12,13
 92 1128 92 1128 224.5 1324 c 128,-1,14
 357 1520 357 1520 616 1520 c 0,15,16
 876 1520 876 1520 1008.5 1324 c 128,-1,17
 1141 1128 1141 1128 1141 745 c 0,18,19
 1141 363 1141 363 1008.5 167 c 128,-1,20
 876 -29 876 -29 616 -29 c 0,21,22
 357 -29 357 -29 224.5 167 c 128,-1,23
 92 363 92 363 92 745 c 0,12,13
EndSplineSet
EndChar

StartChar: P
Encoding: 80 80 48
Width: 1233
Flags: W
LayerCount: 2
Back
Fore
SplineSet
457 1245 m 1,0,-1
 457 807 l 1,1,-1
 578 807 l 2,2,3
 723 807 723 807 781.5 856 c 128,-1,4
 840 905 840 905 840 1026 c 256,5,6
 840 1147 840 1147 781.5 1196 c 128,-1,7
 723 1245 723 1245 578 1245 c 2,8,-1
 457 1245 l 1,0,-1
162 1493 m 1,9,-1
 567 1493 l 2,10,11
 876 1493 876 1493 1011.5 1383 c 128,-1,12
 1147 1273 1147 1273 1147 1026 c 256,13,14
 1147 779 1147 779 1011.5 669 c 128,-1,15
 876 559 876 559 567 559 c 2,16,-1
 457 559 l 1,17,-1
 457 0 l 1,18,-1
 162 0 l 1,19,-1
 162 1493 l 1,9,-1
EndSplineSet
EndChar

StartChar: Q
Encoding: 81 81 49
Width: 1233
Flags: W
LayerCount: 2
Back
Fore
SplineSet
656 -23 m 1,0,1
 642 -26 642 -26 632.5 -27.5 c 128,-1,2
 623 -29 623 -29 614 -29 c 0,3,4
 357 -29 357 -29 224.5 167 c 128,-1,5
 92 363 92 363 92 745 c 0,6,7
 92 1128 92 1128 224.5 1324 c 128,-1,8
 357 1520 357 1520 616 1520 c 0,9,10
 876 1520 876 1520 1008.5 1324 c 128,-1,11
 1141 1128 1141 1128 1141 745 c 0,12,13
 1141 482 1141 482 1078 304.5 c 128,-1,14
 1015 127 1015 127 895 51 c 1,15,-1
 1081 -131 l 1,16,-1
 879 -281 l 1,17,-1
 656 -23 l 1,0,1
616 1255 m 0,18,19
 503 1255 503 1255 451 1134.5 c 128,-1,20
 399 1014 399 1014 399 745 c 0,21,22
 399 477 399 477 451 356.5 c 128,-1,23
 503 236 503 236 616 236 c 0,24,25
 730 236 730 236 782 356.5 c 128,-1,26
 834 477 834 477 834 745 c 0,27,28
 834 1014 834 1014 782 1134.5 c 128,-1,29
 730 1255 730 1255 616 1255 c 0,18,19
EndSplineSet
EndChar

StartChar: R
Encoding: 82 82 50
Width: 1233
Flags: W
LayerCount: 2
Back
Fore
SplineSet
807 705 m 1,0,1
 851 696 851 696 883.5 663.5 c 128,-1,2
 916 631 916 631 963 537 c 2,3,-1
 1233 0 l 1,4,-1
 909 0 l 1,5,-1
 729 377 l 2,6,7
 721 393 721 393 708 421 c 0,8,9
 629 590 629 590 522 590 c 2,10,-1
 428 590 l 1,11,-1
 428 0 l 1,12,-1
 133 0 l 1,13,-1
 133 1493 l 1,14,-1
 559 1493 l 2,15,16
 847 1493 847 1493 972.5 1391 c 128,-1,17
 1098 1289 1098 1289 1098 1059 c 0,18,19
 1098 905 1098 905 1023 814 c 128,-1,20
 948 723 948 723 807 705 c 1,0,1
428 1245 m 1,21,-1
 428 838 l 1,22,-1
 567 838 l 2,23,24
 688 838 688 838 740.5 885.5 c 128,-1,25
 793 933 793 933 793 1042 c 256,26,27
 793 1151 793 1151 741 1198 c 128,-1,28
 689 1245 689 1245 567 1245 c 2,29,-1
 428 1245 l 1,21,-1
EndSplineSet
EndChar

StartChar: S
Encoding: 83 83 51
Width: 1233
Flags: W
LayerCount: 2
Back
Fore
SplineSet
510 655 m 2,0,1
 287 740 287 740 208 833.5 c 128,-1,2
 129 927 129 927 129 1085 c 0,3,4
 129 1288 129 1288 259 1404 c 128,-1,5
 389 1520 389 1520 616 1520 c 0,6,7
 719 1520 719 1520 822 1496.5 c 128,-1,8
 925 1473 925 1473 1026 1427 c 1,9,-1
 1026 1139 l 1,10,11
 931 1206 931 1206 833 1241 c 128,-1,12
 735 1276 735 1276 639 1276 c 0,13,14
 532 1276 532 1276 475 1233 c 128,-1,15
 418 1190 418 1190 418 1110 c 0,16,17
 418 1048 418 1048 459.5 1007.5 c 128,-1,18
 501 967 501 967 633 918 c 2,19,-1
 760 870 l 2,20,21
 940 804 940 804 1025 695 c 128,-1,22
 1110 586 1110 586 1110 420 c 0,23,24
 1110 194 1110 194 976.5 82.5 c 128,-1,25
 843 -29 843 -29 573 -29 c 0,26,27
 462 -29 462 -29 350.5 -2.5 c 128,-1,28
 239 24 239 24 135 76 c 1,29,-1
 135 381 l 1,30,31
 253 297 253 297 363.5 256 c 128,-1,32
 474 215 474 215 582 215 c 0,33,34
 691 215 691 215 751 264.5 c 128,-1,35
 811 314 811 314 811 403 c 0,36,37
 811 470 811 470 771 520.5 c 128,-1,38
 731 571 731 571 655 600 c 2,39,-1
 510 655 l 2,0,1
EndSplineSet
EndChar

StartChar: T
Encoding: 84 84 52
Width: 1233
Flags: W
LayerCount: 2
Back
Fore
SplineSet
764 0 m 1,0,-1
 469 0 l 1,1,-1
 469 1235 l 1,2,-1
 90 1235 l 1,3,-1
 90 1493 l 1,4,-1
 1143 1493 l 1,5,-1
 1143 1235 l 1,6,-1
 764 1235 l 1,7,-1
 764 0 l 1,0,-1
EndSplineSet
EndChar

StartChar: U
Encoding: 85 85 53
Width: 1233
Flags: W
LayerCount: 2
Back
Fore
SplineSet
106 551 m 2,0,-1
 106 1493 l 1,1,-1
 401 1493 l 1,2,-1
 401 477 l 2,3,4
 401 365 401 365 458 301.5 c 128,-1,5
 515 238 515 238 616 238 c 256,6,7
 717 238 717 238 774 301.5 c 128,-1,8
 831 365 831 365 831 477 c 2,9,-1
 831 1493 l 1,10,-1
 1126 1493 l 1,11,-1
 1126 551 l 2,12,13
 1126 247 1126 247 1005 109 c 128,-1,14
 884 -29 884 -29 616 -29 c 0,15,16
 349 -29 349 -29 227.5 109 c 128,-1,17
 106 247 106 247 106 551 c 2,0,-1
EndSplineSet
EndChar

StartChar: V
Encoding: 86 86 54
Width: 1233
Flags: W
LayerCount: 2
Back
Fore
SplineSet
616 246 m 1,0,-1
 879 1493 l 1,1,-1
 1176 1493 l 1,2,-1
 821 0 l 1,3,-1
 412 0 l 1,4,-1
 57 1493 l 1,5,-1
 354 1493 l 1,6,-1
 616 246 l 1,0,-1
EndSplineSet
EndChar

StartChar: W
Encoding: 87 87 55
Width: 1233
Flags: W
LayerCount: 2
Back
Fore
SplineSet
0 1493 m 1,0,-1
 258 1493 l 1,1,-1
 365 397 l 1,2,-1
 494 1106 l 1,3,-1
 739 1106 l 1,4,-1
 889 397 l 1,5,-1
 973 1493 l 1,6,-1
 1233 1493 l 1,7,-1
 1061 0 l 1,8,-1
 786 0 l 1,9,-1
 616 784 l 1,10,-1
 457 0 l 1,11,-1
 184 0 l 1,12,-1
 0 1493 l 1,0,-1
EndSplineSet
EndChar

StartChar: X
Encoding: 88 88 56
Width: 1233
Flags: W
LayerCount: 2
Back
Fore
SplineSet
1206 0 m 1,0,-1
 901 0 l 1,1,-1
 616 494 l 1,2,-1
 332 0 l 1,3,-1
 27 0 l 1,4,-1
 465 758 l 1,5,-1
 39 1493 l 1,6,-1
 344 1493 l 1,7,-1
 616 1018 l 1,8,-1
 889 1493 l 1,9,-1
 1194 1493 l 1,10,-1
 770 758 l 1,11,-1
 1206 0 l 1,0,-1
EndSplineSet
EndChar

StartChar: Y
Encoding: 89 89 57
Width: 1233
Flags: W
LayerCount: 2
Back
Fore
SplineSet
8 1493 m 1,0,-1
 326 1493 l 1,1,-1
 616 893 l 1,2,-1
 907 1493 l 1,3,-1
 1225 1493 l 1,4,-1
 764 588 l 1,5,-1
 764 0 l 1,6,-1
 469 0 l 1,7,-1
 469 588 l 1,8,-1
 8 1493 l 1,0,-1
EndSplineSet
EndChar

StartChar: Z
Encoding: 90 90 58
Width: 1233
Flags: W
LayerCount: 2
Back
Fore
SplineSet
137 1493 m 1,0,-1
 1147 1493 l 1,1,-1
 1147 1249 l 1,2,-1
 455 260 l 1,3,-1
 1161 260 l 1,4,-1
 1161 0 l 1,5,-1
 115 0 l 1,6,-1
 115 244 l 1,7,-1
 786 1233 l 1,8,-1
 137 1233 l 1,9,-1
 137 1493 l 1,0,-1
EndSplineSet
EndChar

StartChar: bracketleft
Encoding: 91 91 59
Width: 1233
Flags: W
LayerCount: 2
Back
Fore
SplineSet
422 1556 m 1,0,-1
 930 1556 l 1,1,-1
 930 1366 l 1,2,-1
 688 1366 l 1,3,-1
 688 -80 l 1,4,-1
 930 -80 l 1,5,-1
 930 -270 l 1,6,-1
 422 -270 l 1,7,-1
 422 1556 l 1,0,-1
EndSplineSet
EndChar

StartChar: backslash
Encoding: 92 92 60
Width: 1233
Flags: W
LayerCount: 2
Back
Fore
SplineSet
334 1493 m 1,0,-1
 1120 -190 l 1,1,-1
 897 -190 l 1,2,-1
 111 1493 l 1,3,-1
 334 1493 l 1,0,-1
EndSplineSet
EndChar

StartChar: bracketright
Encoding: 93 93 61
Width: 1233
Flags: W
LayerCount: 2
Back
Fore
SplineSet
846 1556 m 1,0,-1
 846 -270 l 1,1,-1
 338 -270 l 1,2,-1
 338 -80 l 1,3,-1
 580 -80 l 1,4,-1
 580 1366 l 1,5,-1
 338 1366 l 1,6,-1
 338 1556 l 1,7,-1
 846 1556 l 1,0,-1
EndSplineSet
EndChar

StartChar: asciicircum
Encoding: 94 94 62
Width: 1233
Flags: W
LayerCount: 2
Back
Fore
SplineSet
739 1493 m 1,0,-1
 1176 936 l 1,1,-1
 934 936 l 1,2,-1
 616 1237 l 1,3,-1
 299 936 l 1,4,-1
 57 936 l 1,5,-1
 494 1493 l 1,6,-1
 739 1493 l 1,0,-1
EndSplineSet
EndChar

StartChar: underscore
Encoding: 95 95 63
Width: 1233
Flags: W
LayerCount: 2
Back
Fore
SplineSet
1233 -190 m 1,0,-1
 1233 -390 l 1,1,-1
 0 -390 l 1,2,-1
 0 -190 l 1,3,-1
 1233 -190 l 1,0,-1
EndSplineSet
EndChar

StartChar: grave
Encoding: 96 96 64
Width: 1233
Flags: W
LayerCount: 2
Back
Fore
SplineSet
477 1638 m 1,0,-1
 758 1262 l 1,1,-1
 604 1262 l 1,2,-1
 279 1638 l 1,3,-1
 477 1638 l 1,0,-1
EndSplineSet
EndChar

StartChar: a
Encoding: 97 97 65
Width: 1233
Flags: W
LayerCount: 2
Back
Fore
SplineSet
700 526 m 2,0,1
 536 526 536 526 471 484 c 128,-1,2
 406 442 406 442 406 340 c 0,3,4
 406 264 406 264 451 219 c 128,-1,5
 496 174 496 174 573 174 c 0,6,7
 689 174 689 174 753 261.5 c 128,-1,8
 817 349 817 349 817 506 c 2,9,-1
 817 526 l 1,10,-1
 700 526 l 2,0,1
1108 639 m 2,11,-1
 1108 0 l 1,12,-1
 817 0 l 1,13,-1
 817 125 l 1,14,15
 764 51 764 51 681 11 c 128,-1,16
 598 -29 598 -29 498 -29 c 0,17,18
 307 -29 307 -29 200.5 72 c 128,-1,19
 94 173 94 173 94 354 c 0,20,21
 94 550 94 550 221 643.5 c 128,-1,22
 348 737 348 737 614 737 c 2,23,-1
 817 737 l 1,24,-1
 817 786 l 2,25,26
 817 857 817 857 765.5 893.5 c 128,-1,27
 714 930 714 930 614 930 c 0,28,29
 509 930 509 930 410.5 903.5 c 128,-1,30
 312 877 312 877 205 819 c 1,31,-1
 205 1069 l 1,32,33
 302 1109 302 1109 402 1128 c 128,-1,34
 502 1147 502 1147 614 1147 c 0,35,36
 887 1147 887 1147 997.5 1036 c 128,-1,37
 1108 925 1108 925 1108 639 c 2,11,-1
EndSplineSet
EndChar

StartChar: b
Encoding: 98 98 66
Width: 1233
Flags: W
LayerCount: 2
Back
Fore
SplineSet
850 557 m 256,0,1
 850 719 850 719 796 811 c 128,-1,2
 742 903 742 903 647 903 c 256,3,4
 552 903 552 903 497 811 c 128,-1,5
 442 719 442 719 442 557 c 256,6,7
 442 395 442 395 497 303 c 128,-1,8
 552 211 552 211 647 211 c 256,9,10
 742 211 742 211 796 303 c 128,-1,11
 850 395 850 395 850 557 c 256,0,1
442 961 m 1,12,13
 496 1054 496 1054 567.5 1100.5 c 128,-1,14
 639 1147 639 1147 729 1147 c 0,15,16
 928 1147 928 1147 1035.5 995 c 128,-1,17
 1143 843 1143 843 1143 559 c 0,18,19
 1143 279 1143 279 1037 125 c 128,-1,20
 931 -29 931 -29 739 -29 c 0,21,22
 638 -29 638 -29 563 20 c 128,-1,23
 488 69 488 69 442 166 c 1,24,-1
 442 0 l 1,25,-1
 150 0 l 1,26,-1
 150 1556 l 1,27,-1
 442 1556 l 1,28,-1
 442 961 l 1,12,13
EndSplineSet
EndChar

StartChar: c
Encoding: 99 99 67
Width: 1233
Flags: W
LayerCount: 2
Back
Fore
SplineSet
1061 57 m 1,0,1
 987 14 987 14 902 -7.5 c 128,-1,2
 817 -29 817 -29 719 -29 c 0,3,4
 460 -29 460 -29 314 127 c 128,-1,5
 168 283 168 283 168 559 c 0,6,7
 168 836 168 836 315 992.5 c 128,-1,8
 462 1149 462 1149 721 1149 c 0,9,10
 811 1149 811 1149 894.5 1128 c 128,-1,11
 978 1107 978 1107 1061 1063 c 1,12,-1
 1061 795 l 1,13,14
 997 850 997 850 920.5 879.5 c 128,-1,15
 844 909 844 909 762 909 c 0,16,17
 619 909 619 909 542 818 c 128,-1,18
 465 727 465 727 465 559 c 256,19,20
 465 391 465 391 542 301 c 128,-1,21
 619 211 619 211 762 211 c 0,22,23
 847 211 847 211 921 239.5 c 128,-1,24
 995 268 995 268 1061 326 c 1,25,-1
 1061 57 l 1,0,1
EndSplineSet
EndChar

StartChar: d
Encoding: 100 100 68
Width: 1233
Flags: W
LayerCount: 2
Back
Fore
SplineSet
791 961 m 1,0,-1
 791 1556 l 1,1,-1
 1083 1556 l 1,2,-1
 1083 0 l 1,3,-1
 791 0 l 1,4,-1
 791 166 l 1,5,6
 744 69 744 69 669.5 20 c 128,-1,7
 595 -29 595 -29 494 -29 c 0,8,9
 302 -29 302 -29 196 125 c 128,-1,10
 90 279 90 279 90 559 c 0,11,12
 90 843 90 843 197.5 995 c 128,-1,13
 305 1147 305 1147 504 1147 c 0,14,15
 594 1147 594 1147 665.5 1100.5 c 128,-1,16
 737 1054 737 1054 791 961 c 1,0,-1
383 557 m 256,17,18
 383 395 383 395 437 303 c 128,-1,19
 491 211 491 211 586 211 c 256,20,21
 681 211 681 211 736 303 c 128,-1,22
 791 395 791 395 791 557 c 256,23,24
 791 719 791 719 736 811 c 128,-1,25
 681 903 681 903 586 903 c 256,26,27
 491 903 491 903 437 811 c 128,-1,28
 383 719 383 719 383 557 c 256,17,18
EndSplineSet
EndChar

StartChar: e
Encoding: 101 101 69
Width: 1233
Flags: W
LayerCount: 2
Back
Fore
SplineSet
1102 55 m 1,0,1
 1000 13 1000 13 894 -8 c 128,-1,2
 788 -29 788 -29 670 -29 c 0,3,4
 389 -29 389 -29 240.5 121.5 c 128,-1,5
 92 272 92 272 92 555 c 0,6,7
 92 829 92 829 235 988 c 128,-1,8
 378 1147 378 1147 625 1147 c 0,9,10
 874 1147 874 1147 1011.5 999.5 c 128,-1,11
 1149 852 1149 852 1149 584 c 2,12,-1
 1149 465 l 1,13,-1
 390 465 l 1,14,15
 391 333 391 333 468 268 c 128,-1,16
 545 203 545 203 698 203 c 0,17,18
 799 203 799 203 897 232 c 128,-1,19
 995 261 995 261 1102 324 c 1,20,-1
 1102 55 l 1,0,1
854 685 m 1,21,22
 852 801 852 801 794.5 860.5 c 128,-1,23
 737 920 737 920 625 920 c 0,24,25
 524 920 524 920 464 858.5 c 128,-1,26
 404 797 404 797 393 684 c 1,27,-1
 854 685 l 1,21,22
EndSplineSet
EndChar

StartChar: f
Encoding: 102 102 70
Width: 1233
Flags: W
LayerCount: 2
Back
Fore
SplineSet
739 1218 m 2,0,-1
 739 1120 l 1,1,-1
 1083 1120 l 1,2,-1
 1083 895 l 1,3,-1
 739 895 l 1,4,-1
 739 0 l 1,5,-1
 446 0 l 1,6,-1
 446 895 l 1,7,-1
 174 895 l 1,8,-1
 174 1120 l 1,9,-1
 446 1120 l 1,10,-1
 446 1198 l 2,11,12
 446 1400 446 1400 530 1478 c 128,-1,13
 614 1556 614 1556 842 1556 c 2,14,-1
 1083 1556 l 1,15,-1
 1083 1331 l 1,16,-1
 854 1331 l 2,17,18
 788 1331 788 1331 764.5 1307 c 128,-1,19
 741 1283 741 1283 739 1218 c 2,0,-1
EndSplineSet
EndChar

StartChar: g
Encoding: 103 103 71
Width: 1233
Flags: W
LayerCount: 2
Back
Fore
SplineSet
803 578 m 0,0,1
 803 728 803 728 746 818.5 c 128,-1,2
 689 909 689 909 596 909 c 0,3,4
 504 909 504 909 447.5 819 c 128,-1,5
 391 729 391 729 391 578 c 0,6,7
 391 426 391 426 447.5 336 c 128,-1,8
 504 246 504 246 596 246 c 0,9,10
 689 246 689 246 746 336.5 c 128,-1,11
 803 427 803 427 803 578 c 0,0,1
1096 84 m 2,12,13
 1096 -185 1096 -185 974.5 -304.5 c 128,-1,14
 853 -424 853 -424 580 -424 c 0,15,16
 488 -424 488 -424 398 -410.5 c 128,-1,17
 308 -397 308 -397 215 -369 c 1,18,-1
 215 -100 l 1,19,20
 298 -146 298 -146 384 -168 c 128,-1,21
 470 -190 470 -190 561 -190 c 0,22,23
 685 -190 685 -190 744 -131.5 c 128,-1,24
 803 -73 803 -73 803 51 c 2,25,-1
 803 172 l 1,26,27
 760 92 760 92 689 53 c 128,-1,28
 618 14 618 14 516 14 c 0,29,30
 324 14 324 14 211 164 c 128,-1,31
 98 314 98 314 98 571 c 0,32,33
 98 837 98 837 211 993 c 128,-1,34
 324 1149 324 1149 514 1149 c 0,35,36
 610 1149 610 1149 685 1104 c 128,-1,37
 760 1059 760 1059 803 977 c 1,38,-1
 803 1120 l 1,39,-1
 1096 1120 l 1,40,-1
 1096 84 l 2,12,13
EndSplineSet
EndChar

StartChar: h
Encoding: 104 104 72
Width: 1233
Flags: W
LayerCount: 2
Back
Fore
SplineSet
1071 727 m 2,0,-1
 1071 0 l 1,1,-1
 780 0 l 1,2,-1
 780 682 l 2,3,4
 780 803 780 803 745.5 855 c 128,-1,5
 711 907 711 907 633 907 c 0,6,7
 553 907 553 907 508 836.5 c 128,-1,8
 463 766 463 766 463 641 c 2,9,-1
 463 0 l 1,10,-1
 172 0 l 1,11,-1
 172 1556 l 1,12,-1
 463 1556 l 1,13,-1
 463 952 l 1,14,15
 494 1045 494 1045 569 1096 c 128,-1,16
 644 1147 644 1147 750 1147 c 0,17,18
 909 1147 909 1147 990 1041.5 c 128,-1,19
 1071 936 1071 936 1071 727 c 2,0,-1
EndSplineSet
EndChar

StartChar: i
Encoding: 105 105 73
Width: 1233
Flags: W
LayerCount: 2
Back
Fore
SplineSet
221 1120 m 1,0,-1
 801 1120 l 1,1,-1
 801 225 l 1,2,-1
 1165 225 l 1,3,-1
 1165 0 l 1,4,-1
 143 0 l 1,5,-1
 143 225 l 1,6,-1
 508 225 l 1,7,-1
 508 895 l 1,8,-1
 221 895 l 1,9,-1
 221 1120 l 1,0,-1
508 1665 m 1,10,-1
 801 1665 l 1,11,-1
 801 1323 l 1,12,-1
 508 1323 l 1,13,-1
 508 1665 l 1,10,-1
EndSplineSet
EndChar

StartChar: j
Encoding: 106 106 74
Width: 1233
Flags: W
LayerCount: 2
Back
Fore
SplineSet
850 43 m 2,0,1
 850 -209 850 -209 759.5 -316.5 c 128,-1,2
 669 -424 669 -424 459 -424 c 2,3,-1
 143 -424 l 1,4,-1
 143 -199 l 1,5,-1
 377 -199 l 2,6,7
 475 -199 475 -199 516 -144 c 128,-1,8
 557 -89 557 -89 557 43 c 2,9,-1
 557 895 l 1,10,-1
 260 895 l 1,11,-1
 260 1120 l 1,12,-1
 850 1120 l 1,13,-1
 850 43 l 2,0,1
850 1323 m 1,14,-1
 557 1323 l 1,15,-1
 557 1665 l 1,16,-1
 850 1665 l 1,17,-1
 850 1323 l 1,14,-1
EndSplineSet
EndChar

StartChar: k
Encoding: 107 107 75
Width: 1233
Flags: W
LayerCount: 2
Back
Fore
SplineSet
174 1556 m 1,0,-1
 467 1556 l 1,1,-1
 467 739 l 1,2,-1
 819 1120 l 1,3,-1
 1174 1120 l 1,4,-1
 750 702 l 1,5,-1
 1198 0 l 1,6,-1
 874 0 l 1,7,-1
 567 524 l 1,8,-1
 467 428 l 1,9,-1
 467 0 l 1,10,-1
 174 0 l 1,11,-1
 174 1556 l 1,0,-1
EndSplineSet
EndChar

StartChar: l
Encoding: 108 108 76
Width: 1233
Flags: W
LayerCount: 2
Back
Fore
SplineSet
387 467 m 2,0,-1
 387 1331 l 1,1,-1
 90 1331 l 1,2,-1
 90 1556 l 1,3,-1
 680 1556 l 1,4,-1
 680 467 l 2,5,6
 680 335 680 335 721 280 c 128,-1,7
 762 225 762 225 860 225 c 2,8,-1
 1094 225 l 1,9,-1
 1094 0 l 1,10,-1
 778 0 l 2,11,12
 569 0 569 0 478 108 c 128,-1,13
 387 216 387 216 387 467 c 2,0,-1
EndSplineSet
EndChar

StartChar: m
Encoding: 109 109 77
Width: 1233
Flags: W
LayerCount: 2
Back
Fore
SplineSet
690 1008 m 1,0,1
 723 1079 723 1079 774 1113 c 128,-1,2
 825 1147 825 1147 899 1147 c 0,3,4
 1044 1147 1044 1147 1099.5 1047 c 128,-1,5
 1155 947 1155 947 1155 631 c 2,6,-1
 1155 0 l 1,7,-1
 915 0 l 1,8,-1
 915 719 l 2,9,10
 915 844 915 844 896 886 c 128,-1,11
 877 928 877 928 827 928 c 256,12,13
 777 928 777 928 757 885 c 128,-1,14
 737 842 737 842 737 719 c 2,15,-1
 737 0 l 1,16,-1
 500 0 l 1,17,-1
 500 719 l 2,18,19
 500 842 500 842 480 885 c 128,-1,20
 460 928 460 928 410 928 c 256,21,22
 360 928 360 928 341 886 c 128,-1,23
 322 844 322 844 322 719 c 2,24,-1
 322 0 l 1,25,-1
 82 0 l 1,26,-1
 82 1120 l 1,27,-1
 295 1120 l 1,28,-1
 295 1004 l 1,29,30
 320 1070 320 1070 375 1108.5 c 128,-1,31
 430 1147 430 1147 498 1147 c 256,32,33
 566 1147 566 1147 622 1106.5 c 128,-1,34
 678 1066 678 1066 690 1008 c 1,0,1
EndSplineSet
EndChar

StartChar: n
Encoding: 110 110 78
Width: 1233
Flags: W
LayerCount: 2
Back
Fore
SplineSet
1071 727 m 2,0,-1
 1071 0 l 1,1,-1
 780 0 l 1,2,-1
 780 682 l 2,3,4
 780 804 780 804 745.5 856.5 c 128,-1,5
 711 909 711 909 633 909 c 0,6,7
 554 909 554 909 508.5 838 c 128,-1,8
 463 767 463 767 463 641 c 2,9,-1
 463 0 l 1,10,-1
 172 0 l 1,11,-1
 172 1120 l 1,12,-1
 463 1120 l 1,13,-1
 463 952 l 1,14,15
 494 1045 494 1045 569 1096 c 128,-1,16
 644 1147 644 1147 750 1147 c 0,17,18
 909 1147 909 1147 990 1041.5 c 128,-1,19
 1071 936 1071 936 1071 727 c 2,0,-1
EndSplineSet
EndChar

StartChar: o
Encoding: 111 111 79
Width: 1233
Flags: W
LayerCount: 2
Back
Fore
SplineSet
616 909 m 0,0,1
 511 909 511 909 451 816.5 c 128,-1,2
 391 724 391 724 391 559 c 256,3,4
 391 394 391 394 451 301.5 c 128,-1,5
 511 209 511 209 616 209 c 0,6,7
 722 209 722 209 782 301.5 c 128,-1,8
 842 394 842 394 842 559 c 256,9,10
 842 724 842 724 782 816.5 c 128,-1,11
 722 909 722 909 616 909 c 0,0,1
98 559 m 256,12,13
 98 830 98 830 238.5 988.5 c 128,-1,14
 379 1147 379 1147 616 1147 c 0,15,16
 854 1147 854 1147 994.5 988.5 c 128,-1,17
 1135 830 1135 830 1135 559 c 256,18,19
 1135 288 1135 288 994.5 129.5 c 128,-1,20
 854 -29 854 -29 616 -29 c 0,21,22
 379 -29 379 -29 238.5 129.5 c 128,-1,23
 98 288 98 288 98 559 c 256,12,13
EndSplineSet
EndChar

StartChar: p
Encoding: 112 112 80
Width: 1233
Flags: W
LayerCount: 2
Back
Fore
SplineSet
442 158 m 1,0,-1
 442 -426 l 1,1,-1
 150 -426 l 1,2,-1
 150 1120 l 1,3,-1
 442 1120 l 1,4,-1
 442 952 l 1,5,6
 488 1049 488 1049 563 1098 c 128,-1,7
 638 1147 638 1147 739 1147 c 0,8,9
 931 1147 931 1147 1037 993 c 128,-1,10
 1143 839 1143 839 1143 559 c 0,11,12
 1143 275 1143 275 1035.5 123 c 128,-1,13
 928 -29 928 -29 729 -29 c 0,14,15
 639 -29 639 -29 567.5 17.5 c 128,-1,16
 496 64 496 64 442 158 c 1,0,-1
850 561 m 256,17,18
 850 723 850 723 796 815 c 128,-1,19
 742 907 742 907 647 907 c 256,20,21
 552 907 552 907 497 815 c 128,-1,22
 442 723 442 723 442 561 c 256,23,24
 442 399 442 399 497 307 c 128,-1,25
 552 215 552 215 647 215 c 256,26,27
 742 215 742 215 796 307 c 128,-1,28
 850 399 850 399 850 561 c 256,17,18
EndSplineSet
EndChar

StartChar: q
Encoding: 113 113 81
Width: 1233
Flags: W
LayerCount: 2
Back
Fore
SplineSet
383 561 m 256,0,1
 383 399 383 399 437 307 c 128,-1,2
 491 215 491 215 586 215 c 256,3,4
 681 215 681 215 736 307 c 128,-1,5
 791 399 791 399 791 561 c 256,6,7
 791 723 791 723 736 815 c 128,-1,8
 681 907 681 907 586 907 c 256,9,10
 491 907 491 907 437 815 c 128,-1,11
 383 723 383 723 383 561 c 256,0,1
791 158 m 1,12,13
 737 64 737 64 665.5 17.5 c 128,-1,14
 594 -29 594 -29 504 -29 c 0,15,16
 305 -29 305 -29 197.5 123 c 128,-1,17
 90 275 90 275 90 559 c 0,18,19
 90 839 90 839 196 993 c 128,-1,20
 302 1147 302 1147 494 1147 c 0,21,22
 595 1147 595 1147 669.5 1098 c 128,-1,23
 744 1049 744 1049 791 952 c 1,24,-1
 791 1120 l 1,25,-1
 1083 1120 l 1,26,-1
 1083 -426 l 1,27,-1
 791 -426 l 1,28,-1
 791 158 l 1,12,13
EndSplineSet
EndChar

StartChar: r
Encoding: 114 114 82
Width: 1233
Flags: W
LayerCount: 2
Back
Fore
SplineSet
1151 811 m 1,0,1
 1103 855 1103 855 1038.5 877 c 128,-1,2
 974 899 974 899 897 899 c 0,3,4
 804 899 804 899 734.5 866.5 c 128,-1,5
 665 834 665 834 627 772 c 0,6,7
 603 734 603 734 593.5 680 c 128,-1,8
 584 626 584 626 584 516 c 2,9,-1
 584 0 l 1,10,-1
 291 0 l 1,11,-1
 291 1120 l 1,12,-1
 584 1120 l 1,13,-1
 584 946 l 1,14,15
 627 1042 627 1042 716 1094.5 c 128,-1,16
 805 1147 805 1147 924 1147 c 0,17,18
 984 1147 984 1147 1041.5 1132.5 c 128,-1,19
 1099 1118 1099 1118 1151 1090 c 1,20,-1
 1151 811 l 1,0,1
EndSplineSet
EndChar

StartChar: s
Encoding: 115 115 83
Width: 1233
Flags: W
LayerCount: 2
Back
Fore
SplineSet
991 1085 m 1,0,-1
 991 829 l 1,1,2
 910 881 910 881 822.5 907.5 c 128,-1,3
 735 934 735 934 647 934 c 0,4,5
 549 934 549 934 499 905.5 c 128,-1,6
 449 877 449 877 449 821 c 0,7,8
 449 741 449 741 663 691 c 1,9,-1
 674 688 l 1,10,-1
 758 668 l 2,11,12
 918 630 918 630 992.5 545.5 c 128,-1,13
 1067 461 1067 461 1067 317 c 0,14,15
 1067 144 1067 144 953.5 57.5 c 128,-1,16
 840 -29 840 -29 612 -29 c 0,17,18
 511 -29 511 -29 405 -11.5 c 128,-1,19
 299 6 299 6 190 41 c 1,20,-1
 190 297 l 1,21,22
 287 242 287 242 387.5 213 c 128,-1,23
 488 184 488 184 582 184 c 0,24,25
 685 184 685 184 738 214 c 128,-1,26
 791 244 791 244 791 301 c 0,27,28
 791 357 791 357 753.5 387 c 128,-1,29
 716 417 716 417 575 451 c 2,30,-1
 494 469 l 2,31,32
 326 507 326 507 249 588 c 128,-1,33
 172 669 172 669 172 805 c 0,34,35
 172 967 172 967 289 1057 c 128,-1,36
 406 1147 406 1147 618 1147 c 0,37,38
 713 1147 713 1147 807.5 1131.5 c 128,-1,39
 902 1116 902 1116 991 1085 c 1,0,-1
EndSplineSet
EndChar

StartChar: t
Encoding: 116 116 84
Width: 1233
Flags: W
LayerCount: 2
Back
Fore
SplineSet
690 1438 m 1,0,-1
 690 1120 l 1,1,-1
 1073 1120 l 1,2,-1
 1073 895 l 1,3,-1
 690 895 l 1,4,-1
 690 365 l 2,5,6
 690 290 690 290 726.5 257.5 c 128,-1,7
 763 225 763 225 848 225 c 2,8,-1
 1073 225 l 1,9,-1
 1073 0 l 1,10,-1
 827 0 l 2,11,12
 575 0 575 0 486 80.5 c 128,-1,13
 397 161 397 161 397 379 c 2,14,-1
 397 895 l 1,15,-1
 111 895 l 1,16,-1
 111 1120 l 1,17,-1
 397 1120 l 1,18,-1
 397 1438 l 1,19,-1
 690 1438 l 1,0,-1
EndSplineSet
EndChar

StartChar: u
Encoding: 117 117 85
Width: 1233
Flags: W
LayerCount: 2
Back
Fore
SplineSet
160 391 m 2,0,-1
 160 1120 l 1,1,-1
 453 1120 l 1,2,-1
 453 436 l 2,3,4
 453 315 453 315 487 263 c 128,-1,5
 521 211 521 211 600 211 c 256,6,7
 679 211 679 211 723.5 281 c 128,-1,8
 768 351 768 351 768 477 c 2,9,-1
 768 1120 l 1,10,-1
 1061 1120 l 1,11,-1
 1061 0 l 1,12,-1
 768 0 l 1,13,-1
 768 166 l 1,14,15
 737 73 737 73 662.5 22 c 128,-1,16
 588 -29 588 -29 483 -29 c 0,17,18
 323 -29 323 -29 241.5 77 c 128,-1,19
 160 183 160 183 160 391 c 2,0,-1
EndSplineSet
EndChar

StartChar: v
Encoding: 118 118 86
Width: 1233
Flags: W
LayerCount: 2
Back
Fore
SplineSet
1153 1120 m 1,0,-1
 797 0 l 1,1,-1
 436 0 l 1,2,-1
 80 1120 l 1,3,-1
 377 1120 l 1,4,-1
 616 246 l 1,5,-1
 856 1120 l 1,6,-1
 1153 1120 l 1,0,-1
EndSplineSet
EndChar

StartChar: w
Encoding: 119 119 87
Width: 1233
Flags: W
LayerCount: 2
Back
Fore
SplineSet
0 1120 m 1,0,-1
 244 1120 l 1,1,-1
 377 262 l 1,2,-1
 498 827 l 1,3,-1
 735 827 l 1,4,-1
 854 262 l 1,5,-1
 989 1120 l 1,6,-1
 1233 1120 l 1,7,-1
 1030 0 l 1,8,-1
 752 0 l 1,9,-1
 616 582 l 1,10,-1
 481 0 l 1,11,-1
 203 0 l 1,12,-1
 0 1120 l 1,0,-1
EndSplineSet
EndChar

StartChar: x
Encoding: 120 120 88
Width: 1233
Flags: W
LayerCount: 2
Back
Fore
SplineSet
1145 1120 m 1,0,-1
 768 584 l 1,1,-1
 1178 0 l 1,2,-1
 836 0 l 1,3,-1
 616 377 l 1,4,-1
 397 0 l 1,5,-1
 55 0 l 1,6,-1
 469 584 l 1,7,-1
 88 1120 l 1,8,-1
 430 1120 l 1,9,-1
 616 786 l 1,10,-1
 803 1120 l 1,11,-1
 1145 1120 l 1,0,-1
EndSplineSet
EndChar

StartChar: y
Encoding: 121 121 89
Width: 1233
Flags: W
LayerCount: 2
Back
Fore
SplineSet
711 -121 m 2,0,1
 652 -279 652 -279 569.5 -351.5 c 128,-1,2
 487 -424 487 -424 369 -424 c 2,3,-1
 127 -424 l 1,4,-1
 127 -201 l 1,5,-1
 246 -201 l 2,6,7
 336 -201 336 -201 378 -170.5 c 128,-1,8
 420 -140 420 -140 463 -29 c 2,9,-1
 485 31 l 1,10,-1
 59 1120 l 1,11,-1
 367 1120 l 1,12,-1
 623 393 l 1,13,-1
 868 1120 l 1,14,-1
 1176 1120 l 1,15,-1
 711 -121 l 2,0,1
EndSplineSet
EndChar

StartChar: z
Encoding: 122 122 90
Width: 1233
Flags: W
LayerCount: 2
Back
Fore
SplineSet
186 1120 m 1,0,-1
 1081 1120 l 1,1,-1
 1081 891 l 1,2,-1
 492 219 l 1,3,-1
 1081 219 l 1,4,-1
 1081 0 l 1,5,-1
 162 0 l 1,6,-1
 162 229 l 1,7,-1
 752 901 l 1,8,-1
 186 901 l 1,9,-1
 186 1120 l 1,0,-1
EndSplineSet
EndChar

StartChar: braceleft
Encoding: 123 123 91
Width: 1233
Flags: W
LayerCount: 2
Back
Fore
SplineSet
1053 -143 m 1,0,-1
 1053 -334 l 1,1,-1
 903 -334 l 2,2,3
 654 -334 654 -334 569.5 -260 c 128,-1,4
 485 -186 485 -186 485 35 c 2,5,-1
 485 250 l 2,6,7
 485 401 485 401 431.5 458.5 c 128,-1,8
 378 516 378 516 238 516 c 2,9,-1
 176 516 l 1,10,-1
 176 707 l 1,11,-1
 238 707 l 2,12,13
 378 707 378 707 431.5 764 c 128,-1,14
 485 821 485 821 485 973 c 2,15,-1
 485 1188 l 2,16,17
 485 1409 485 1409 569.5 1482.5 c 128,-1,18
 654 1556 654 1556 903 1556 c 2,19,-1
 1053 1556 l 1,20,-1
 1053 1366 l 1,21,-1
 930 1366 l 2,22,23
 826 1366 826 1366 791 1324 c 128,-1,24
 756 1282 756 1282 756 1139 c 2,25,-1
 756 930 l 2,26,27
 756 765 756 765 707 698 c 128,-1,28
 658 631 658 631 532 612 c 1,29,30
 658 591 658 591 707 523 c 128,-1,31
 756 455 756 455 756 291 c 2,32,-1
 756 86 l 2,33,34
 756 -58 756 -58 791 -100.5 c 128,-1,35
 826 -143 826 -143 930 -143 c 2,36,-1
 1053 -143 l 1,0,-1
EndSplineSet
EndChar

StartChar: bar
Encoding: 124 124 92
Width: 1233
Flags: W
LayerCount: 2
Back
Fore
SplineSet
729 1565 m 1,0,-1
 729 -483 l 1,1,-1
 502 -483 l 1,2,-1
 502 1565 l 1,3,-1
 729 1565 l 1,0,-1
EndSplineSet
EndChar

StartChar: braceright
Encoding: 125 125 93
Width: 1233
Flags: W
LayerCount: 2
Back
Fore
SplineSet
180 -143 m 1,0,-1
 301 -143 l 2,1,2
 405 -143 405 -143 441 -100 c 128,-1,3
 477 -57 477 -57 477 86 c 2,4,-1
 477 291 l 2,5,6
 477 455 477 455 526 523 c 128,-1,7
 575 591 575 591 700 612 c 1,8,9
 574 631 574 631 525.5 698 c 128,-1,10
 477 765 477 765 477 930 c 2,11,-1
 477 1139 l 2,12,13
 477 1280 477 1280 441.5 1323 c 128,-1,14
 406 1366 406 1366 301 1366 c 2,15,-1
 180 1366 l 1,16,-1
 180 1556 l 1,17,-1
 330 1556 l 2,18,19
 578 1556 578 1556 661.5 1482.5 c 128,-1,20
 745 1409 745 1409 745 1188 c 2,21,-1
 745 973 l 2,22,23
 745 822 745 822 799.5 764.5 c 128,-1,24
 854 707 854 707 995 707 c 2,25,-1
 1057 707 l 1,26,-1
 1057 516 l 1,27,-1
 995 516 l 2,28,29
 854 516 854 516 799.5 458 c 128,-1,30
 745 400 745 400 745 250 c 2,31,-1
 745 35 l 2,32,33
 745 -186 745 -186 661.5 -260 c 128,-1,34
 578 -334 578 -334 330 -334 c 2,35,-1
 180 -334 l 1,36,-1
 180 -143 l 1,0,-1
EndSplineSet
EndChar

StartChar: asciitilde
Encoding: 126 126 94
Width: 1233
Flags: W
LayerCount: 2
Back
Fore
SplineSet
1210 641 m 1,0,1
 1119 433 1119 433 1035 360 c 0,2,3
 948 287 948 287 856 287 c 1,4,5
 712 295 712 295 598 434 c 2,6,-1
 445 623 l 2,7,8
 407 672 407 672 346 670 c 0,9,10
 283 670 283 670 249 609 c 0,11,12
 214 546 214 546 162 413 c 1,13,-1
 0 506 l 1,14,15
 31 605 31 605 70 676 c 128,-1,16
 109 747 109 747 154 792 c 0,17,18
 247 882 247 882 347 882 c 0,19,20
 434 883 434 883 510.5 833.5 c 128,-1,21
 587 784 587 784 655 681 c 0,22,23
 778 494 778 494 857 494 c 0,24,25
 922 494 922 494 965 568 c 0,26,27
 986 606 986 606 1008 652 c 128,-1,28
 1030 698 1030 698 1050 748 c 1,29,-1
 1210 641 l 1,0,1
EndSplineSet
EndChar

StartChar: exclamdown
Encoding: 161 161 95
Width: 1233
Flags: W
LayerCount: 2
Back
Fore
SplineSet
750 1210 m 1,0,-1
 483 1210 l 1,1,-1
 483 1493 l 1,2,-1
 750 1493 l 1,3,-1
 750 1210 l 1,0,-1
750 0 m 1,4,-1
 483 0 l 1,5,-1
 483 655 l 1,6,-1
 516 1012 l 1,7,-1
 715 1012 l 1,8,-1
 750 655 l 1,9,-1
 750 0 l 1,4,-1
EndSplineSet
EndChar

StartChar: cent
Encoding: 162 162 96
Width: 1233
Flags: W
LayerCount: 2
Back
Fore
SplineSet
1036 1077 m 1,0,-1
 1036 809 l 1,1,2
 980 851 980 851 920 875.5 c 128,-1,3
 860 900 860 900 797 907 c 1,4,-1
 797 215 l 1,5,6
 861 220 861 220 920.5 244 c 128,-1,7
 980 268 980 268 1036 311 c 1,8,-1
 1036 43 l 1,9,10
 984 14 984 14 924 -3 c 128,-1,11
 864 -20 864 -20 797 -25 c 1,12,-1
 797 -313 l 1,13,-1
 655 -313 l 1,14,-1
 655 -25 l 1,15,16
 420 -3 420 -3 283.5 154 c 128,-1,17
 147 311 147 311 147 561 c 0,18,19
 147 816 147 816 283.5 972.5 c 128,-1,20
 420 1129 420 1129 655 1145 c 1,21,-1
 655 1432 l 1,22,-1
 797 1432 l 1,23,-1
 797 1145 l 1,24,25
 858 1140 858 1140 916.5 1123.5 c 128,-1,26
 975 1107 975 1107 1036 1077 c 1,0,-1
655 215 m 1,27,-1
 655 907 l 1,28,29
 541 893 541 893 479.5 803.5 c 128,-1,30
 418 714 418 714 418 561 c 0,31,32
 418 406 418 406 481 313.5 c 128,-1,33
 544 221 544 221 655 215 c 1,27,-1
EndSplineSet
EndChar

StartChar: sterling
Encoding: 163 163 97
Width: 1233
Flags: W
LayerCount: 2
Back
Fore
SplineSet
1102 1462 m 1,0,-1
 1102 1188 l 1,1,2
 1045 1229 1045 1229 980 1250.5 c 128,-1,3
 915 1272 915 1272 846 1272 c 0,4,5
 740 1272 740 1272 690.5 1205.5 c 128,-1,6
 641 1139 641 1139 641 995 c 2,7,-1
 641 819 l 1,8,-1
 977 819 l 1,9,-1
 977 594 l 1,10,-1
 641 594 l 1,11,-1
 641 260 l 1,12,-1
 1122 260 l 1,13,-1
 1122 0 l 1,14,-1
 119 0 l 1,15,-1
 119 260 l 1,16,-1
 354 260 l 1,17,-1
 354 594 l 1,18,-1
 156 594 l 1,19,-1
 156 819 l 1,20,-1
 354 819 l 1,21,-1
 354 1016 l 2,22,23
 354 1272 354 1272 466.5 1396 c 128,-1,24
 579 1520 579 1520 811 1520 c 0,25,26
 894 1520 894 1520 965 1505.5 c 128,-1,27
 1036 1491 1036 1491 1102 1462 c 1,0,-1
EndSplineSet
EndChar

StartChar: currency
Encoding: 164 164 98
Width: 1233
Flags: W
LayerCount: 2
Back
Fore
SplineSet
827 643 m 0,0,1
 827 716 827 716 777 765.5 c 128,-1,2
 727 815 727 815 653 815 c 0,3,4
 580 815 580 815 529.5 765.5 c 128,-1,5
 479 716 479 716 479 643 c 0,6,7
 479 569 479 569 529.5 518 c 128,-1,8
 580 467 580 467 653 467 c 0,9,10
 727 467 727 467 777 518 c 128,-1,11
 827 569 827 569 827 643 c 0,0,1
819 938 m 1,12,-1
 991 1108 l 1,13,-1
 1118 979 l 1,14,-1
 948 809 l 1,15,16
 971 768 971 768 982 726.5 c 128,-1,17
 993 685 993 685 993 641 c 0,18,19
 993 594 993 594 981.5 553.5 c 128,-1,20
 970 513 970 513 946 477 c 1,21,-1
 1118 307 l 1,22,-1
 987 176 l 1,23,-1
 817 348 l 1,24,25
 781 324 781 324 741 312.5 c 128,-1,26
 701 301 701 301 653 301 c 0,27,28
 614 301 614 301 572 311.5 c 128,-1,29
 530 322 530 322 485 344 c 1,30,-1
 315 176 l 1,31,-1
 186 305 l 1,32,-1
 356 475 l 1,33,34
 334 517 334 517 322.5 558.5 c 128,-1,35
 311 600 311 600 311 641 c 0,36,37
 311 688 311 688 322.5 728.5 c 128,-1,38
 334 769 334 769 358 807 c 1,39,-1
 186 977 l 1,40,-1
 317 1108 l 1,41,-1
 483 936 l 1,42,43
 524 960 524 960 565.5 971.5 c 128,-1,44
 607 983 607 983 653 983 c 0,45,46
 692 983 692 983 732.5 972 c 128,-1,47
 773 961 773 961 819 938 c 1,12,-1
EndSplineSet
EndChar

StartChar: yen
Encoding: 165 165 99
Width: 1233
Flags: W
LayerCount: 2
Back
Fore
SplineSet
8 1493 m 1,0,-1
 326 1493 l 1,1,-1
 616 893 l 1,2,-1
 907 1493 l 1,3,-1
 1225 1493 l 1,4,-1
 952 965 l 1,5,-1
 1176 965 l 1,6,-1
 1176 778 l 1,7,-1
 854 778 l 1,8,-1
 768 627 l 1,9,-1
 1176 627 l 1,10,-1
 1176 438 l 1,11,-1
 764 438 l 1,12,-1
 764 0 l 1,13,-1
 469 0 l 1,14,-1
 469 438 l 1,15,-1
 57 438 l 1,16,-1
 57 627 l 1,17,-1
 465 627 l 1,18,-1
 379 778 l 1,19,-1
 57 778 l 1,20,-1
 57 965 l 1,21,-1
 281 965 l 1,22,-1
 8 1493 l 1,0,-1
EndSplineSet
EndChar

StartChar: brokenbar
Encoding: 166 166 100
Width: 1233
Flags: W
LayerCount: 2
Back
Fore
SplineSet
729 408 m 1,0,-1
 729 -350 l 1,1,-1
 502 -350 l 1,2,-1
 502 408 l 1,3,-1
 729 408 l 1,0,-1
729 1432 m 1,4,-1
 729 674 l 1,5,-1
 502 674 l 1,6,-1
 502 1432 l 1,7,-1
 729 1432 l 1,4,-1
EndSplineSet
EndChar

StartChar: section
Encoding: 167 167 101
Width: 1233
Flags: W
LayerCount: 2
Back
Fore
SplineSet
518 856 m 1,0,1
 463 820 463 820 438.5 785.5 c 128,-1,2
 414 751 414 751 414 711 c 0,3,4
 414 657 414 657 462.5 613 c 128,-1,5
 511 569 511 569 711 473 c 1,6,7
 766 509 766 509 790.5 543.5 c 128,-1,8
 815 578 815 578 815 621 c 0,9,10
 815 702 815 702 550 840 c 1,11,-1
 518 856 l 1,0,1
930 1460 m 1,12,-1
 930 1235 l 1,13,14
 845 1265 845 1265 779 1279.5 c 128,-1,15
 713 1294 713 1294 659 1294 c 0,16,17
 583 1294 583 1294 540.5 1265 c 128,-1,18
 498 1236 498 1236 498 1184 c 0,19,20
 498 1109 498 1109 701 1004 c 0,21,22
 720 994 720 994 729 989 c 0,23,24
 943 879 943 879 1002 808.5 c 128,-1,25
 1061 738 1061 738 1061 637 c 0,26,27
 1061 548 1061 548 1013.5 484 c 128,-1,28
 966 420 966 420 864 373 c 1,29,30
 934 323 934 323 966.5 261.5 c 128,-1,31
 999 200 999 200 999 119 c 0,32,33
 999 -28 999 -28 894.5 -111.5 c 128,-1,34
 790 -195 790 -195 604 -195 c 0,35,36
 515 -195 515 -195 429 -180.5 c 128,-1,37
 343 -166 343 -166 258 -137 c 1,38,-1
 258 92 l 1,39,40
 343 62 343 62 424 46.5 c 128,-1,41
 505 31 505 31 578 31 c 0,42,43
 655 31 655 31 696 59.5 c 128,-1,44
 737 88 737 88 737 141 c 0,45,46
 737 211 737 211 523 326 c 2,47,-1
 512 332 l 1,48,-1
 486 346 l 2,49,50
 170 516 170 516 170 688 c 0,51,52
 170 782 170 782 222 851.5 c 128,-1,53
 274 921 274 921 371 954 c 1,54,55
 300 1004 300 1004 268 1064 c 128,-1,56
 236 1124 236 1124 236 1206 c 0,57,58
 236 1348 236 1348 340 1434 c 128,-1,59
 444 1520 444 1520 616 1520 c 0,60,61
 690 1520 690 1520 768.5 1505 c 128,-1,62
 847 1490 847 1490 930 1460 c 1,12,-1
EndSplineSet
EndChar

StartChar: dieresis
Encoding: 168 168 102
Width: 1233
Flags: W
LayerCount: 2
Back
Fore
SplineSet
696 1585 m 1,0,-1
 932 1585 l 1,1,-1
 932 1339 l 1,2,-1
 696 1339 l 1,3,-1
 696 1585 l 1,0,-1
301 1585 m 1,4,-1
 537 1585 l 1,5,-1
 537 1339 l 1,6,-1
 301 1339 l 1,7,-1
 301 1585 l 1,4,-1
EndSplineSet
EndChar

StartChar: guillemotleft
Encoding: 171 171 103
Width: 1233
Flags: W
LayerCount: 2
Back
Fore
SplineSet
1042 1059 m 1,0,-1
 1042 821 l 1,1,-1
 766 600 l 1,2,-1
 1042 379 l 1,3,-1
 1042 141 l 1,4,-1
 573 535 l 1,5,-1
 573 666 l 1,6,-1
 1042 1059 l 1,0,-1
588 1059 m 1,7,-1
 588 821 l 1,8,-1
 311 600 l 1,9,-1
 588 379 l 1,10,-1
 588 141 l 1,11,-1
 119 535 l 1,12,-1
 119 666 l 1,13,-1
 588 1059 l 1,7,-1
EndSplineSet
EndChar

StartChar: logicalnot
Encoding: 172 172 104
Width: 1233
Flags: W
LayerCount: 2
Back
Fore
SplineSet
88 899 m 1,0,-1
 1145 899 l 1,1,-1
 1145 362 l 1,2,-1
 907 362 l 1,3,-1
 907 662 l 1,4,-1
 88 662 l 1,5,-1
 88 899 l 1,0,-1
EndSplineSet
EndChar

StartChar: sfthyphen
Encoding: 173 173 105
Width: 1233
Flags: W
LayerCount: 2
Back
Fore
SplineSet
102 724 m 1,0,-1
 1092 724 l 1,1,-1
 1092 455 l 1,2,-1
 102 455 l 1,3,-1
 102 724 l 1,0,-1
EndSplineSet
EndChar

StartChar: macron
Encoding: 175 175 106
Width: 1233
Flags: W
LayerCount: 2
Back
Fore
SplineSet
104 1512 m 1,0,-1
 1106 1512 l 1,1,-1
 1106 1330 l 1,2,-1
 104 1330 l 1,3,-1
 104 1512 l 1,0,-1
EndSplineSet
EndChar

StartChar: degree
Encoding: 176 176 107
Width: 1233
Flags: W
LayerCount: 2
Back
Fore
SplineSet
616 1520 m 0,0,1
 683 1520 683 1520 744 1494.5 c 128,-1,2
 805 1469 805 1469 852 1421 c 0,3,4
 899 1374 899 1374 923.5 1314 c 128,-1,5
 948 1254 948 1254 948 1186 c 0,6,7
 948 1120 948 1120 923 1059 c 128,-1,8
 898 998 898 998 852 952 c 0,9,10
 804 905 804 905 743 879.5 c 128,-1,11
 682 854 682 854 614 854 c 0,12,13
 473 854 473 854 378 949 c 128,-1,14
 283 1044 283 1044 283 1186 c 0,15,16
 283 1327 283 1327 379 1423.5 c 128,-1,17
 475 1520 475 1520 616 1520 c 0,0,1
616 1358 m 0,18,19
 544 1358 544 1358 494 1308 c 128,-1,20
 444 1258 444 1258 444 1186 c 256,21,22
 444 1114 444 1114 493 1065 c 128,-1,23
 542 1016 542 1016 614 1016 c 256,24,25
 686 1016 686 1016 736 1065.5 c 128,-1,26
 786 1115 786 1115 786 1186 c 0,27,28
 786 1258 786 1258 736.5 1308 c 128,-1,29
 687 1358 687 1358 616 1358 c 0,18,19
EndSplineSet
EndChar

StartChar: plusminus
Encoding: 177 177 108
Width: 1233
Flags: W
LayerCount: 2
Back
Fore
SplineSet
735 1284 m 1,0,-1
 735 930 l 1,1,-1
 1145 930 l 1,2,-1
 1145 694 l 1,3,-1
 735 694 l 1,4,-1
 735 340 l 1,5,-1
 498 340 l 1,6,-1
 498 694 l 1,7,-1
 88 694 l 1,8,-1
 88 930 l 1,9,-1
 498 930 l 1,10,-1
 498 1284 l 1,11,-1
 735 1284 l 1,0,-1
88 238 m 1,12,-1
 1145 238 l 1,13,-1
 1145 0 l 1,14,-1
 88 0 l 1,15,-1
 88 238 l 1,12,-1
EndSplineSet
EndChar

StartChar: twosuperior
Encoding: 178 178 109
Width: 1233
Flags: W
LayerCount: 2
Back
Fore
SplineSet
500 813 m 1,0,-1
 940 813 l 1,1,-1
 940 668 l 1,2,-1
 274 668 l 1,3,-1
 274 809 l 1,4,5
 325 852 325 852 415 927 c 0,6,7
 729 1189 729 1189 729 1268 c 0,8,9
 729 1320 729 1320 685.5 1350 c 128,-1,10
 642 1380 642 1380 567 1380 c 0,11,12
 511 1380 511 1380 443.5 1362.5 c 128,-1,13
 376 1345 376 1345 299 1311 c 1,14,-1
 299 1475 l 1,15,16
 374 1497 374 1497 445 1508.5 c 128,-1,17
 516 1520 516 1520 582 1520 c 0,18,19
 751 1520 751 1520 844.5 1457.5 c 128,-1,20
 938 1395 938 1395 938 1284 c 0,21,22
 938 1158 938 1158 583 878 c 0,23,24
 529 836 529 836 500 813 c 1,0,-1
EndSplineSet
EndChar

StartChar: threesuperior
Encoding: 179 179 110
Width: 1233
Flags: W
LayerCount: 2
Back
Fore
SplineSet
582 1042 m 2,0,-1
 471 1042 l 1,1,-1
 471 1188 l 1,2,-1
 582 1188 l 2,3,4
 656 1188 656 1188 698.5 1213 c 128,-1,5
 741 1238 741 1238 741 1282 c 0,6,7
 741 1327 741 1327 701.5 1352.5 c 128,-1,8
 662 1378 662 1378 592 1378 c 0,9,10
 523 1378 523 1378 454 1367 c 128,-1,11
 385 1356 385 1356 317 1333 c 1,12,-1
 317 1485 l 1,13,14
 386 1502 386 1502 455.5 1511 c 128,-1,15
 525 1520 525 1520 592 1520 c 0,16,17
 754 1520 754 1520 846 1462 c 128,-1,18
 938 1404 938 1404 938 1303 c 0,19,20
 938 1230 938 1230 885.5 1183 c 128,-1,21
 833 1136 833 1136 735 1120 c 1,22,23
 846 1105 846 1105 904.5 1049 c 128,-1,24
 963 993 963 993 963 901 c 0,25,26
 963 780 963 780 866.5 716.5 c 128,-1,27
 770 653 770 653 586 653 c 0,28,29
 511 653 511 653 436 663.5 c 128,-1,30
 361 674 361 674 287 694 c 1,31,-1
 287 848 l 1,32,33
 354 821 354 821 430 807 c 128,-1,34
 506 793 506 793 586 793 c 0,35,36
 671 793 671 793 718.5 825 c 128,-1,37
 766 857 766 857 766 913 c 0,38,39
 766 974 766 974 717 1008 c 128,-1,40
 668 1042 668 1042 582 1042 c 2,0,-1
EndSplineSet
EndChar

StartChar: paragraph
Encoding: 182 182 111
Width: 1233
Flags: W
LayerCount: 2
Back
Fore
SplineSet
545 1493 m 2,0,-1
 1065 1493 l 1,1,-1
 1065 -197 l 1,2,-1
 874 -197 l 1,3,-1
 874 1346 l 1,4,-1
 684 1346 l 1,5,-1
 684 -197 l 1,6,-1
 496 -197 l 1,7,-1
 496 649 l 1,8,9
 291 674 291 674 180.5 783.5 c 128,-1,10
 70 893 70 893 70 1071 c 0,11,12
 70 1261 70 1261 200 1377 c 128,-1,13
 330 1493 330 1493 545 1493 c 2,0,-1
EndSplineSet
EndChar

StartChar: periodcentered
Encoding: 183 183 112
Width: 1233
Flags: W
LayerCount: 2
Back
Fore
SplineSet
449 895 m 1,0,-1
 782 895 l 1,1,-1
 782 530 l 1,2,-1
 449 530 l 1,3,-1
 449 895 l 1,0,-1
EndSplineSet
EndChar

StartChar: onesuperior
Encoding: 185 185 113
Width: 1233
Flags: W
LayerCount: 2
Back
Fore
SplineSet
313 813 m 1,0,-1
 539 813 l 1,1,-1
 539 1356 l 1,2,-1
 319 1313 l 1,3,-1
 319 1462 l 1,4,-1
 541 1503 l 1,5,-1
 735 1503 l 1,6,-1
 735 813 l 1,7,-1
 961 813 l 1,8,-1
 961 668 l 1,9,-1
 313 668 l 1,10,-1
 313 813 l 1,0,-1
EndSplineSet
EndChar

StartChar: guillemotright
Encoding: 187 187 114
Width: 1233
Flags: W
LayerCount: 2
Back
Fore
SplineSet
193 1059 m 1,0,-1
 662 666 l 1,1,-1
 662 535 l 1,2,-1
 193 141 l 1,3,-1
 193 379 l 1,4,-1
 469 600 l 1,5,-1
 193 821 l 1,6,-1
 193 1059 l 1,0,-1
647 1059 m 1,7,-1
 1116 666 l 1,8,-1
 1116 535 l 1,9,-1
 647 141 l 1,10,-1
 647 379 l 1,11,-1
 924 600 l 1,12,-1
 647 821 l 1,13,-1
 647 1059 l 1,7,-1
EndSplineSet
EndChar

StartChar: questiondown
Encoding: 191 191 115
Width: 1233
Flags: W
LayerCount: 2
Back
Fore
SplineSet
799 1210 m 1,0,-1
 532 1210 l 1,1,-1
 532 1493 l 1,2,-1
 799 1493 l 1,3,-1
 799 1210 l 1,0,-1
532 1092 m 1,4,-1
 799 1092 l 1,5,-1
 799 938 l 2,6,7
 799 839 799 839 768 768.5 c 128,-1,8
 737 698 737 698 657 621 c 2,9,-1
 567 532 l 2,10,11
 506 473 506 473 483.5 432.5 c 128,-1,12
 461 392 461 392 461 348 c 0,13,14
 461 281 461 281 507 247 c 128,-1,15
 553 213 553 213 645 213 c 0,16,17
 728 213 728 213 818.5 248.5 c 128,-1,18
 909 284 909 284 1006 354 c 1,19,-1
 1006 86 l 1,20,21
 908 30 908 30 807.5 1.5 c 128,-1,22
 707 -27 707 -27 606 -27 c 0,23,24
 405 -27 405 -27 290.5 67 c 128,-1,25
 176 161 176 161 176 326 c 0,26,27
 176 402 176 402 210 467.5 c 128,-1,28
 244 533 244 533 338 625 c 2,29,-1
 426 711 l 2,30,31
 492 775 492 775 511 817 c 128,-1,32
 530 859 530 859 530 922 c 0,33,34
 530 923 530 923 531 928 c 0,35,36
 532 949 532 949 532 969 c 2,37,-1
 532 1092 l 1,4,-1
EndSplineSet
EndChar

StartChar: Adieresis
Encoding: 196 196 116
Width: 1233
Flags: W
LayerCount: 2
Back
Fore
SplineSet
696 1899 m 5
 932 1899 l 5
 932 1653 l 5
 696 1653 l 5
 696 1899 l 5
301 1899 m 5
 537 1899 l 5
 537 1653 l 5
 301 1653 l 5
 301 1899 l 5
EndSplineSet
Refer: 33 65 N 1 0 0 1 0 0 3
EndChar

StartChar: Ecircumflex
Encoding: 202 202 117
Width: 1233
Flags: W
LayerCount: 2
Back
Fore
SplineSet
492 1899 m 5
 801 1899 l 5
 1024 1635 l 5
 846 1635 l 5
 647 1796 l 5
 449 1635 l 5
 271 1635 l 5
 492 1899 l 5
EndSplineSet
Refer: 37 69 N 1 0 0 1 0 0 3
EndChar

StartChar: Edieresis
Encoding: 203 203 118
Width: 1233
Flags: W
LayerCount: 2
Back
Fore
SplineSet
727 1899 m 5
 963 1899 l 5
 963 1653 l 5
 727 1653 l 5
 727 1899 l 5
332 1899 m 5
 568 1899 l 5
 568 1653 l 5
 332 1653 l 5
 332 1899 l 5
EndSplineSet
Refer: 37 69 N 1 0 0 1 0 0 3
EndChar

StartChar: Icircumflex
Encoding: 206 206 119
Width: 1233
Flags: W
LayerCount: 2
Back
Fore
SplineSet
461 1899 m 5
 770 1899 l 5
 993 1635 l 5
 815 1635 l 5
 616 1796 l 5
 418 1635 l 5
 240 1635 l 5
 461 1899 l 5
EndSplineSet
Refer: 41 73 N 1 0 0 1 0 0 3
EndChar

StartChar: Idieresis
Encoding: 207 207 120
Width: 1233
Flags: W
LayerCount: 2
Back
Fore
SplineSet
696 1899 m 5
 932 1899 l 5
 932 1653 l 5
 696 1653 l 5
 696 1899 l 5
301 1899 m 5
 537 1899 l 5
 537 1653 l 5
 301 1653 l 5
 301 1899 l 5
EndSplineSet
Refer: 41 73 N 1 0 0 1 0 0 3
EndChar

StartChar: Ocircumflex
Encoding: 212 212 121
Width: 1233
Flags: W
LayerCount: 2
Back
Fore
SplineSet
461 1899 m 5
 770 1899 l 5
 993 1635 l 5
 815 1635 l 5
 616 1796 l 5
 418 1635 l 5
 240 1635 l 5
 461 1899 l 5
EndSplineSet
Refer: 47 79 N 1 0 0 1 0 0 3
EndChar

StartChar: Odieresis
Encoding: 214 214 122
Width: 1233
Flags: W
LayerCount: 2
Back
Fore
SplineSet
696 1899 m 5
 932 1899 l 5
 932 1653 l 5
 696 1653 l 5
 696 1899 l 5
301 1899 m 5
 537 1899 l 5
 537 1653 l 5
 301 1653 l 5
 301 1899 l 5
EndSplineSet
Refer: 47 79 N 1 0 0 1 0 0 3
EndChar

StartChar: multiply
Encoding: 215 215 123
Width: 1233
Flags: W
LayerCount: 2
Back
Fore
SplineSet
1112 971 m 1,0,-1
 782 643 l 1,1,-1
 1112 313 l 1,2,-1
 944 147 l 1,3,-1
 614 475 l 1,4,-1
 287 147 l 1,5,-1
 119 313 l 1,6,-1
 449 643 l 1,7,-1
 119 971 l 1,8,-1
 287 1139 l 1,9,-1
 614 811 l 1,10,-1
 944 1139 l 1,11,-1
 1112 971 l 1,0,-1
EndSplineSet
EndChar

StartChar: Ucircumflex
Encoding: 219 219 124
Width: 1233
Flags: W
LayerCount: 2
Back
Fore
SplineSet
461 1899 m 5
 770 1899 l 5
 993 1635 l 5
 815 1635 l 5
 616 1796 l 5
 418 1635 l 5
 240 1635 l 5
 461 1899 l 5
EndSplineSet
Refer: 53 85 N 1 0 0 1 0 0 3
EndChar

StartChar: Udieresis
Encoding: 220 220 125
Width: 1233
Flags: W
LayerCount: 2
Back
Fore
SplineSet
696 1899 m 5
 932 1899 l 5
 932 1653 l 5
 696 1653 l 5
 696 1899 l 5
301 1899 m 5
 537 1899 l 5
 537 1653 l 5
 301 1653 l 5
 301 1899 l 5
EndSplineSet
Refer: 53 85 N 1 0 0 1 0 0 3
EndChar

StartChar: acircumflex
Encoding: 226 226 126
Width: 1233
Flags: W
LayerCount: 2
Back
Fore
SplineSet
496 1638 m 5
 737 1638 l 5
 993 1262 l 5
 815 1262 l 5
 616 1487 l 5
 418 1262 l 5
 240 1262 l 5
 496 1638 l 5
EndSplineSet
Refer: 65 97 N 1 0 0 1 0 0 3
EndChar

StartChar: ecircumflex
Encoding: 234 234 128
Width: 1233
Flags: W
LayerCount: 2
Back
Fore
SplineSet
535 1638 m 5
 776 1638 l 5
 1032 1262 l 5
 854 1262 l 5
 655 1487 l 5
 457 1262 l 5
 279 1262 l 5
 535 1638 l 5
EndSplineSet
Refer: 69 101 N 1 0 0 1 0 0 3
EndChar

StartChar: icircumflex
Encoding: 238 238 130
Width: 1233
Flags: W
LayerCount: 2
Back
Fore
SplineSet
496 1638 m 5,0,-1
 737 1638 l 5,1,-1
 993 1262 l 5,2,-1
 815 1262 l 5,3,-1
 616 1487 l 5,4,-1
 418 1262 l 5,5,-1
 240 1262 l 5,6,-1
 496 1638 l 5,0,-1
221 1120 m 5,7,-1
 801 1120 l 5,8,-1
 801 225 l 5,9,-1
 1165 225 l 5,10,-1
 1165 0 l 5,11,-1
 143 0 l 5,12,-1
 143 225 l 5,13,-1
 508 225 l 5,14,-1
 508 895 l 5,15,-1
 221 895 l 5,16,-1
 221 1120 l 5,7,-1
EndSplineSet
EndChar

StartChar: idieresis
Encoding: 239 239 131
Width: 1233
Flags: W
LayerCount: 2
Back
Fore
SplineSet
221 1120 m 5
 801 1120 l 5
 801 225 l 5
 1165 225 l 5
 1165 0 l 5
 143 0 l 5
 143 225 l 5
 508 225 l 5
 508 895 l 5
 221 895 l 5
 221 1120 l 5
EndSplineSet
Refer: 102 168 N 1 0 0 1 0 0 2
EndChar

StartChar: ocircumflex
Encoding: 244 244 132
Width: 1233
Flags: W
LayerCount: 2
Back
Fore
SplineSet
496 1639 m 5
 737 1639 l 5
 993 1263 l 5
 815 1263 l 5
 616 1488 l 5
 418 1263 l 5
 240 1263 l 5
 496 1639 l 5
EndSplineSet
Refer: 79 111 N 1 0 0 1 0 0 2
EndChar

StartChar: divide
Encoding: 247 247 134
Width: 1233
Flags: W
LayerCount: 2
Back
Fore
SplineSet
461 1198 m 1,0,-1
 770 1198 l 1,1,-1
 770 889 l 1,2,-1
 461 889 l 1,3,-1
 461 1198 l 1,0,-1
461 395 m 1,4,-1
 770 395 l 1,5,-1
 770 86 l 1,6,-1
 461 86 l 1,7,-1
 461 395 l 1,4,-1
66 762 m 1,8,-1
 1165 762 l 1,9,-1
 1165 524 l 1,10,-1
 66 524 l 1,11,-1
 66 762 l 1,8,-1
EndSplineSet
EndChar

StartChar: oslash
Encoding: 248 248 135
Width: 1233
Flags: W
LayerCount: 2
Back
Fore
SplineSet
831 675 m 1,0,-1
 483 262 l 1,1,2
 514 235 514 235 547 222 c 128,-1,3
 580 209 580 209 618 209 c 0,4,5
 722 209 722 209 782 302.5 c 128,-1,6
 842 396 842 396 842 559 c 0,7,8
 842 588 842 588 839.5 617 c 128,-1,9
 837 646 837 646 831 675 c 1,0,-1
399 449 m 1,10,-1
 745 860 l 1,11,12
 719 885 719 885 688 897 c 128,-1,13
 657 909 657 909 618 909 c 0,14,15
 512 909 512 909 451.5 816.5 c 128,-1,16
 391 724 391 724 391 559 c 0,17,18
 391 525 391 525 393 499 c 128,-1,19
 395 473 395 473 399 449 c 1,10,-1
188 199 m 1,20,21
 143 272 143 272 120.5 361 c 128,-1,22
 98 450 98 450 98 559 c 0,23,24
 98 830 98 830 238.5 988.5 c 128,-1,25
 379 1147 379 1147 616 1147 c 0,26,27
 701 1147 701 1147 774.5 1125.5 c 128,-1,28
 848 1104 848 1104 915 1059 c 1,29,-1
 1063 1235 l 1,30,-1
 1202 1114 l 1,31,-1
 1042 926 l 1,32,33
 1088 850 1088 850 1111.5 758 c 128,-1,34
 1135 666 1135 666 1135 559 c 0,35,36
 1135 288 1135 288 994.5 129.5 c 128,-1,37
 854 -29 854 -29 616 -29 c 0,38,39
 533 -29 533 -29 457.5 -6.5 c 128,-1,40
 382 16 382 16 315 61 c 1,41,-1
 164 -117 l 1,42,-1
 25 2 l 1,43,-1
 188 199 l 1,20,21
EndSplineSet
EndChar

StartChar: ucircumflex
Encoding: 251 251 136
Width: 1233
Flags: W
LayerCount: 2
Back
Fore
SplineSet
496 1638 m 5
 737 1638 l 5
 993 1262 l 5
 815 1262 l 5
 616 1487 l 5
 418 1262 l 5
 240 1262 l 5
 496 1638 l 5
EndSplineSet
Refer: 85 117 N 1 0 0 1 0 0 3
EndChar

StartChar: Ccircumflex
Encoding: 264 264 139
Width: 1233
Flags: W
LayerCount: 2
Back
Fore
SplineSet
617 1899 m 5
 926 1899 l 5
 1149 1635 l 5
 971 1635 l 5
 772 1796 l 5
 574 1635 l 5
 396 1635 l 5
 617 1899 l 5
EndSplineSet
Refer: 35 67 N 1 0 0 1 0 0 2
EndChar

StartChar: ccircumflex
Encoding: 265 265 140
Width: 1233
Flags: W
LayerCount: 2
Back
Fore
SplineSet
601 1638 m 5
 842 1638 l 5
 1098 1262 l 5
 920 1262 l 5
 721 1487 l 5
 523 1262 l 5
 345 1262 l 5
 601 1638 l 5
EndSplineSet
Refer: 67 99 N 1 0 0 1 0 0 2
EndChar

StartChar: Cdotaccent
Encoding: 266 266 141
Width: 1233
Flags: W
LayerCount: 2
Back
Fore
SplineSet
579 1899 m 5
 854 1899 l 5
 854 1653 l 5
 579 1653 l 5
 579 1899 l 5
EndSplineSet
Refer: 35 67 N 1 0 0 1 0 0 3
EndChar

StartChar: cdotaccent
Encoding: 267 267 142
Width: 1233
Flags: W
LayerCount: 2
Back
Fore
SplineSet
554 1585 m 5
 829 1585 l 5
 829 1339 l 5
 554 1339 l 5
 554 1585 l 5
EndSplineSet
Refer: 67 99 N 1 0 0 1 0 0 3
EndChar

StartChar: Edotaccent
Encoding: 278 278 143
Width: 1233
Flags: W
LayerCount: 2
Back
Fore
SplineSet
510 1899 m 5
 785 1899 l 5
 785 1653 l 5
 510 1653 l 5
 510 1899 l 5
EndSplineSet
Refer: 37 69 N 1 0 0 1 0 0 3
EndChar

StartChar: edotaccent
Encoding: 279 279 144
Width: 1233
Flags: W
LayerCount: 2
Back
Fore
SplineSet
518 1585 m 5
 793 1585 l 5
 793 1339 l 5
 518 1339 l 5
 518 1585 l 5
EndSplineSet
Refer: 69 101 N 1 0 0 1 0 0 3
EndChar

StartChar: Gcircumflex
Encoding: 284 284 145
Width: 1233
Flags: W
LayerCount: 2
Back
Fore
SplineSet
582 1899 m 5
 891 1899 l 5
 1114 1635 l 5
 936 1635 l 5
 737 1796 l 5
 539 1635 l 5
 361 1635 l 5
 582 1899 l 5
EndSplineSet
Refer: 39 71 N 1 0 0 1 0 0 2
EndChar

StartChar: gcircumflex
Encoding: 285 285 146
Width: 1233
Flags: W
LayerCount: 2
Back
Fore
SplineSet
477 1638 m 5
 718 1638 l 5
 974 1262 l 5
 796 1262 l 5
 597 1487 l 5
 399 1262 l 5
 221 1262 l 5
 477 1638 l 5
EndSplineSet
Refer: 71 103 N 1 0 0 1 0 0 2
EndChar

StartChar: Gdotaccent
Encoding: 288 288 147
Width: 1233
Flags: W
LayerCount: 2
Back
Fore
SplineSet
529 1899 m 5
 804 1899 l 5
 804 1653 l 5
 529 1653 l 5
 529 1899 l 5
EndSplineSet
Refer: 39 71 N 1 0 0 1 0 0 3
EndChar

StartChar: gdotaccent
Encoding: 289 289 148
Width: 1233
Flags: W
LayerCount: 2
Back
Fore
SplineSet
479 1585 m 5
 754 1585 l 5
 754 1339 l 5
 479 1339 l 5
 479 1585 l 5
EndSplineSet
Refer: 71 103 N 1 0 0 1 0 0 3
EndChar

StartChar: Hcircumflex
Encoding: 292 292 149
Width: 1233
Flags: W
LayerCount: 2
Back
Fore
SplineSet
461 1899 m 5
 770 1899 l 5
 993 1635 l 5
 815 1635 l 5
 616 1796 l 5
 418 1635 l 5
 240 1635 l 5
 461 1899 l 5
EndSplineSet
Refer: 40 72 N 1 0 0 1 0 0 2
EndChar

StartChar: hcircumflex
Encoding: 293 293 150
Width: 1233
Flags: W
LayerCount: 2
Back
Fore
SplineSet
161 1899 m 5
 470 1899 l 5
 693 1635 l 5
 515 1635 l 5
 316 1796 l 5
 118 1635 l 5
 -60 1635 l 5
 161 1899 l 5
EndSplineSet
Refer: 72 104 N 1 0 0 1 0 0 2
EndChar

StartChar: Idotaccent
Encoding: 304 304 151
Width: 1233
Flags: W
LayerCount: 2
Back
Fore
SplineSet
479 1899 m 5
 754 1899 l 5
 754 1653 l 5
 479 1653 l 5
 479 1899 l 5
EndSplineSet
Refer: 41 73 N 1 0 0 1 0 0 3
EndChar

StartChar: Jcircumflex
Encoding: 308 308 152
Width: 1233
Flags: W
LayerCount: 2
Back
Fore
SplineSet
525 1899 m 5
 834 1899 l 5
 1057 1635 l 5
 879 1635 l 5
 680 1796 l 5
 482 1635 l 5
 304 1635 l 5
 525 1899 l 5
EndSplineSet
Refer: 42 74 N 1 0 0 1 0 0 2
EndChar

StartChar: jcircumflex
Encoding: 309 309 153
Width: 1233
Flags: W
LayerCount: 2
Back
Fore
SplineSet
850 43 m 6,0,1
 850 -209 850 -209 759.5 -316.5 c 132,-1,2
 669 -424 669 -424 459 -424 c 6,3,-1
 143 -424 l 5,4,-1
 143 -199 l 5,5,-1
 377 -199 l 6,6,7
 475 -199 475 -199 516 -144 c 132,-1,8
 557 -89 557 -89 557 43 c 6,9,-1
 557 895 l 5,10,-1
 260 895 l 5,11,-1
 260 1120 l 5,12,-1
 850 1120 l 5,13,-1
 850 43 l 6,0,1
496 1638 m 5,14,-1
 737 1638 l 5,15,-1
 993 1262 l 5,16,-1
 815 1262 l 5,17,-1
 616 1487 l 5,18,-1
 418 1262 l 5,19,-1
 240 1262 l 5,20,-1
 496 1638 l 5,14,-1
EndSplineSet
EndChar

StartChar: Scircumflex
Encoding: 348 348 154
Width: 1233
Flags: W
LayerCount: 2
Back
Fore
SplineSet
461 1899 m 5
 770 1899 l 5
 993 1635 l 5
 815 1635 l 5
 616 1796 l 5
 418 1635 l 5
 240 1635 l 5
 461 1899 l 5
EndSplineSet
Refer: 51 83 N 1 0 0 1 0 0 2
EndChar

StartChar: scircumflex
Encoding: 349 349 155
Width: 1233
Flags: W
LayerCount: 2
Back
Fore
SplineSet
496 1638 m 5
 737 1638 l 5
 993 1262 l 5
 815 1262 l 5
 616 1487 l 5
 418 1262 l 5
 240 1262 l 5
 496 1638 l 5
EndSplineSet
Refer: 83 115 N 1 0 0 1 0 0 2
EndChar

StartChar: Wcircumflex
Encoding: 372 372 156
Width: 1233
Flags: W
LayerCount: 2
Back
Fore
SplineSet
461 1906 m 5
 770 1906 l 5
 993 1642 l 5
 815 1642 l 5
 616 1803 l 5
 418 1642 l 5
 240 1642 l 5
 461 1906 l 5
EndSplineSet
Refer: 55 87 N 1 0 0 1 0 0 2
EndChar

StartChar: wcircumflex
Encoding: 373 373 157
Width: 1233
Flags: W
LayerCount: 2
Back
Fore
SplineSet
496 1645 m 5
 737 1645 l 5
 993 1269 l 5
 815 1269 l 5
 616 1494 l 5
 418 1269 l 5
 240 1269 l 5
 496 1645 l 5
EndSplineSet
Refer: 87 119 N 1 0 0 1 0 0 2
EndChar

StartChar: Ycircumflex
Encoding: 374 374 158
Width: 1233
Flags: W
LayerCount: 2
Back
Fore
SplineSet
461 1906 m 5
 770 1906 l 5
 993 1642 l 5
 815 1642 l 5
 616 1803 l 5
 418 1642 l 5
 240 1642 l 5
 461 1906 l 5
EndSplineSet
Refer: 57 89 N 1 0 0 1 0 0 2
EndChar

StartChar: ycircumflex
Encoding: 375 375 159
Width: 1233
Flags: W
LayerCount: 2
Back
Fore
SplineSet
497 1645 m 5
 738 1645 l 5
 994 1269 l 5
 816 1269 l 5
 617 1494 l 5
 419 1269 l 5
 241 1269 l 5
 497 1645 l 5
EndSplineSet
Refer: 89 121 N 1 0 0 1 0 0 2
EndChar

StartChar: Ydieresis
Encoding: 376 376 160
Width: 1233
Flags: W
LayerCount: 2
Back
Fore
SplineSet
696 1899 m 5
 932 1899 l 5
 932 1653 l 5
 696 1653 l 5
 696 1899 l 5
301 1899 m 5
 537 1899 l 5
 537 1653 l 5
 301 1653 l 5
 301 1899 l 5
EndSplineSet
Refer: 57 89 N 1 0 0 1 0 0 3
EndChar

StartChar: Zdotaccent
Encoding: 379 379 161
Width: 1233
Flags: W
LayerCount: 2
Back
Fore
SplineSet
529 1899 m 5
 804 1899 l 5
 804 1653 l 5
 529 1653 l 5
 529 1899 l 5
EndSplineSet
Refer: 58 90 N 1 0 0 1 0 0 3
EndChar

StartChar: zdotaccent
Encoding: 380 380 162
Width: 1233
Flags: W
LayerCount: 2
Back
Fore
SplineSet
479 1585 m 5
 754 1585 l 5
 754 1339 l 5
 479 1339 l 5
 479 1585 l 5
EndSplineSet
Refer: 90 122 N 1 0 0 1 0 0 3
EndChar

StartChar: uni0186
Encoding: 390 390 163
Width: 1233
Flags: W
LayerCount: 2
Back
Fore
SplineSet
152 1448 m 1,0,1
 220 1484 220 1484 298 1502 c 128,-1,2
 376 1520 376 1520 461 1520 c 0,3,4
 763 1520 763 1520 922 1321 c 128,-1,5
 1081 1122 1081 1122 1081 745 c 0,6,7
 1081 369 1081 369 922 170 c 128,-1,8
 763 -29 763 -29 461 -29 c 0,9,10
 376 -29 376 -29 299 -11 c 128,-1,11
 222 7 222 7 152 43 c 1,12,-1
 152 371 l 1,13,14
 228 301 228 301 299.5 268.5 c 128,-1,15
 371 236 371 236 447 236 c 0,16,17
 609 236 609 236 691.5 364.5 c 128,-1,18
 774 493 774 493 774 745 c 0,19,20
 774 998 774 998 691.5 1126.5 c 128,-1,21
 609 1255 609 1255 447 1255 c 0,22,23
 371 1255 371 1255 299.5 1222.5 c 128,-1,24
 228 1190 228 1190 152 1120 c 1,25,-1
 152 1448 l 1,0,1
EndSplineSet
EndChar

StartChar: uni0191
Encoding: 401 401 164
Width: 1233
Flags: W
LayerCount: 2
Back
Fore
SplineSet
1125 1233 m 1,0,-1
 585 1233 l 1,1,-1
 585 911 l 1,2,-1
 1068 911 l 1,3,-1
 1068 651 l 1,4,-1
 585 651 l 1,5,-1
 585 168 l 1,6,-1
 585 43 l 1,7,-1
 585 0 l 1,8,9
 577 -216 577 -216 494 -316 c 0,10,11
 404 -424 404 -424 194 -424 c 2,12,-1
 108 -424 l 1,13,-1
 108 -199 l 1,14,15
 212 -199 212 -199 253 -144 c 0,16,17
 290 -94 290 -94 290 43 c 2,18,-1
 290 168 l 1,19,-1
 290 1493 l 1,20,-1
 1125 1493 l 1,21,-1
 1125 1233 l 1,0,-1
EndSplineSet
EndChar

StartChar: florin
Encoding: 402 402 165
Width: 1233
Flags: W
LayerCount: 2
Back
Fore
SplineSet
798 1218 m 1,0,-1
 798 1120 l 1,1,-1
 1142 1120 l 1,2,-1
 1142 895 l 1,3,-1
 798 895 l 1,4,-1
 798 0 l 1,5,6
 792 -217 792 -217 708 -316 c 0,7,8
 616 -424 616 -424 407 -424 c 2,9,-1
 91 -424 l 1,10,-1
 91 -199 l 1,11,-1
 325 -199 l 2,12,13
 424 -199 424 -199 464 -144 c 0,14,15
 505 -88 505 -88 505 43 c 2,16,-1
 505 895 l 1,17,-1
 233 895 l 1,18,-1
 233 1120 l 1,19,-1
 505 1120 l 1,20,-1
 505 1198 l 2,21,22
 505 1400 505 1400 589 1478 c 128,-1,23
 673 1556 673 1556 901 1556 c 2,24,-1
 1142 1556 l 1,25,-1
 1142 1331 l 1,26,-1
 913 1331 l 2,27,28
 802 1332 802 1332 798 1218 c 1,0,-1
EndSplineSet
EndChar

StartChar: uni019B
Encoding: 411 411 166
Width: 1233
Flags: W
LayerCount: 2
Back
Fore
SplineSet
768 1518 m 1,0,-1
 871 1358 l 1,1,-1
 641 1195 l 1,2,-1
 1153 0 l 1,3,-1
 856 0 l 1,4,-1
 601 596 l 1,5,-1
 377 0 l 1,6,-1
 80 0 l 1,7,-1
 443 965 l 1,8,-1
 413 1034 l 1,9,-1
 203 885 l 1,10,-1
 103 1047 l 1,11,-1
 337 1213 l 1,12,-1
 190 1556 l 1,13,-1
 487 1556 l 1,14,-1
 565 1374 l 1,15,-1
 768 1518 l 1,0,-1
EndSplineSet
EndChar

StartChar: Ohorn
Encoding: 416 416 167
Width: 1233
Flags: W
LayerCount: 2
Back
Fore
SplineSet
828 1238 m 5
 828 1379 l 5
 895 1329 895 1329 931.5 1310 c 4
 968 1291 968 1291 994 1291 c 4
 1033 1291 1033 1291 1057.5 1320.5 c 4
 1082 1350 1082 1350 1082 1399 c 4
 1082 1438 1082 1438 1074.5 1476.5 c 4
 1067 1515 1067 1515 1051 1555 c 5
 1207 1555 l 5
 1218 1500 1218 1500 1223.5 1453 c 4
 1229 1406 1229 1406 1229 1365 c 4
 1229 1250 1229 1250 1183 1188.5 c 4
 1137 1127 1137 1127 1051 1127 c 4
 998 1127 998 1127 943.5 1154 c 4
 889 1181 889 1181 828 1238 c 5
EndSplineSet
Refer: 47 79 N 1 0 0 1 -87 0 2
EndChar

StartChar: ohorn
Encoding: 417 417 168
Width: 1233
Flags: W
LayerCount: 2
Back
Fore
SplineSet
823 850 m 5
 823 991 l 5
 890 941 890 941 926.5 922 c 4
 963 903 963 903 989 903 c 4
 1028 903 1028 903 1052.5 932.5 c 4
 1077 962 1077 962 1077 1011 c 4
 1077 1050 1077 1050 1069.5 1088.5 c 4
 1062 1127 1062 1127 1046 1167 c 5
 1202 1167 l 5
 1213 1112 1213 1112 1218.5 1065 c 4
 1224 1018 1224 1018 1224 977 c 4
 1224 862 1224 862 1178 800.5 c 4
 1132 739 1132 739 1046 739 c 4
 993 739 993 739 938.5 766 c 4
 884 793 884 793 823 850 c 5
EndSplineSet
Refer: 79 111 N 1 0 0 1 -88 0 2
EndChar

StartChar: uni01A4
Encoding: 420 420 169
Width: 1233
Flags: W
LayerCount: 2
Back
Fore
SplineSet
625 1245 m 1,0,-1
 625 807 l 1,1,-1
 644 807 l 2,2,3
 789 807 789 807 847.5 856 c 128,-1,4
 906 905 906 905 906 1026 c 128,-1,5
 906 1147 906 1147 847.5 1196 c 128,-1,6
 789 1245 789 1245 644 1245 c 2,7,-1
 625 1245 l 1,0,-1
330 1206 m 1,8,9
 301 1206 301 1206 290 1168 c 0,10,11
 275 1116 275 1116 275 1088 c 2,12,-1
 275 1064 l 1,13,-1
 20 1064 l 1,14,-1
 20 1141 l 2,15,16
 20 1291 20 1291 68 1361 c 0,17,18
 143 1470 143 1470 279 1489 c 0,19,20
 304 1493 304 1493 330 1493 c 2,21,-1
 633 1493 l 2,22,23
 942 1493 942 1493 1077.5 1383 c 128,-1,24
 1213 1273 1213 1273 1213 1026 c 128,-1,25
 1213 779 1213 779 1077.5 669 c 128,-1,26
 942 559 942 559 633 559 c 2,27,-1
 625 559 l 1,28,-1
 625 0 l 1,29,-1
 330 0 l 1,30,-1
 330 1206 l 1,8,9
EndSplineSet
EndChar

StartChar: uni01A5
Encoding: 421 421 170
Width: 1233
Flags: W
LayerCount: 2
Back
Fore
SplineSet
850 561 m 128,-1,1
 850 723 850 723 796 815 c 128,-1,2
 742 907 742 907 647 907 c 128,-1,3
 552 907 552 907 497 815 c 128,-1,4
 442 723 442 723 442 561 c 128,-1,5
 442 399 442 399 497 307 c 128,-1,6
 552 215 552 215 647 215 c 128,-1,7
 742 215 742 215 796 307 c 128,-1,0
 850 399 850 399 850 561 c 128,-1,1
729 -29 m 0,8,9
 549 -29 549 -29 442 158 c 1,10,-1
 442 -426 l 1,11,-1
 150 -426 l 1,12,-1
 151 1063 l 1,13,-1
 150 1063 l 1,14,-1
 151 1089 l 2,15,16
 161 1351 161 1351 242 1448 c 0,17,18
 332 1556 332 1556 542 1556 c 2,19,-1
 663 1556 l 1,20,-1
 663 1331 l 1,21,-1
 624 1331 l 2,22,23
 529 1331 529 1331 483 1276 c 0,24,25
 448 1233 448 1233 442 1089 c 1,26,-1
 443 1089 l 1,27,-1
 442 952 l 1,28,29
 534 1147 534 1147 739 1147 c 0,30,31
 931 1147 931 1147 1037 993 c 128,-1,32
 1143 839 1143 839 1143 559 c 0,33,34
 1143 134 1143 134 912 13 c 0,35,36
 831 -29 831 -29 729 -29 c 0,8,9
EndSplineSet
EndChar

StartChar: uni01A7
Encoding: 423 423 171
Width: 1233
Flags: W
LayerCount: 2
Back
Fore
SplineSet
729 655 m 2,0,1
 729 655 729 655 584 600 c 0,2,3
 508 571 508 571 468 520.5 c 128,-1,4
 428 470 428 470 428 403 c 0,5,6
 428 314 428 314 488 264.5 c 128,-1,7
 548 215 548 215 657 215 c 0,8,9
 765 215 765 215 875.5 256 c 128,-1,10
 986 297 986 297 1104 381 c 1,11,-1
 1104 76 l 1,12,13
 1000 24 1000 24 888.5 -2.5 c 128,-1,14
 777 -29 777 -29 666 -29 c 0,15,16
 396 -29 396 -29 262.5 82.5 c 128,-1,17
 129 194 129 194 129 420 c 0,18,19
 129 586 129 586 214 695 c 128,-1,20
 299 804 299 804 479 870 c 2,21,-1
 606 918 l 2,22,23
 738 967 738 967 779.5 1007.5 c 128,-1,24
 821 1048 821 1048 821 1110 c 0,25,26
 821 1190 821 1190 764 1233 c 128,-1,27
 707 1276 707 1276 600 1276 c 0,28,29
 504 1276 504 1276 406 1241 c 128,-1,30
 308 1206 308 1206 213 1139 c 1,31,-1
 213 1427 l 1,32,33
 314 1473 314 1473 417 1496.5 c 128,-1,34
 520 1520 520 1520 623 1520 c 0,35,36
 850 1520 850 1520 980 1404 c 128,-1,37
 1110 1288 1110 1288 1110 1085 c 0,38,39
 1110 927 1110 927 1031 833.5 c 128,-1,40
 952 740 952 740 729 655 c 2,0,1
EndSplineSet
EndChar

StartChar: uni01A8
Encoding: 424 424 172
Width: 1233
Flags: W
LayerCount: 2
Back
Fore
SplineSet
248 1085 m 1,0,1
 337 1116 337 1116 431.5 1131.5 c 128,-1,2
 526 1147 526 1147 621 1147 c 0,3,4
 833 1147 833 1147 950 1057 c 128,-1,5
 1067 967 1067 967 1067 805 c 0,6,7
 1067 669 1067 669 990 588 c 128,-1,8
 913 507 913 507 745 469 c 2,9,-1
 664 451 l 2,10,11
 523 417 523 417 485.5 387 c 128,-1,12
 448 357 448 357 448 301 c 0,13,14
 448 244 448 244 501 214 c 128,-1,15
 554 184 554 184 657 184 c 0,16,17
 751 184 751 184 851.5 213 c 128,-1,18
 952 242 952 242 1049 297 c 1,19,-1
 1049 41 l 1,20,21
 940 6 940 6 834 -11.5 c 128,-1,22
 728 -29 728 -29 627 -29 c 0,23,24
 399 -29 399 -29 285.5 57.5 c 128,-1,25
 172 144 172 144 172 317 c 0,26,27
 172 461 172 461 246.5 545.5 c 128,-1,28
 321 630 321 630 481 668 c 2,29,-1
 565 688 l 1,30,-1
 576 691 l 1,31,32
 790 741 790 741 790 821 c 0,33,34
 790 877 790 877 740 905.5 c 128,-1,35
 690 934 690 934 592 934 c 0,36,37
 504 934 504 934 416.5 907.5 c 128,-1,38
 329 881 329 881 248 829 c 1,39,-1
 248 1085 l 1,0,1
EndSplineSet
EndChar

StartChar: uni01C0
Encoding: 448 448 174
Width: 1233
Flags: W
LayerCount: 2
Back
Fore
SplineSet
483 1493 m 1,0,-1
 750 1493 l 1,1,-1
 750 0 l 1,2,-1
 483 0 l 1,3,-1
 483 1493 l 1,0,-1
EndSplineSet
EndChar

StartChar: uni01DD
Encoding: 477 477 176
Width: 1233
Flags: W
LayerCount: 2
Back
Fore
SplineSet
92 534 m 6,0,-1
 92 653 l 5,1,-1
 851 653 l 5,2,-1
 851 663 l 6,3,4
 850 795 850 795 773 855 c 132,-1,5
 696 915 696 915 543 915 c 4,6,7
 442 915 442 915 344 886 c 132,-1,8
 246 857 246 857 139 794 c 5,9,-1
 139 1063 l 5,10,11
 241 1105 241 1105 347 1126 c 132,-1,12
 453 1147 453 1147 571 1147 c 4,13,14
 852 1147 852 1147 1000.5 996.5 c 132,-1,15
 1149 846 1149 846 1149 563 c 4,16,17
 1149 289 1149 289 1006 130 c 132,-1,18
 863 -29 863 -29 616 -29 c 4,19,20
 367 -29 367 -29 229.5 118.5 c 132,-1,21
 92 266 92 266 92 534 c 6,0,-1
387 433 m 5,22,23
 389 317 389 317 446.5 257.5 c 132,-1,24
 504 198 504 198 616 198 c 4,25,26
 717 198 717 198 777 259 c 132,-1,27
 837 320 837 320 848 433 c 5,28,-1
 387 433 l 5,22,23
EndSplineSet
EndChar

StartChar: uni0226
Encoding: 550 550 177
Width: 1233
Flags: W
LayerCount: 2
Back
Fore
SplineSet
479 1899 m 5
 754 1899 l 5
 754 1653 l 5
 479 1653 l 5
 479 1899 l 5
EndSplineSet
Refer: 33 65 N 1 0 0 1 0 0 3
EndChar

StartChar: uni0227
Encoding: 551 551 178
Width: 1233
Flags: W
LayerCount: 2
Back
Fore
SplineSet
479 1585 m 5
 754 1585 l 5
 754 1339 l 5
 479 1339 l 5
 479 1585 l 5
EndSplineSet
Refer: 65 97 N 1 0 0 1 0 0 3
EndChar

StartChar: uni022E
Encoding: 558 558 179
Width: 1233
Flags: W
LayerCount: 2
Back
Fore
SplineSet
479 1899 m 5
 754 1899 l 5
 754 1653 l 5
 479 1653 l 5
 479 1899 l 5
EndSplineSet
Refer: 47 79 N 1 0 0 1 0 0 3
EndChar

StartChar: uni022F
Encoding: 559 559 180
Width: 1233
Flags: W
LayerCount: 2
Back
Fore
SplineSet
479 1585 m 5
 754 1585 l 5
 754 1339 l 5
 479 1339 l 5
 479 1585 l 5
EndSplineSet
Refer: 79 111 N 1 0 0 1 0 0 3
EndChar

StartChar: uni0245
Encoding: 581 581 181
Width: 1233
Flags: W
LayerCount: 2
Back
Fore
SplineSet
617 1247 m 1,0,-1
 354 0 l 1,1,-1
 57 0 l 1,2,-1
 412 1493 l 1,3,-1
 821 1493 l 1,4,-1
 1176 0 l 1,5,-1
 879 0 l 1,6,-1
 617 1247 l 1,0,-1
EndSplineSet
EndChar

StartChar: uni0254
Encoding: 596 596 182
Width: 1233
Flags: W
LayerCount: 2
Back
Fore
SplineSet
172 1063 m 1,0,1
 246 1106 246 1106 331 1127.5 c 128,-1,2
 416 1149 416 1149 514 1149 c 0,3,4
 773 1149 773 1149 919 993 c 128,-1,5
 1065 837 1065 837 1065 561 c 0,6,7
 1065 284 1065 284 918 127.5 c 128,-1,8
 771 -29 771 -29 512 -29 c 0,9,10
 422 -29 422 -29 338.5 -8 c 128,-1,11
 255 13 255 13 172 57 c 1,12,-1
 172 325 l 1,13,14
 236 270 236 270 312.5 240.5 c 128,-1,15
 389 211 389 211 471 211 c 0,16,17
 614 211 614 211 691 302 c 128,-1,18
 768 393 768 393 768 561 c 256,19,20
 768 729 768 729 691 819 c 128,-1,21
 614 909 614 909 471 909 c 0,22,23
 386 909 386 909 312 880.5 c 128,-1,24
 238 852 238 852 172 794 c 1,25,-1
 172 1063 l 1,0,1
EndSplineSet
EndChar

StartChar: uni02B0
Encoding: 688 688 183
Width: 1233
Flags: W
LayerCount: 2
Back
Fore
SplineSet
904 1075 m 2,0,-1
 904 668 l 1,1,-1
 718 668 l 1,2,-1
 718 1050 l 2,3,4
 718 1118 718 1118 696 1147 c 128,-1,5
 674 1176 674 1176 624 1176 c 0,6,7
 573 1176 573 1176 544 1137 c 0,8,9
 515 1097 515 1097 515 1027 c 2,10,-1
 515 668 l 1,11,-1
 329 668 l 1,12,-1
 329 1540 l 1,13,-1
 515 1540 l 1,14,-1
 515 1201 l 1,15,16
 535 1254 535 1254 583 1282 c 0,17,18
 631 1311 631 1311 699 1311 c 0,19,20
 800 1311 800 1311 852 1252 c 0,21,22
 904 1192 904 1192 904 1075 c 2,0,-1
EndSplineSet
EndChar

StartChar: uni02B2
Encoding: 690 690 184
Width: 1233
Flags: W
LayerCount: 2
Back
Fore
SplineSet
843 623 m 2,0,1
 843 482 843 482 785 422 c 128,-1,2
 727 362 727 362 592 362 c 2,3,-1
 390 362 l 1,4,-1
 390 488 l 1,5,-1
 540 488 l 2,6,7
 603 488 603 488 629 518 c 0,8,9
 655 549 655 549 655 623 c 2,10,-1
 655 1100 l 1,11,-1
 465 1100 l 1,12,-1
 465 1226 l 1,13,-1
 843 1226 l 1,14,-1
 843 623 l 2,0,1
843 1340 m 1,15,-1
 655 1340 l 1,16,-1
 655 1531 l 1,17,-1
 843 1531 l 1,18,-1
 843 1340 l 1,15,-1
EndSplineSet
EndChar

StartChar: uni02B3
Encoding: 691 691 185
Width: 1233
Flags: W
LayerCount: 2
Back
Fore
SplineSet
892 1122 m 1,0,1
 861 1147 861 1147 820 1159 c 0,2,3
 778 1172 778 1172 729 1172 c 0,4,5
 667 1172 667 1172 625 1154 c 0,6,7
 578 1134 578 1134 556 1101 c 0,8,9
 541 1079 541 1079 535 1049 c 128,-1,10
 529 1019 529 1019 529 957 c 2,11,-1
 529 668 l 1,12,-1
 341 668 l 1,13,-1
 341 1296 l 1,14,-1
 529 1296 l 1,15,-1
 529 1198 l 1,16,17
 556 1252 556 1252 613 1281 c 0,18,19
 670 1311 670 1311 746 1311 c 0,20,21
 790 1311 790 1311 822 1303 c 0,22,23
 858 1294 858 1294 892 1279 c 1,24,-1
 892 1122 l 1,0,1
EndSplineSet
EndChar

StartChar: uni02B7
Encoding: 695 695 186
Width: 1233
Flags: W
LayerCount: 2
Back
Fore
SplineSet
222 1296 m 1,0,-1
 378 1296 l 1,1,-1
 463 815 l 1,2,-1
 541 1132 l 1,3,-1
 692 1132 l 1,4,-1
 768 815 l 1,5,-1
 855 1296 l 1,6,-1
 1011 1296 l 1,7,-1
 881 668 l 1,8,-1
 703 668 l 1,9,-1
 616 994 l 1,10,-1
 530 668 l 1,11,-1
 352 668 l 1,12,-1
 222 1296 l 1,0,-1
EndSplineSet
EndChar

StartChar: uni02B8
Encoding: 696 696 187
Width: 1233
Flags: W
LayerCount: 2
Back
Fore
SplineSet
676 601 m 2,0,1
 638 512 638 512 586 472 c 0,2,3
 533 432 533 432 457 432 c 2,4,-1
 303 432 l 1,5,-1
 303 557 l 1,6,-1
 379 557 l 2,7,8
 436 557 436 557 463 574 c 128,-1,9
 490 591 490 591 518 653 c 2,10,-1
 532 686 l 1,11,-1
 259 1296 l 1,12,-1
 456 1296 l 1,13,-1
 620 889 l 1,14,-1
 777 1296 l 1,15,-1
 974 1296 l 1,16,-1
 676 601 l 2,0,1
EndSplineSet
EndChar

StartChar: uni0394
Encoding: 916 916 191
Width: 1233
Flags: W
LayerCount: 2
Back
Fore
SplineSet
1200 0 m 1,0,-1
 33 0 l 1,1,-1
 436 1493 l 1,2,-1
 797 1493 l 1,3,-1
 1200 0 l 1,0,-1
845 260 m 1,4,-1
 616 1223 l 1,5,-1
 387 260 l 1,6,-1
 845 260 l 1,4,-1
EndSplineSet
EndChar

StartChar: Theta
Encoding: 920 920 195
Width: 1233
Flags: W
LayerCount: 2
Back
Fore
SplineSet
489 651 m 1,0,-1
 489 911 l 1,1,-1
 743 911 l 1,2,-1
 743 651 l 1,3,-1
 489 651 l 1,0,-1
616 1255 m 0,4,5
 503 1255 503 1255 451 1134.5 c 128,-1,6
 399 1014 399 1014 399 745 c 0,7,8
 399 477 399 477 451 356.5 c 128,-1,9
 503 236 503 236 616 236 c 0,10,11
 730 236 730 236 782 356.5 c 128,-1,12
 834 477 834 477 834 745 c 0,13,14
 834 1014 834 1014 782 1134.5 c 128,-1,15
 730 1255 730 1255 616 1255 c 0,4,5
92 745 m 0,16,17
 92 1128 92 1128 224.5 1324 c 128,-1,18
 357 1520 357 1520 616 1520 c 0,19,20
 876 1520 876 1520 1008.5 1324 c 128,-1,21
 1141 1128 1141 1128 1141 745 c 0,22,23
 1141 363 1141 363 1008.5 167 c 128,-1,24
 876 -29 876 -29 616 -29 c 0,25,26
 357 -29 357 -29 224.5 167 c 128,-1,27
 92 363 92 363 92 745 c 0,16,17
EndSplineSet
EndChar

StartChar: Lambda
Encoding: 923 923 198
Width: 1233
Flags: W
LayerCount: 2
Back
Fore
SplineSet
328 0 m 1,0,-1
 33 0 l 1,1,-1
 436 1493 l 1,2,-1
 797 1493 l 1,3,-1
 1200 0 l 1,4,-1
 905 0 l 1,5,-1
 616 1223 l 1,6,-1
 328 0 l 1,0,-1
EndSplineSet
EndChar

StartChar: Sigma
Encoding: 931 931 204
Width: 1233
Flags: W
LayerCount: 2
Back
Fore
SplineSet
98 1234 m 1,0,-1
 98 1493 l 1,1,-1
 1144 1493 l 1,2,-1
 1144 1233 l 1,3,-1
 438 1233 l 1,4,-1
 840 747 l 1,5,-1
 438 260 l 1,6,-1
 1144 260 l 1,7,-1
 1144 0 l 1,8,-1
 98 0 l 1,9,-1
 98 260 l 1,10,-1
 499 747 l 1,11,-1
 98 1234 l 1,0,-1
EndSplineSet
EndChar

StartChar: Phi
Encoding: 934 934 207
Width: 1233
Flags: W
LayerCount: 2
Back
Fore
SplineSet
764 526 m 1,0,1
 785 538 785 538 799 553 c 0,2,3
 880 638 880 638 880 745 c 0,4,5
 880 875 880 875 799 938 c 0,6,7
 781 951 781 951 764 965 c 1,8,-1
 764 526 l 1,0,1
764 1233 m 1,9,-1
 764 1161 l 1,10,11
 917 1138 917 1138 1008 1064 c 0,12,13
 1141 956 1141 956 1141 745 c 0,14,15
 1141 535 1141 535 1008 427 c 0,16,17
 916 352 916 352 764 330 c 1,18,-1
 764 260 l 1,19,-1
 883 260 l 1,20,-1
 883 0 l 1,21,-1
 350 0 l 1,22,-1
 350 260 l 1,23,-1
 469 260 l 1,24,-1
 469 330 l 1,25,26
 317 352 317 352 224 427 c 0,27,28
 92 535 92 535 92 745 c 0,29,30
 92 956 92 956 224 1064 c 0,31,32
 316 1138 316 1138 469 1161 c 1,33,-1
 469 1233 l 1,34,-1
 350 1233 l 1,35,-1
 350 1493 l 1,36,-1
 883 1493 l 1,37,-1
 883 1233 l 1,38,-1
 764 1233 l 1,9,-1
469 526 m 1,39,-1
 469 965 l 1,40,-1
 434 938 l 2,41,42
 353 875 353 875 353 745 c 0,43,44
 353 638 353 638 434 553 c 0,45,46
 448 538 448 538 469 526 c 1,39,-1
EndSplineSet
EndChar

StartChar: Psi
Encoding: 936 936 209
Width: 1233
Flags: W
LayerCount: 2
Back
Fore
SplineSet
764 260 m 1,0,-1
 883 260 l 1,1,-1
 883 0 l 1,2,-1
 350 0 l 1,3,-1
 350 260 l 1,4,-1
 469 260 l 1,5,-1
 469 392 l 1,6,7
 322 435 322 435 224 568 c 0,8,9
 80 764 80 764 80 1146 c 2,10,-1
 80 1493 l 1,11,-1
 375 1493 l 1,12,-1
 375 1146 l 2,13,14
 375 896 375 896 439 758 c 0,15,16
 455 723 455 723 469 705 c 1,17,-1
 469 1493 l 1,18,-1
 764 1493 l 1,19,-1
 764 705 l 1,20,21
 778 723 778 723 794 758 c 0,22,23
 858 896 858 896 858 1146 c 2,24,-1
 858 1493 l 1,25,-1
 1153 1493 l 1,26,-1
 1153 1146 l 2,27,28
 1153 764 1153 764 1008 568 c 0,29,30
 911 435 911 435 764 392 c 1,31,-1
 764 260 l 1,0,-1
EndSplineSet
EndChar

StartChar: Omega
Encoding: 937 937 210
Width: 1233
Flags: W
LayerCount: 2
Back
Fore
SplineSet
90 211 m 1,0,-1
 328 211 l 1,1,2
 208 320 208 320 154 455.5 c 128,-1,3
 100 591 100 591 100 782 c 0,4,5
 100 1094 100 1094 239.5 1277 c 128,-1,6
 379 1460 379 1460 614 1460 c 0,7,8
 851 1460 851 1460 992 1277 c 128,-1,9
 1133 1094 1133 1094 1133 782 c 0,10,11
 1133 591 1133 591 1079 455.5 c 128,-1,12
 1025 320 1025 320 905 211 c 1,13,-1
 1143 211 l 1,14,-1
 1143 0 l 1,15,-1
 672 0 l 1,16,-1
 672 268 l 1,17,18
 753 347 753 347 792 464 c 128,-1,19
 831 581 831 581 831 748 c 0,20,21
 831 962 831 962 775 1078 c 128,-1,22
 719 1194 719 1194 616 1194 c 0,23,24
 514 1194 514 1194 457.5 1078 c 128,-1,25
 401 962 401 962 401 748 c 0,26,27
 401 582 401 582 441 463.5 c 128,-1,28
 481 345 481 345 563 268 c 1,29,-1
 563 0 l 1,30,-1
 90 0 l 1,31,-1
 90 211 l 1,0,-1
EndSplineSet
EndChar

StartChar: alpha
Encoding: 945 945 211
Width: 1233
Flags: W
LayerCount: 2
Back
Fore
SplineSet
869 1120 m 1,0,-1
 1151 1120 l 1,1,-1
 958 543 l 1,2,-1
 985 390 l 2,3,4
 1014 225 1014 225 1082 225 c 2,5,-1
 1164 225 l 1,6,-1
 1164 0 l 1,7,-1
 1062 0 l 2,8,9
 903 0 903 0 822 84 c 0,10,11
 804 103 804 103 799 113 c 1,12,13
 751 52 751 52 708 16 c 0,14,15
 656 -27 656 -27 453 -25 c 0,16,17
 272 -23 272 -23 166 123 c 0,18,19
 54 279 54 279 54 555 c 0,20,21
 54 868 54 868 167 988 c 0,22,23
 311 1142 311 1142 500 1145 c 0,24,25
 731 1149 731 1149 833 1012 c 1,26,-1
 869 1120 l 1,0,-1
665 752 m 2,27,28
 637 904 637 904 505 905 c 0,29,30
 440 905 440 905 381 814 c 0,31,32
 323 723 323 723 323 555 c 0,33,34
 323 381 323 381 381 299 c 0,35,36
 435 222 435 222 506 221 c 0,37,38
 575 219 575 219 596 285 c 2,39,-1
 695 589 l 1,40,-1
 665 752 l 2,27,28
EndSplineSet
EndChar

StartChar: beta
Encoding: 946 946 212
Width: 1233
Flags: W
LayerCount: 2
Back
Fore
SplineSet
422 69 m 1,0,-1
 422 -426 l 1,1,-1
 131 -426 l 1,2,-1
 132 1113 l 2,3,4
 132 1569 132 1569 566 1569 c 0,5,6
 965 1569 965 1569 1034 1186 c 0,7,8
 1078 940 1078 940 911 810 c 1,9,10
 1135 737 1135 737 1135 453 c 0,11,12
 1135 -3 1135 -3 737 -21 c 0,13,14
 551 -30 551 -30 422 69 c 1,0,-1
422 402 m 1,15,16
 520 252 520 252 618 240 c 0,17,18
 834 215 834 215 834 450 c 0,19,20
 834 670 834 670 554 657 c 1,21,-1
 554 880 l 1,22,23
 740 874 740 874 746 1139 c 0,24,25
 749 1328 749 1328 566 1332 c 0,26,27
 422 1334 422 1334 422 1107 c 2,28,-1
 422 402 l 1,15,16
EndSplineSet
EndChar

StartChar: gamma
Encoding: 947 947 213
Width: 1233
Flags: W
LayerCount: 2
Back
Fore
SplineSet
494 808 m 2,0,-1
 613 414 l 1,1,-1
 856 1120 l 1,2,-1
 1153 1120 l 1,3,-1
 751 0 l 1,4,-1
 751 -426 l 1,5,-1
 459 -426 l 1,6,-1
 459 0 l 1,7,-1
 226 752 l 2,8,9
 203 824 203 824 161 856 c 0,10,11
 123 885 123 885 98 885 c 2,12,-1
 56 885 l 1,13,-1
 56 1120 l 1,14,-1
 136 1120 l 2,15,16
 246 1120 246 1120 339 1046 c 0,17,18
 450 957 450 957 494 808 c 2,0,-1
EndSplineSet
EndChar

StartChar: delta
Encoding: 948 948 214
Width: 1233
Flags: W
LayerCount: 2
Back
Fore
SplineSet
327 1065 m 1,0,1
 182 1128 182 1128 182 1279 c 0,2,3
 182 1414 182 1414 308 1492 c 0,4,5
 433 1569 433 1569 657 1569 c 0,6,7
 756 1569 756 1569 840 1557 c 0,8,9
 845 1556 845 1556 850 1555 c 0,10,11
 881 1551 881 1551 1002 1521 c 1,12,-1
 1002 1306 l 1,13,14
 990 1310 990 1310 977 1314 c 0,15,16
 881 1345 881 1345 843 1352 c 0,17,18
 753 1367 753 1367 672 1367 c 0,19,20
 568 1367 568 1367 510 1333 c 1,21,-1
 488 1318 l 2,22,23
 453 1293 453 1293 453 1249 c 0,24,25
 453 1147 453 1147 616 1147 c 0,26,27
 854 1147 854 1147 994.5 988.5 c 128,-1,28
 1135 830 1135 830 1135 559 c 128,-1,29
 1135 288 1135 288 994.5 129.5 c 128,-1,30
 854 -29 854 -29 616 -29 c 0,31,32
 379 -29 379 -29 238.5 129.5 c 128,-1,33
 98 288 98 288 98 559 c 0,34,35
 98 822 98 822 238 988 c 0,36,37
 301 1063 301 1063 327 1065 c 1,0,1
616 909 m 0,38,39
 511 909 511 909 451 816.5 c 128,-1,40
 391 724 391 724 391 559 c 128,-1,41
 391 394 391 394 451 301.5 c 128,-1,42
 511 209 511 209 616 209 c 0,43,44
 722 209 722 209 782 301.5 c 128,-1,45
 842 394 842 394 842 559 c 128,-1,46
 842 724 842 724 782 816.5 c 128,-1,47
 722 909 722 909 616 909 c 0,38,39
EndSplineSet
EndChar

StartChar: epsilon
Encoding: 949 949 215
Width: 1233
Flags: W
LayerCount: 2
Back
Fore
SplineSet
149 312 m 4,0,1
 149 433 149 433 229 508 c 132,-1,2
 309 583 309 583 461 604 c 5,3,4
 326 623 326 623 254 686.5 c 132,-1,5
 182 750 182 750 182 850 c 4,6,7
 182 985 182 985 307.5 1062.5 c 132,-1,8
 433 1140 433 1140 657 1140 c 4,9,10
 763 1140 763 1140 822 1131 c 132,-1,11
 881 1122 881 1122 1002 1092 c 5,12,-1
 1002 877 l 5,13,14
 897 911 897 911 822.5 924.5 c 132,-1,15
 748 938 748 938 689 938 c 4,16,17
 571 938 571 938 512 905 c 132,-1,18
 453 872 453 872 453 818 c 4,19,20
 453 774 453 774 510.5 742 c 132,-1,21
 568 710 568 710 672 710 c 6,22,-1
 823 710 l 5,23,-1
 823 487 l 5,24,-1
 672 487 l 6,25,26
 551 487 551 487 484.5 439.5 c 132,-1,27
 418 392 418 392 418 326 c 4,28,29
 418 265 418 265 485 223 c 132,-1,30
 552 181 552 181 686 181 c 4,31,32
 786 181 786 181 856.5 193.5 c 132,-1,33
 927 206 927 206 1045 253 c 5,34,-1
 1045 34 l 5,35,36
 911 -2 911 -2 829.5 -12 c 132,-1,37
 748 -22 748 -22 638 -22 c 4,38,39
 414 -22 414 -22 281.5 64 c 132,-1,40
 149 150 149 150 149 312 c 4,0,1
EndSplineSet
EndChar

StartChar: zeta
Encoding: 950 950 216
Width: 1233
Flags: W
LayerCount: 2
Back
Fore
SplineSet
435 534 m 0,0,1
 435 237 435 237 742 225 c 0,2,3
 882 219 882 219 966 142 c 0,4,5
 1059 54 1059 54 1059 -104 c 0,6,7
 1059 -251 1059 -251 968 -342 c 0,8,9
 884 -426 884 -426 742 -426 c 1,10,-1
 742 -201 l 1,11,12
 812 -201 812 -201 835 -172 c 0,13,14
 860 -142 860 -142 860 -104 c 128,-1,15
 860 -66 860 -66 834 -38 c 0,16,17
 801 0 801 0 742 0 c 0,18,19
 144 0 144 0 143 534 c 0,20,21
 142 1007 142 1007 640 1331 c 1,22,-1
 169 1331 l 1,23,-1
 169 1556 l 1,24,-1
 1045 1556 l 1,25,-1
 1045 1331 l 1,26,27
 435 953 435 953 435 534 c 0,0,1
EndSplineSet
EndChar

StartChar: eta
Encoding: 951 951 217
Width: 1233
Flags: W
LayerCount: 2
Back
Fore
SplineSet
1071 727 m 2,0,-1
 1071 -426 l 1,1,-1
 780 -426 l 1,2,-1
 780 682 l 2,3,4
 780 804 780 804 745.5 856.5 c 128,-1,5
 711 909 711 909 633 909 c 0,6,7
 554 909 554 909 508.5 838 c 128,-1,8
 463 767 463 767 463 641 c 2,9,-1
 463 0 l 1,10,-1
 172 0 l 1,11,-1
 172 1120 l 1,12,-1
 463 1120 l 1,13,-1
 463 952 l 1,14,15
 494 1045 494 1045 569 1096 c 128,-1,16
 644 1147 644 1147 750 1147 c 0,17,18
 909 1147 909 1147 990 1041.5 c 128,-1,19
 1071 936 1071 936 1071 727 c 2,0,-1
EndSplineSet
EndChar

StartChar: theta
Encoding: 952 952 218
Width: 1233
Flags: W
LayerCount: 2
Back
Fore
SplineSet
839 887 m 1,0,1
 827 1081 827 1081 782 1193 c 0,2,3
 722 1343 722 1343 616 1343 c 128,-1,4
 510 1343 510 1343 450 1193 c 0,5,6
 405 1081 405 1081 393 887 c 1,7,-1
 839 887 l 1,0,1
393 662 m 1,8,9
 405 477 405 477 450 359 c 0,10,11
 507 209 507 209 616 209 c 128,-1,12
 725 209 725 209 782 359 c 0,13,14
 827 477 827 477 839 662 c 1,15,-1
 393 662 l 1,8,9
616 -24 m 128,-1,17
 378 -24 378 -24 237.5 191.5 c 128,-1,18
 97 407 97 407 97 775.5 c 128,-1,19
 97 1144 97 1144 237.5 1359.5 c 128,-1,20
 378 1575 378 1575 616 1575 c 128,-1,21
 854 1575 854 1575 994.5 1359.5 c 128,-1,22
 1135 1144 1135 1144 1135 775.5 c 128,-1,23
 1135 407 1135 407 994.5 191.5 c 128,-1,16
 854 -24 854 -24 616 -24 c 128,-1,17
EndSplineSet
EndChar

StartChar: iota
Encoding: 953 953 219
Width: 1233
Flags: W
LayerCount: 2
Back
Fore
SplineSet
763 1120 m 1,0,-1
 763 365 l 2,1,2
 763 291 763 291 800 258 c 256,3,4
 837 225 837 225 921 225 c 2,5,-1
 979 225 l 1,6,-1
 979 0 l 1,7,-1
 901 0 l 2,8,9
 649 0 649 0 559 80 c 0,10,11
 471 158 471 158 471 379 c 2,12,-1
 471 895 l 1,13,-1
 270 895 l 1,14,-1
 270 1120 l 1,15,-1
 763 1120 l 1,0,-1
EndSplineSet
EndChar

StartChar: kappa
Encoding: 954 954 220
Width: 1233
Flags: W
LayerCount: 2
Back
Fore
SplineSet
174 1120 m 5,0,-1
 467 1120 l 5,1,-1
 467 739 l 5,2,-1
 819 1120 l 5,3,-1
 1174 1120 l 5,4,-1
 750 702 l 5,5,-1
 1198 0 l 5,6,-1
 874 0 l 5,7,-1
 567 524 l 5,8,-1
 467 428 l 5,9,-1
 467 0 l 5,10,-1
 174 0 l 5,11,-1
 174 1120 l 5,0,-1
EndSplineSet
EndChar

StartChar: lambda
Encoding: 955 955 221
Width: 1233
Flags: W
LayerCount: 2
Back
Fore
SplineSet
738 1220 m 2,0,-1
 1153 0 l 1,1,-1
 856 0 l 1,2,-1
 632 655 l 1,3,-1
 377 0 l 1,4,-1
 80 0 l 1,5,-1
 491 1069 l 1,6,-1
 450 1188 l 2,7,8
 425 1262 425 1262 386 1292 c 0,9,10
 347 1321 347 1321 253 1321 c 2,11,-1
 141 1321 l 1,12,-1
 141 1556 l 1,13,-1
 291 1556 l 2,14,15
 473 1556 473 1556 568 1482 c 0,16,17
 679 1394 679 1394 738 1220 c 2,0,-1
EndSplineSet
EndChar

StartChar: uni03BC
Encoding: 956 956 222
Width: 1233
Flags: W
LayerCount: 2
Back
Fore
SplineSet
174 -428 m 5,0,-1
 174 1120 l 5,1,-1
 461 1120 l 5,2,-1
 461 440 l 6,3,4
 461 326 461 326 502 268.5 c 132,-1,5
 543 211 543 211 625 211 c 4,6,7
 706 211 706 211 746 268 c 132,-1,8
 786 325 786 325 786 440 c 6,9,-1
 786 1120 l 5,10,-1
 1075 1120 l 5,11,-1
 1075 344 l 6,12,13
 1075 273 1075 273 1088.5 242 c 132,-1,14
 1102 211 1102 211 1133 211 c 4,15,16
 1147 211 1147 211 1160 216.5 c 132,-1,17
 1173 222 1173 222 1188 233 c 5,18,-1
 1188 16 l 5,19,20
 1145 -7 1145 -7 1108 -18 c 132,-1,21
 1071 -29 1071 -29 1036 -29 c 4,22,23
 964 -29 964 -29 918.5 8.5 c 132,-1,24
 873 46 873 46 846 129 c 5,25,26
 809 51 809 51 754 11 c 132,-1,27
 699 -29 699 -29 629 -29 c 4,28,29
 570 -29 570 -29 528.5 -5.5 c 132,-1,30
 487 18 487 18 461 66 c 5,31,-1
 463 -428 l 5,32,-1
 174 -428 l 5,0,-1
EndSplineSet
EndChar

StartChar: nu
Encoding: 957 957 223
Width: 1233
Flags: W
LayerCount: 2
Back
Fore
SplineSet
576 295 m 1,0,1
 700 424 700 424 756 514 c 0,2,3
 833 638 833 638 836 755 c 0,4,5
 837 807 837 807 814 871 c 0,6,7
 760 1022 760 1022 680 1120 c 1,8,-1
 987 1120 l 1,9,-1
 987 1120 l 1,10,11
 1056 1031 1056 1031 1102 907 c 0,12,13
 1144 793 1144 793 1144 715 c 0,14,15
 1144 519 1144 519 1008 344 c 0,16,17
 831 116 831 116 708 0 c 1,18,-1
 352 0 l 1,19,-1
 47 1120 l 1,20,-1
 353 1120 l 1,21,-1
 576 295 l 1,0,1
EndSplineSet
EndChar

StartChar: xi
Encoding: 958 958 224
Width: 1233
Flags: W
LayerCount: 2
Back
Fore
SplineSet
742 0 m 0,0,1
 143 0 143 0 143 410 c 0,2,3
 143 714 143 714 514 779 c 1,4,5
 196 821 196 821 196 1092 c 0,6,7
 196 1249 196 1249 416 1331 c 1,8,-1
 169 1331 l 1,9,-1
 169 1556 l 1,10,-1
 1045 1556 l 1,11,-1
 1045 1331 l 1,12,13
 488 1331 488 1331 488 1080 c 0,14,15
 488 891 488 891 944 880 c 1,16,-1
 944 657 l 1,17,18
 435 648 435 648 435 410 c 0,19,20
 435 239 435 239 742 225 c 0,21,22
 883 218 883 218 966 142 c 0,23,24
 1059 54 1059 54 1059 -104 c 0,25,26
 1059 -251 1059 -251 968 -342 c 0,27,28
 884 -426 884 -426 742 -426 c 1,29,-1
 742 -201 l 1,30,31
 812 -201 812 -201 835 -172 c 0,32,33
 860 -142 860 -142 860 -104 c 128,-1,34
 860 -66 860 -66 834 -38 c 0,35,36
 801 0 801 0 742 0 c 0,0,1
EndSplineSet
EndChar

StartChar: pi
Encoding: 960 960 226
Width: 1233
Flags: W
LayerCount: 2
Back
Fore
SplineSet
1182 1120 m 1,0,-1
 1182 895 l 1,1,-1
 1020 895 l 1,2,-1
 1020 362 l 2,3,4
 1020 233 1020 233 1044.5 201.5 c 128,-1,5
 1069 170 1069 170 1139 170 c 0,6,7
 1164 170 1164 170 1181 171 c 128,-1,8
 1198 172 1198 172 1214 174 c 1,9,-1
 1214 -14 l 1,10,11
 1170 -27 1170 -27 1120.5 -33 c 128,-1,12
 1071 -39 1071 -39 1016 -39 c 0,13,14
 937 -39 937 -39 880 -22 c 128,-1,15
 823 -5 823 -5 793 27 c 0,16,17
 762 59 762 59 748.5 102 c 128,-1,18
 735 145 735 145 735 233 c 2,19,-1
 735 268 l 1,20,-1
 735 895 l 1,21,-1
 461 895 l 1,22,-1
 461 0 l 1,23,-1
 176 0 l 1,24,-1
 176 895 l 1,25,-1
 14 895 l 1,26,-1
 14 1120 l 1,27,-1
 1182 1120 l 1,0,-1
EndSplineSet
EndChar

StartChar: rho
Encoding: 961 961 227
Width: 1233
Flags: W
LayerCount: 2
Back
Fore
SplineSet
649 1147 m 0,0,1
 931 1147 931 1147 1037 993 c 128,-1,2
 1143 839 1143 839 1143 559 c 0,3,4
 1143 275 1143 275 1035.5 123 c 128,-1,5
 928 -29 928 -29 729 -29 c 0,6,7
 639 -29 639 -29 567.5 17.5 c 128,-1,8
 496 64 496 64 442 158 c 1,9,-1
 442 -426 l 1,10,-1
 150 -426 l 1,11,-1
 150 552 l 2,12,13
 150 1147 150 1147 649 1147 c 0,0,1
850 561 m 128,-1,15
 850 723 850 723 796 815 c 128,-1,16
 742 907 742 907 647 907 c 128,-1,17
 552 907 552 907 497 815 c 128,-1,18
 442 723 442 723 442 561 c 128,-1,19
 442 399 442 399 497 307 c 128,-1,20
 552 215 552 215 647 215 c 128,-1,21
 742 215 742 215 796 307 c 128,-1,14
 850 399 850 399 850 561 c 128,-1,15
EndSplineSet
EndChar

StartChar: sigma1
Encoding: 962 962 228
Width: 1233
Flags: W
LayerCount: 2
Back
Fore
SplineSet
749 225 m 0,0,1
 890 218 890 218 972 142 c 0,2,3
 1066 54 1066 54 1066 -104 c 0,4,5
 1066 -251 1066 -251 974 -342 c 0,6,7
 891 -426 891 -426 749 -426 c 1,8,-1
 749 -201 l 1,9,10
 819 -201 819 -201 842 -172 c 0,11,12
 867 -142 867 -142 867 -104 c 128,-1,13
 867 -66 867 -66 842 -38 c 0,14,15
 808 0 808 0 749 0 c 0,16,17
 433 0 433 0 314 127 c 0,18,19
 168 283 168 283 168 559 c 0,20,21
 168 836 168 836 315 992.5 c 128,-1,22
 462 1149 462 1149 721 1149 c 0,23,24
 811 1149 811 1149 894.5 1128 c 128,-1,25
 978 1107 978 1107 1061 1063 c 1,26,-1
 1061 795 l 1,27,28
 997 850 997 850 920.5 879.5 c 128,-1,29
 844 909 844 909 762 909 c 0,30,31
 619 909 619 909 542 818 c 128,-1,32
 465 727 465 727 465 559 c 0,33,34
 465 390 465 390 542 303 c 0,35,36
 605 232 605 232 749 225 c 0,0,1
EndSplineSet
EndChar

StartChar: sigma
Encoding: 963 963 229
Width: 1233
Flags: W
LayerCount: 2
Back
Fore
SplineSet
956 895 m 1,0,1
 1135 767 1135 767 1135 559 c 0,2,3
 1135 288 1135 288 994.5 129.5 c 128,-1,4
 854 -29 854 -29 616 -29 c 0,5,6
 379 -29 379 -29 238.5 129.5 c 128,-1,7
 98 288 98 288 98 559 c 0,8,9
 98 812 98 812 238 978 c 0,10,11
 360 1120 360 1120 616 1120 c 2,12,-1
 1168 1120 l 1,13,-1
 1168 895 l 1,14,-1
 956 895 l 1,0,1
554 887 m 1,15,16
 487 868 487 868 451 812 c 0,17,18
 391 720 391 720 391 559 c 0,19,20
 391 394 391 394 451 301.5 c 128,-1,21
 511 209 511 209 616 209 c 0,22,23
 723 209 723 209 782 302 c 0,24,25
 842 396 842 396 842 559 c 0,26,27
 842 714 842 714 661 828 c 0,28,29
 599 867 599 867 554 887 c 1,15,16
EndSplineSet
EndChar

StartChar: tau
Encoding: 964 964 230
Width: 1233
Flags: W
LayerCount: 2
Back
Fore
SplineSet
136 1120 m 1,0,-1
 1098 1120 l 1,1,-1
 1098 895 l 1,2,-1
 763 895 l 1,3,-1
 763 365 l 2,4,5
 763 290 763 290 800 258 c 0,6,7
 837 225 837 225 921 225 c 2,8,-1
 979 225 l 1,9,-1
 979 0 l 1,10,-1
 901 0 l 2,11,12
 649 0 649 0 559 80 c 0,13,14
 471 158 471 158 471 379 c 2,15,-1
 471 895 l 1,16,-1
 136 895 l 1,17,-1
 136 1120 l 1,0,-1
EndSplineSet
EndChar

StartChar: upsilon
Encoding: 965 965 231
Width: 1233
Flags: W
LayerCount: 2
Back
Fore
SplineSet
671 0 m 0,0,1
 419 0 419 0 329 80 c 0,2,3
 241 158 241 158 241 379 c 2,4,-1
 241 895 l 1,5,-1
 76 895 l 1,6,-1
 76 1120 l 1,7,-1
 533 1120 l 1,8,-1
 533 365 l 2,9,10
 533 291 533 291 570 258 c 256,11,12
 607 225 607 225 664 225 c 0,13,14
 767 225 767 225 829 368 c 0,15,16
 853 423 853 423 865 640 c 0,17,18
 871 743 871 743 839 909 c 0,19,20
 813 1044 813 1044 737 1120 c 1,21,-1
 1028 1120 l 1,22,-1
 1028 1120 l 1,23,24
 1083 1049 1083 1049 1121 907 c 0,25,26
 1157 772 1157 772 1157 638 c 0,27,28
 1157 342 1157 342 1029 173 c 0,29,30
 899 0 899 0 671 0 c 0,0,1
EndSplineSet
EndChar

StartChar: phi
Encoding: 966 966 232
Width: 1233
Flags: W
LayerCount: 2
Back
Fore
SplineSet
806 1130 m 0,0,1
 958 1130 958 1130 1054 1007 c 0,2,3
 1168 858 1168 858 1168 559 c 0,4,5
 1168 52 1168 52 763 0 c 1,6,-1
 763 -426 l 1,7,-1
 471 -426 l 1,8,-1
 471 0 l 1,9,10
 65 64 65 64 65 559 c 0,11,12
 65 881 65 881 180 996 c 0,13,14
 311 1125 311 1125 440 1120 c 1,15,-1
 440 891 l 1,16,17
 417 889 417 889 374 806 c 0,18,19
 332 720 332 720 332 595 c 0,20,21
 332 356 332 356 471 256 c 1,22,-1
 471 648 l 2,23,24
 471 1130 471 1130 806 1130 c 0,0,1
817 864 m 0,25,26
 763 858 763 858 763 648 c 2,27,-1
 763 256 l 1,28,29
 897 353 897 353 902 595 c 0,30,31
 905 729 905 729 878 806 c 0,32,33
 855 868 855 868 817 864 c 0,25,26
EndSplineSet
EndChar

StartChar: chi
Encoding: 967 967 233
Width: 1233
Flags: W
LayerCount: 2
Back
Fore
SplineSet
678 -114 m 2,0,-1
 611 32 l 1,1,-1
 387 -426 l 1,2,-1
 90 -426 l 1,3,-1
 468 348 l 1,4,-1
 286 752 l 2,5,6
 251 828 251 828 214 856 c 0,7,8
 176 885 176 885 151 885 c 2,9,-1
 72 885 l 1,10,-1
 72 1120 l 1,11,-1
 189 1120 l 2,12,13
 289 1120 289 1120 392 1046 c 0,14,15
 474 986 474 986 554 808 c 2,16,-1
 621 660 l 1,17,-1
 846 1120 l 1,18,-1
 1143 1120 l 1,19,-1
 764 345 l 1,20,-1
 946 -58 l 2,21,22
 981 -134 981 -134 1018 -162 c 0,23,24
 1056 -191 1056 -191 1081 -191 c 2,25,-1
 1161 -191 l 1,26,-1
 1161 -426 l 1,27,-1
 1043 -426 l 2,28,29
 940 -426 940 -426 840 -352 c 0,30,31
 757 -290 757 -290 678 -114 c 2,0,-1
EndSplineSet
EndChar

StartChar: psi
Encoding: 968 968 234
Width: 1233
Flags: W
LayerCount: 2
Back
Fore
SplineSet
763 225 m 1,0,1
 873 325 873 325 873 595 c 2,2,-1
 873 1120 l 1,3,-1
 1165 1120 l 1,4,-1
 1165 588 l 2,5,6
 1165 51 1165 51 763 0 c 1,7,-1
 763 -426 l 1,8,-1
 471 -426 l 1,9,-1
 471 0 l 1,10,11
 69 64 69 64 69 588 c 2,12,-1
 69 1120 l 1,13,-1
 361 1120 l 1,14,-1
 361 595 l 2,15,16
 361 304 361 304 471 225 c 1,17,-1
 471 1120 l 1,18,-1
 763 1120 l 1,19,-1
 763 225 l 1,0,1
EndSplineSet
EndChar

StartChar: omega
Encoding: 969 969 235
Width: 1233
Flags: W
LayerCount: 2
Back
Fore
SplineSet
743 665 m 1,0,1
 746 209 746 209 818 209 c 0,2,3
 849 210 849 210 862 237 c 0,4,5
 888 291 888 291 888 556.5 c 128,-1,6
 888 822 888 822 801 1120 c 1,7,-1
 1063 1120 l 1,8,9
 1171 868 1171 868 1169.5 517.5 c 128,-1,10
 1168 167 1168 167 1054 54 c 0,11,12
 969 -29 969 -29 841 -29 c 0,13,14
 666 -29 666 -29 617 150 c 1,15,16
 568 -29 568 -29 393 -29 c 0,17,18
 265 -29 265 -29 180 54 c 0,19,20
 65 167 65 167 64 517.5 c 128,-1,21
 63 868 63 868 171 1120 c 1,22,-1
 433 1120 l 1,23,24
 346 822 346 822 346 556.5 c 128,-1,25
 346 291 346 291 372 237 c 0,26,27
 385 210 385 210 416 209 c 0,28,29
 488 209 488 209 491 665 c 1,30,-1
 743 665 l 1,0,1
EndSplineSet
EndChar

StartChar: uni03DD
Encoding: 989 989 236
Width: 1233
Flags: W
LayerCount: 2
Back
Fore
SplineSet
377 1178 m 2,0,1
 377 1335 377 1335 502 1457 c 0,2,3
 604 1556 604 1556 779 1556 c 0,4,5
 839 1556 839 1556 895 1543.5 c 128,-1,6
 951 1531 951 1531 1006 1505 c 1,7,-1
 1006 1274 l 1,8,9
 965 1299 965 1299 924 1312 c 128,-1,10
 883 1325 883 1325 846 1325 c 0,11,12
 752 1325 752 1325 700 1265 c 1,13,14
 631 1206 631 1206 631 1075 c 2,15,-1
 631 885 l 1,16,-1
 920 885 l 1,17,-1
 920 666 l 1,18,-1
 631 666 l 1,19,-1
 631 -47 l 1,20,21
 606 -228 606 -228 505 -327 c 128,-1,22
 404 -426 404 -426 244 -426 c 0,23,24
 182 -426 182 -426 124.5 -413.5 c 128,-1,25
 67 -401 67 -401 12 -375 c 1,26,-1
 12 -141 l 1,27,28
 55 -168 55 -168 95 -181.5 c 128,-1,29
 135 -195 135 -195 174 -195 c 0,30,31
 255 -195 255 -195 308 -134 c 0,32,33
 377 -54 377 -54 377 55 c 2,34,-1
 377 1178 l 2,0,1
EndSplineSet
EndChar

StartChar: uni03FF
Encoding: 1023 1023 238
Width: 1233
Flags: W
LayerCount: 2
Back
Fore
SplineSet
152 43 m 5
 152 43 152 43 152 371 c 5
 228 301 228 301 299.5 268.5 c 4
 371 236 371 236 447 236 c 4
 609 236 609 236 691.5 364.5 c 4
 774 493 774 493 774 745 c 4
 774 998 774 998 691.5 1126.5 c 4
 609 1255 609 1255 447 1255 c 4
 371 1255 371 1255 299.5 1222.5 c 4
 228 1190 228 1190 152 1120 c 5
 152 1448 l 5
 220 1484 220 1484 298 1502 c 4
 376 1520 376 1520 461 1520 c 4
 763 1520 763 1520 922 1321 c 4
 1081 1122 1081 1122 1081 745 c 4
 1081 369 1081 369 922 170 c 4
 763 -29 763 -29 461 -29 c 4
 376 -29 376 -29 299 -11 c 4
 222 7 222 7 152 43 c 5
EndSplineSet
Refer: 112 183 N 1 0 0 1 -186 0 2
EndChar

StartChar: uni0401
Encoding: 1025 1025 239
Width: 1233
Flags: W
LayerCount: 2
Back
Fore
SplineSet
727 1899 m 5
 963 1899 l 5
 963 1653 l 5
 727 1653 l 5
 727 1899 l 5
332 1899 m 5
 568 1899 l 5
 568 1653 l 5
 332 1653 l 5
 332 1899 l 5
EndSplineSet
Refer: 37 69 N 1 0 0 1 0 0 3
EndChar

StartChar: uni0411
Encoding: 1041 1041 241
Width: 1233
Flags: W
LayerCount: 2
Back
Fore
SplineSet
457 248 m 1,0,-1
 578 248 l 2,1,2
 723 248 723 248 781.5 297 c 128,-1,3
 840 346 840 346 840 467 c 256,4,5
 840 588 840 588 781.5 637 c 128,-1,6
 723 686 723 686 578 686 c 2,7,-1
 457 686 l 1,8,-1
 457 248 l 1,0,-1
162 1493 m 1,9,-1
 1092 1493 l 1,10,-1
 1092 1233 l 1,11,-1
 457 1233 l 1,12,-1
 457 934 l 1,13,-1
 567 934 l 2,14,15
 876 934 876 934 1011.5 824 c 128,-1,16
 1147 714 1147 714 1147 467 c 256,17,18
 1147 220 1147 220 1011.5 110 c 128,-1,19
 876 0 876 0 567 0 c 2,20,-1
 162 0 l 1,21,-1
 162 1493 l 1,9,-1
EndSplineSet
EndChar

StartChar: uni0413
Encoding: 1043 1043 243
Width: 1233
Flags: W
LayerCount: 2
Back
Fore
SplineSet
477 1233 m 1,0,-1
 477 0 l 1,1,-1
 182 0 l 1,2,-1
 182 1493 l 1,3,-1
 1112 1493 l 1,4,-1
 1112 1233 l 1,5,-1
 477 1233 l 1,0,-1
EndSplineSet
EndChar

StartChar: uni0414
Encoding: 1044 1044 244
Width: 1233
Flags: W
LayerCount: 2
Back
Fore
SplineSet
502 1233 m 1,0,-1
 502 497 l 2,1,2
 502 356 502 356 472 260 c 1,3,-1
 760 260 l 1,4,-1
 760 1233 l 1,5,-1
 502 1233 l 1,0,-1
40 260 m 1,6,-1
 140 260 l 2,7,8
 165 260 165 260 186 302.5 c 128,-1,9
 207 345 207 345 207 394.5 c 128,-1,10
 207 444 207 444 207 497 c 2,11,-1
 207 1493 l 1,12,-1
 1055 1493 l 1,13,-1
 1055 260 l 1,14,-1
 1192 260 l 1,15,-1
 1192 -322 l 1,16,-1
 937 -322 l 1,17,-1
 937 0 l 1,18,-1
 295 0 l 1,19,-1
 295 -322 l 1,20,-1
 40 -322 l 1,21,-1
 40 260 l 1,6,-1
EndSplineSet
EndChar

StartChar: uni0416
Encoding: 1046 1046 246
Width: 1233
Flags: W
LayerCount: 2
Back
Fore
SplineSet
497 1493 m 1,0,-1
 737 1493 l 1,1,-1
 737 970 l 1,2,-1
 960 1493 l 1,3,-1
 1221 1493 l 1,4,-1
 963 886 l 1,5,-1
 1221 0 l 1,6,-1
 971 0 l 1,7,-1
 814 537 l 1,8,-1
 737 356 l 1,9,-1
 737 0 l 1,10,-1
 497 0 l 1,11,-1
 497 356 l 1,12,-1
 420 537 l 1,13,-1
 263 0 l 1,14,-1
 13 0 l 1,15,-1
 271 886 l 1,16,-1
 13 1493 l 1,17,-1
 274 1493 l 1,18,-1
 497 970 l 1,19,-1
 497 1493 l 1,0,-1
EndSplineSet
EndChar

StartChar: uni0418
Encoding: 1048 1048 248
Width: 1233
Flags: W
LayerCount: 2
Back
Fore
SplineSet
1112 1493 m 1,0,-1
 1112 0 l 1,1,-1
 852 0 l 1,2,-1
 852 1085 l 1,3,-1
 434 0 l 1,4,-1
 119 0 l 1,5,-1
 119 1493 l 1,6,-1
 379 1493 l 1,7,-1
 379 408 l 1,8,-1
 795 1493 l 1,9,-1
 1112 1493 l 1,0,-1
EndSplineSet
EndChar

StartChar: uni0419
Encoding: 1049 1049 249
Width: 1233
Flags: W
LayerCount: 2
Back
Fore
SplineSet
281 1899 m 5
 422 1899 l 5
 442 1839 442 1839 491 1808.5 c 4
 540 1778 540 1778 616 1778 c 4
 693 1778 693 1778 741 1808 c 4
 789 1838 789 1838 809 1899 c 5
 952 1899 l 5
 937 1770 937 1770 850.5 1702.5 c 4
 764 1635 764 1635 616 1635 c 4
 469 1635 469 1635 382.5 1702.5 c 4
 296 1770 296 1770 281 1899 c 5
EndSplineSet
Refer: 248 1048 N 1 0 0 1 0 0 3
EndChar

StartChar: uni041B
Encoding: 1051 1051 251
Width: 1233
Flags: W
LayerCount: 2
Back
Fore
SplineSet
521 1233 m 1,0,-1
 521 1057 l 2,1,2
 521 695 521 695 507 460.5 c 128,-1,3
 493 226 493 226 398 113 c 128,-1,4
 303 0 303 0 98 0 c 2,5,-1
 6 0 l 1,6,-1
 6 265 l 1,7,-1
 16 265 l 2,8,9
 111 265 111 265 160.5 313.5 c 128,-1,10
 210 362 210 362 213 473 c 0,11,12
 226 806 226 806 226 1065 c 2,13,-1
 226 1493 l 1,14,-1
 1096 1493 l 1,15,-1
 1096 0 l 1,16,-1
 801 0 l 1,17,-1
 801 1233 l 1,18,-1
 521 1233 l 1,0,-1
EndSplineSet
EndChar

StartChar: uni041F
Encoding: 1055 1055 255
Width: 1233
Flags: W
LayerCount: 2
Back
Fore
SplineSet
137 1493 m 1,0,-1
 1096 1493 l 1,1,-1
 1096 0 l 1,2,-1
 801 0 l 1,3,-1
 801 1233 l 1,4,-1
 432 1233 l 1,5,-1
 432 0 l 1,6,-1
 137 0 l 1,7,-1
 137 1493 l 1,0,-1
EndSplineSet
EndChar

StartChar: uni0423
Encoding: 1059 1059 259
Width: 1233
Flags: W
LayerCount: 2
Back
Fore
SplineSet
727 303 m 2,0,1
 665 149 665 149 583.5 74.5 c 128,-1,2
 502 0 502 0 385 0 c 2,3,-1
 185 0 l 1,4,-1
 185 260 l 1,5,-1
 265 260 l 2,6,7
 323 260 323 260 371.5 275 c 128,-1,8
 420 290 420 290 460 396 c 2,9,-1
 515 541 l 1,10,-1
 28 1493 l 1,11,-1
 333 1493 l 1,12,-1
 649 873 l 1,13,-1
 900 1493 l 1,14,-1
 1205 1493 l 1,15,-1
 727 303 l 2,0,1
EndSplineSet
EndChar

StartChar: uni0424
Encoding: 1060 1060 260
Width: 1233
Flags: W
LayerCount: 2
Back
Fore
SplineSet
494 0 m 1,0,-1
 494 132 l 1,1,2
 286 151 286 151 160.5 336.5 c 128,-1,3
 35 522 35 522 35 760 c 0,4,5
 35 1001 35 1001 160.5 1186.5 c 128,-1,6
 286 1372 286 1372 494 1391 c 1,7,-1
 494 1493 l 1,8,-1
 749 1493 l 1,9,-1
 749 1391 l 1,10,11
 956 1372 956 1372 1082 1186.5 c 128,-1,12
 1208 1001 1208 1001 1208 760 c 0,13,14
 1208 520 1208 520 1082 335.5 c 128,-1,15
 956 151 956 151 749 132 c 1,16,-1
 749 0 l 1,17,-1
 494 0 l 1,0,-1
494 1136 m 1,18,19
 379 1113 379 1113 334 1008 c 128,-1,20
 289 903 289 903 289 760 c 0,21,22
 289 633 289 633 331.5 522 c 128,-1,23
 374 411 374 411 494 387 c 1,24,-1
 494 1136 l 1,18,19
749 387 m 1,25,26
 864 410 864 410 909 514.5 c 128,-1,27
 954 619 954 619 954 760 c 0,28,29
 954 893 954 893 911 1002.5 c 128,-1,30
 868 1112 868 1112 749 1136 c 1,31,-1
 749 387 l 1,25,26
EndSplineSet
EndChar

StartChar: uni0426
Encoding: 1062 1062 262
Width: 1233
Flags: W
LayerCount: 2
Back
Fore
SplineSet
80 0 m 1,0,-1
 80 1493 l 1,1,-1
 375 1493 l 1,2,-1
 375 260 l 1,3,-1
 744 260 l 1,4,-1
 744 1493 l 1,5,-1
 1039 1493 l 1,6,-1
 1039 260 l 1,7,-1
 1176 260 l 1,8,-1
 1176 -322 l 1,9,-1
 883 -322 l 1,10,-1
 883 0 l 1,11,-1
 80 0 l 1,0,-1
EndSplineSet
EndChar

StartChar: uni0427
Encoding: 1063 1063 263
Width: 1233
Flags: W
LayerCount: 2
Back
Fore
SplineSet
1127 1556 m 1,0,-1
 1127 0 l 1,1,-1
 836 0 l 1,2,-1
 836 766 l 1,3,4
 799 680 799 680 714.5 643.5 c 128,-1,5
 630 607 630 607 470 607 c 0,6,7
 276 607 276 607 188.5 711.5 c 128,-1,8
 101 816 101 816 101 1027 c 2,9,-1
 101 1556 l 1,10,-1
 392 1556 l 1,11,-1
 392 1095 l 2,12,13
 392 956 392 956 454 913 c 128,-1,14
 516 870 516 870 587 870 c 0,15,16
 738 870 738 870 787 935.5 c 128,-1,17
 836 1001 836 1001 836 1136 c 2,18,-1
 836 1556 l 1,19,-1
 1127 1556 l 1,0,-1
EndSplineSet
EndChar

StartChar: uni0428
Encoding: 1064 1064 264
Width: 1233
Flags: W
LayerCount: 2
Back
Fore
SplineSet
1154 0 m 1,0,-1
 78 0 l 1,1,-1
 78 1494 l 1,2,-1
 318 1494 l 1,3,-1
 318 260 l 1,4,-1
 496 260 l 1,5,-1
 496 1493 l 1,6,-1
 736 1493 l 1,7,-1
 736 259 l 1,8,-1
 914 259 l 1,9,-1
 914 1493 l 1,10,-1
 1154 1493 l 1,11,-1
 1154 0 l 1,0,-1
EndSplineSet
EndChar

StartChar: uni0429
Encoding: 1065 1065 265
Width: 1233
Flags: W
LayerCount: 2
Back
Fore
SplineSet
980 0 m 1,0,-1
 78 0 l 1,1,-1
 78 1493 l 1,2,-1
 318 1493 l 1,3,-1
 318 261 l 1,4,-1
 496 261 l 1,5,-1
 496 1492 l 1,6,-1
 736 1492 l 1,7,-1
 736 260 l 1,8,-1
 914 260 l 1,9,-1
 914 1492 l 1,10,-1
 1154 1492 l 1,11,-1
 1154 260 l 1,12,-1
 1220 260 l 1,13,-1
 1220 -322 l 1,14,-1
 980 -322 l 1,15,-1
 980 0 l 1,0,-1
EndSplineSet
EndChar

StartChar: uni042A
Encoding: 1066 1066 266
Width: 1233
Flags: W
LayerCount: 2
Back
Fore
SplineSet
565 236 m 1,0,-1
 606 236 l 2,1,2
 760 236 760 236 818 284.5 c 128,-1,3
 876 333 876 333 876 451 c 0,4,5
 876 581 876 581 818 629.5 c 128,-1,6
 760 678 760 678 606 678 c 2,7,-1
 565 678 l 1,8,-1
 565 236 l 1,0,-1
270 0 m 1,9,-1
 270 1284 l 1,10,-1
 20 1284 l 1,11,-1
 20 1493 l 1,12,-1
 565 1493 l 1,13,-1
 565 913 l 1,14,-1
 595 913 l 2,15,16
 904 913 904 913 1039.5 803 c 128,-1,17
 1175 693 1175 693 1175 451 c 0,18,19
 1175 220 1175 220 1039.5 110 c 128,-1,20
 904 0 904 0 595 0 c 2,21,-1
 270 0 l 1,9,-1
EndSplineSet
EndChar

StartChar: uni042B
Encoding: 1067 1067 267
Width: 1233
Flags: W
LayerCount: 2
Back
Fore
SplineSet
295 236 m 1,0,-1
 316 236 l 2,1,2
 470 236 470 236 528 284.5 c 128,-1,3
 586 333 586 333 586 451 c 0,4,5
 586 581 586 581 528 629.5 c 128,-1,6
 470 678 470 678 316 678 c 2,7,-1
 295 678 l 1,8,-1
 295 236 l 1,0,-1
40 0 m 1,9,-1
 40 1493 l 1,10,-1
 295 1493 l 1,11,-1
 295 913 l 1,12,-1
 305 913 l 2,13,14
 570 913 570 913 705.5 803 c 128,-1,15
 841 693 841 693 841 451 c 0,16,17
 841 220 841 220 705.5 110 c 128,-1,18
 570 0 570 0 305 0 c 2,19,-1
 40 0 l 1,9,-1
938 0 m 1,20,-1
 938 1493 l 1,21,-1
 1193 1493 l 1,22,-1
 1193 0 l 1,23,-1
 938 0 l 1,20,-1
EndSplineSet
EndChar

StartChar: uni042C
Encoding: 1068 1068 268
Width: 1233
Flags: W
LayerCount: 2
Back
Fore
SplineSet
419 236 m 1,0,-1
 540 236 l 2,1,2
 694 236 694 236 752 284.5 c 128,-1,3
 810 333 810 333 810 451 c 0,4,5
 810 581 810 581 752 629.5 c 128,-1,6
 694 678 694 678 540 678 c 2,7,-1
 419 678 l 1,8,-1
 419 236 l 1,0,-1
124 0 m 1,9,-1
 124 1493 l 1,10,-1
 419 1493 l 1,11,-1
 419 913 l 1,12,-1
 529 913 l 2,13,14
 838 913 838 913 973.5 803 c 128,-1,15
 1109 693 1109 693 1109 451 c 0,16,17
 1109 220 1109 220 973.5 110 c 128,-1,18
 838 0 838 0 529 0 c 2,19,-1
 124 0 l 1,9,-1
EndSplineSet
EndChar

StartChar: uni042D
Encoding: 1069 1069 269
Width: 1233
Flags: W
LayerCount: 2
Back
Fore
SplineSet
767 875 m 1,0,1
 727 1255 727 1255 452 1255 c 0,2,3
 298 1255 298 1255 152 1120 c 1,4,-1
 152 1448 l 1,5,6
 287 1520 287 1520 461 1520 c 0,7,8
 763 1520 763 1520 922 1321 c 128,-1,9
 1081 1122 1081 1122 1081 746 c 128,-1,10
 1081 370 1081 370 922 170.5 c 128,-1,11
 763 -29 763 -29 461 -29 c 0,12,13
 293 -29 293 -29 152 43 c 1,14,-1
 152 371 l 1,15,16
 298 236 298 236 453 236 c 0,17,18
 727 236 727 236 767 615 c 1,19,-1
 225 615 l 1,20,-1
 225 875 l 1,21,-1
 767 875 l 1,0,1
EndSplineSet
EndChar

StartChar: uni042E
Encoding: 1070 1070 270
Width: 1233
Flags: W
LayerCount: 2
Back
Fore
SplineSet
818 1255 m 0,0,1
 760 1255 760 1255 733 1134 c 1,2,3
 691 981 691 981 691 745 c 0,4,5
 691 484 691 484 733 356 c 0,6,7
 774 236 774 236 818 236 c 0,8,9
 870 237 870 237 904 356 c 1,10,11
 944 476 944 476 946 745 c 0,12,13
 948 980 948 980 904 1134 c 0,14,15
 870 1255 870 1255 818 1255 c 0,0,1
0 0 m 1,16,-1
 0 1493 l 1,17,-1
 295 1493 l 1,18,-1
 295 911 l 1,19,-1
 410 911 l 1,20,21
 428 1120 428 1120 532 1324 c 0,22,23
 632 1520 632 1520 818 1520 c 0,24,25
 1040 1520 1040 1520 1127 1324 c 1,26,27
 1230 1106 1230 1106 1225 745 c 1,28,29
 1224 377 1224 377 1105 167 c 0,30,31
 994 -29 994 -29 818 -29 c 0,32,33
 632 -29 632 -29 531 167 c 1,34,35
 423 361 423 361 406 651 c 1,36,-1
 295 651 l 1,37,-1
 295 0 l 1,38,-1
 0 0 l 1,16,-1
EndSplineSet
EndChar

StartChar: uni042F
Encoding: 1071 1071 271
Width: 1233
Flags: W
LayerCount: 2
Back
Fore
SplineSet
450 1042 m 256,0,1
 450 933 450 933 508 885.5 c 128,-1,2
 566 838 566 838 676 838 c 2,3,-1
 865 838 l 1,4,-1
 865 1245 l 1,5,-1
 676 1245 l 2,6,7
 566 1245 566 1245 508 1198 c 128,-1,8
 450 1151 450 1151 450 1042 c 256,0,1
83 0 m 1,9,-1
 409 644 l 1,10,11
 334 679 334 679 239.5 780.5 c 128,-1,12
 145 882 145 882 145 1059 c 0,13,14
 145 1289 145 1289 277 1391 c 128,-1,15
 409 1493 409 1493 684 1493 c 2,16,-1
 1160 1493 l 1,17,-1
 1160 0 l 1,18,-1
 865 0 l 1,19,-1
 865 590 l 1,20,-1
 703 590 l 1,21,-1
 404 0 l 1,22,-1
 83 0 l 1,9,-1
EndSplineSet
EndChar

StartChar: uni0431
Encoding: 1073 1073 273
Width: 1233
Flags: W
LayerCount: 2
Back
Fore
SplineSet
929 1611 m 1,0,-1
 1039 1399 l 1,1,2
 1001 1385 1001 1385 953 1381 c 2,3,-1
 663 1357 l 2,4,5
 546 1347 546 1347 492 1312 c 0,6,7
 328 1201 328 1201 298 1045 c 1,8,9
 426 1147 426 1147 616 1147 c 0,10,11
 854 1147 854 1147 994.5 988.5 c 128,-1,12
 1135 830 1135 830 1135 559 c 256,13,14
 1135 288 1135 288 994.5 129.5 c 128,-1,15
 854 -29 854 -29 616 -29 c 0,16,17
 379 -29 379 -29 238.5 129.5 c 128,-1,18
 98 288 98 288 98 559 c 0,19,20
 98 611 98 611 97 621 c 2,21,-1
 80 788 l 2,22,23
 65 935 65 935 65 972 c 128,-1,24
 65 1009 65 1009 67 1024 c 0,25,26
 87 1173 87 1173 123 1246 c 0,27,28
 213 1428 213 1428 381 1516 c 0,29,30
 502 1580 502 1580 843 1593 c 0,31,32
 894 1595 894 1595 929 1611 c 1,0,-1
616 909 m 0,33,34
 511 909 511 909 451 816.5 c 128,-1,35
 391 724 391 724 391 559 c 256,36,37
 391 394 391 394 451 301.5 c 128,-1,38
 511 209 511 209 616 209 c 0,39,40
 722 209 722 209 782 301.5 c 128,-1,41
 842 394 842 394 842 559 c 256,42,43
 842 724 842 724 782 816.5 c 128,-1,44
 722 909 722 909 616 909 c 0,33,34
EndSplineSet
EndChar

StartChar: uni0432
Encoding: 1074 1074 274
Width: 1233
Flags: W
LayerCount: 2
Back
Fore
SplineSet
411 479 m 1,0,-1
 411 219 l 1,1,-1
 578 219 l 2,2,3
 703 219 703 219 762 249.5 c 128,-1,4
 821 280 821 280 821 350 c 256,5,6
 821 420 821 420 762 449.5 c 128,-1,7
 703 479 703 479 578 479 c 2,8,-1
 411 479 l 1,0,-1
411 901 m 1,9,-1
 411 698 l 1,10,-1
 567 698 l 2,11,12
 705 698 705 698 744 722 c 128,-1,13
 783 746 783 746 783 795 c 256,14,15
 783 844 783 844 744 872.5 c 128,-1,16
 705 901 705 901 567 901 c 2,17,-1
 411 901 l 1,9,-1
119 1120 m 1,18,-1
 587 1120 l 2,19,20
 839 1120 839 1120 952 1049.5 c 128,-1,21
 1065 979 1065 979 1065 818 c 0,22,23
 1065 735 1065 735 1023.5 681 c 128,-1,24
 982 627 982 627 904 599 c 1,25,26
 1004 572 1004 572 1059 499.5 c 128,-1,27
 1114 427 1114 427 1114 321 c 0,28,29
 1114 164 1114 164 997.5 82 c 128,-1,30
 881 0 881 0 636 0 c 2,31,-1
 119 0 l 1,32,-1
 119 1120 l 1,18,-1
EndSplineSet
EndChar

StartChar: uni0433
Encoding: 1075 1075 275
Width: 1233
Flags: W
LayerCount: 2
Back
Fore
SplineSet
513 901 m 1,0,-1
 513 0 l 1,1,-1
 222 0 l 1,2,-1
 222 1120 l 1,3,-1
 1021 1120 l 1,4,-1
 1021 901 l 1,5,-1
 513 901 l 1,0,-1
EndSplineSet
EndChar

StartChar: uni0434
Encoding: 1076 1076 276
Width: 1233
Flags: W
LayerCount: 2
Back
Fore
SplineSet
502 901 m 1,0,-1
 502 459 l 2,1,2
 502 313 502 313 471 219 c 1,3,-1
 767 219 l 1,4,-1
 767 901 l 1,5,-1
 502 901 l 1,0,-1
139 219 m 2,6,7
 158 219 158 219 184.5 261.5 c 128,-1,8
 211 304 211 304 211 435 c 2,9,-1
 211 1120 l 1,10,-1
 1058 1120 l 1,11,-1
 1058 219 l 1,12,-1
 1181 219 l 1,13,-1
 1181 -286 l 1,14,-1
 962 -286 l 1,15,-1
 962 0 l 1,16,-1
 282 0 l 1,17,-1
 282 -286 l 1,18,-1
 63 -286 l 1,19,-1
 63 219 l 1,20,-1
 139 219 l 2,6,7
EndSplineSet
EndChar

StartChar: uni0436
Encoding: 1078 1078 278
Width: 1233
Flags: W
LayerCount: 2
Back
Fore
SplineSet
497 1120 m 1,0,-1
 737 1120 l 1,1,-1
 737 777 l 1,2,-1
 939 1120 l 1,3,-1
 1216 1120 l 1,4,-1
 966 694 l 1,5,-1
 1220 0 l 1,6,-1
 965 0 l 1,7,-1
 809 427 l 1,8,-1
 737 305 l 1,9,-1
 737 0 l 1,10,-1
 497 0 l 1,11,-1
 497 305 l 1,12,-1
 425 427 l 1,13,-1
 269 0 l 1,14,-1
 14 0 l 1,15,-1
 268 694 l 1,16,-1
 18 1120 l 1,17,-1
 295 1120 l 1,18,-1
 497 777 l 1,19,-1
 497 1120 l 1,0,-1
EndSplineSet
EndChar

StartChar: uni0437
Encoding: 1079 1079 279
Width: 1233
Flags: W
LayerCount: 2
Back
Fore
SplineSet
857 573 m 1,0,1
 936 551 936 551 1007.5 476.5 c 128,-1,2
 1079 402 1079 402 1079 283 c 0,3,4
 1079 130 1079 130 921 54 c 128,-1,5
 763 -22 763 -22 541 -22 c 0,6,7
 426 -22 426 -22 348 -11 c 128,-1,8
 270 0 270 0 153 44 c 1,9,-1
 153 280 l 1,10,11
 252 231 252 231 331.5 216 c 128,-1,12
 411 201 411 201 534 201 c 0,13,14
 648 201 648 201 717 221 c 128,-1,15
 786 241 786 241 786 325 c 256,16,17
 786 409 786 409 706 435.5 c 128,-1,18
 626 462 626 462 556 462 c 2,19,-1
 393 462 l 1,20,-1
 393 681 l 1,21,-1
 530 681 l 2,22,23
 614 681 614 681 686.5 708 c 128,-1,24
 759 735 759 735 759 804 c 0,25,26
 759 928 759 928 502 928 c 0,27,28
 344 928 344 928 190 876 c 1,29,-1
 190 1099 l 1,30,31
 275 1122 275 1122 358 1134.5 c 128,-1,32
 441 1147 441 1147 606 1147 c 0,33,34
 762 1147 762 1147 902 1068 c 128,-1,35
 1042 989 1042 989 1042 836 c 0,36,37
 1042 711 1042 711 984.5 654.5 c 128,-1,38
 927 598 927 598 857 573 c 1,0,1
EndSplineSet
EndChar

StartChar: uni0438
Encoding: 1080 1080 280
Width: 1233
Flags: W
LayerCount: 2
Back
Fore
SplineSet
1091 1120 m 1,0,-1
 1091 0 l 1,1,-1
 800 0 l 1,2,-1
 800 715 l 1,3,-1
 443 0 l 1,4,-1
 152 0 l 1,5,-1
 152 1120 l 1,6,-1
 443 1120 l 1,7,-1
 443 405 l 1,8,-1
 800 1120 l 1,9,-1
 1091 1120 l 1,0,-1
EndSplineSet
EndChar

StartChar: uni0439
Encoding: 1081 1081 281
Width: 1233
Flags: W
LayerCount: 2
Back
Fore
SplineSet
281 1606 m 5
 422 1606 l 5
 433 1537 433 1537 483 1499.5 c 4
 533 1462 533 1462 616 1462 c 260
 699 1462 699 1462 748.5 1499 c 4
 798 1536 798 1536 809 1606 c 5
 952 1606 l 5
 946 1462 946 1462 859.5 1385.5 c 4
 773 1309 773 1309 616 1309 c 4
 460 1309 460 1309 373.5 1385.5 c 4
 287 1462 287 1462 281 1606 c 5
EndSplineSet
Refer: 280 1080 N 1 0 0 1 0 0 3
EndChar

StartChar: uni043A
Encoding: 1082 1082 282
Width: 1233
Flags: W
LayerCount: 2
Back
Fore
SplineSet
174 1120 m 5,0,-1
 467 1120 l 5,1,-1
 467 739 l 5,2,-1
 819 1120 l 5,3,-1
 1174 1120 l 5,4,-1
 750 702 l 5,5,-1
 1198 0 l 5,6,-1
 874 0 l 5,7,-1
 567 524 l 5,8,-1
 467 428 l 5,9,-1
 467 0 l 5,10,-1
 174 0 l 5,11,-1
 174 1120 l 5,0,-1
EndSplineSet
EndChar

StartChar: uni043B
Encoding: 1083 1083 283
Width: 1233
Flags: W
LayerCount: 2
Back
Fore
SplineSet
571 901 m 1,0,-1
 571 704 l 2,1,2
 571 624 571 624 561 467 c 0,3,4
 546 228 546 228 463.5 114 c 128,-1,5
 381 0 381 0 164 0 c 2,6,-1
 69 0 l 1,7,-1
 69 240 l 1,8,-1
 79 240 l 2,9,10
 179 240 179 240 219 276.5 c 128,-1,11
 259 313 259 313 269.5 439 c 128,-1,12
 280 565 280 565 280 700 c 2,13,-1
 280 1120 l 1,14,-1
 1129 1120 l 1,15,-1
 1129 0 l 1,16,-1
 838 0 l 1,17,-1
 838 901 l 1,18,-1
 571 901 l 1,0,-1
EndSplineSet
EndChar

StartChar: uni043C
Encoding: 1084 1084 284
Width: 1233
Flags: W
LayerCount: 2
Back
Fore
SplineSet
86 1120 m 1,0,-1
 438 1120 l 1,1,-1
 616 465 l 1,2,-1
 794 1120 l 1,3,-1
 1146 1120 l 1,4,-1
 1146 0 l 1,5,-1
 906 0 l 1,6,-1
 904 823 l 1,7,-1
 732 170 l 1,8,-1
 500 170 l 1,9,-1
 326 823 l 1,10,-1
 326 0 l 1,11,-1
 86 0 l 1,12,-1
 86 1120 l 1,0,-1
EndSplineSet
EndChar

StartChar: uni043D
Encoding: 1085 1085 285
Width: 1233
Flags: W
LayerCount: 2
Back
Fore
SplineSet
1071 1120 m 1,0,-1
 1071 0 l 1,1,-1
 780 0 l 1,2,-1
 780 520 l 1,3,-1
 463 520 l 1,4,-1
 463 0 l 1,5,-1
 172 0 l 1,6,-1
 172 1120 l 1,7,-1
 463 1120 l 1,8,-1
 463 739 l 1,9,-1
 780 739 l 1,10,-1
 780 1120 l 1,11,-1
 1071 1120 l 1,0,-1
EndSplineSet
EndChar

StartChar: uni043F
Encoding: 1087 1087 287
Width: 1233
Flags: W
LayerCount: 2
Back
Fore
SplineSet
1071 1120 m 1,0,-1
 1071 0 l 1,1,-1
 780 0 l 1,2,-1
 780 901 l 1,3,-1
 463 901 l 1,4,-1
 463 0 l 1,5,-1
 172 0 l 1,6,-1
 172 1120 l 1,7,-1
 1071 1120 l 1,0,-1
EndSplineSet
EndChar

StartChar: uni0442
Encoding: 1090 1090 290
Width: 1233
Flags: W
LayerCount: 2
Back
Fore
SplineSet
1071 1120 m 1,0,-1
 1071 901 l 1,1,-1
 763 901 l 1,2,-1
 763 0 l 1,3,-1
 472 0 l 1,4,-1
 472 901 l 1,5,-1
 164 901 l 1,6,-1
 164 1120 l 1,7,-1
 1071 1120 l 1,0,-1
EndSplineSet
EndChar

StartChar: uni0444
Encoding: 1092 1092 292
Width: 1233
Flags: W
LayerCount: 2
Back
Fore
SplineSet
496 -426 m 1,0,-1
 496 -29 l 1,1,2
 348 -14 348 -14 214 137 c 128,-1,3
 80 288 80 288 80 559 c 256,4,5
 80 830 80 830 214 981 c 128,-1,6
 348 1132 348 1132 496 1147 c 1,7,-1
 496 1556 l 1,8,-1
 736 1556 l 1,9,-1
 736 1147 l 1,10,11
 886 1132 886 1132 1020 981 c 128,-1,12
 1154 830 1154 830 1154 559 c 256,13,14
 1154 288 1154 288 1020 137 c 128,-1,15
 886 -14 886 -14 736 -29 c 1,16,-1
 736 -426 l 1,17,-1
 496 -426 l 1,0,-1
496 909 m 1,18,19
 426 892 426 892 373 810.5 c 128,-1,20
 320 729 320 729 320 559 c 256,21,22
 320 389 320 389 373 307.5 c 128,-1,23
 426 226 426 226 496 209 c 1,24,-1
 496 909 l 1,18,19
736 209 m 1,25,26
 808 226 808 226 861 307.5 c 128,-1,27
 914 389 914 389 914 559 c 256,28,29
 914 729 914 729 861 810.5 c 128,-1,30
 808 892 808 892 736 909 c 1,31,-1
 736 209 l 1,25,26
EndSplineSet
EndChar

StartChar: uni0446
Encoding: 1094 1094 294
Width: 1233
Flags: W
LayerCount: 2
Back
Fore
SplineSet
1152 219 m 1,0,-1
 1152 -286 l 1,1,-1
 933 -286 l 1,2,-1
 933 0 l 1,3,-1
 97 0 l 1,4,-1
 97 1120 l 1,5,-1
 388 1120 l 1,6,-1
 388 219 l 1,7,-1
 705 219 l 1,8,-1
 705 1120 l 1,9,-1
 996 1120 l 1,10,-1
 996 219 l 1,11,-1
 1152 219 l 1,0,-1
EndSplineSet
EndChar

StartChar: uni0447
Encoding: 1095 1095 295
Width: 1233
Flags: W
LayerCount: 2
Back
Fore
SplineSet
437 783 m 2,0,1
 437 692 437 692 483 662.5 c 128,-1,2
 529 633 529 633 663 633 c 2,3,-1
 770 633 l 1,4,-1
 770 1121 l 1,5,-1
 1060 1121 l 1,6,-1
 1060 0 l 1,7,-1
 770 0 l 1,8,-1
 770 416 l 1,9,-1
 580 416 l 2,10,11
 384 416 384 416 261 495.5 c 128,-1,12
 138 575 138 575 138 813 c 2,13,-1
 138 1120 l 1,14,-1
 437 1120 l 1,15,-1
 437 783 l 2,0,1
EndSplineSet
EndChar

StartChar: uni0448
Encoding: 1096 1096 296
Width: 1233
Flags: W
LayerCount: 2
Back
Fore
SplineSet
1154 0 m 1,0,-1
 78 0 l 1,1,-1
 78 1120 l 1,2,-1
 318 1120 l 1,3,-1
 318 219 l 1,4,-1
 496 219 l 1,5,-1
 496 1120 l 1,6,-1
 736 1120 l 1,7,-1
 736 219 l 1,8,-1
 914 219 l 1,9,-1
 914 1120 l 1,10,-1
 1154 1120 l 1,11,-1
 1154 0 l 1,0,-1
EndSplineSet
EndChar

StartChar: uni0449
Encoding: 1097 1097 297
Width: 1233
Flags: W
LayerCount: 2
Back
Fore
SplineSet
1001 0 m 1,0,-1
 58 0 l 1,1,-1
 58 1120 l 1,2,-1
 298 1120 l 1,3,-1
 298 219 l 1,4,-1
 476 219 l 1,5,-1
 476 1120 l 1,6,-1
 716 1120 l 1,7,-1
 716 219 l 1,8,-1
 894 219 l 1,9,-1
 894 1120 l 1,10,-1
 1134 1120 l 1,11,-1
 1134 219 l 1,12,-1
 1220 219 l 1,13,-1
 1220 -286 l 1,14,-1
 1001 -286 l 1,15,-1
 1001 0 l 1,0,-1
EndSplineSet
EndChar

StartChar: uni044A
Encoding: 1098 1098 298
Width: 1233
Flags: W
LayerCount: 2
Back
Fore
SplineSet
582 479 m 1,0,-1
 582 219 l 1,1,-1
 655 219 l 2,2,3
 765 219 765 219 818 249.5 c 128,-1,4
 871 280 871 280 871 350 c 128,-1,5
 871 420 871 420 818 449.5 c 128,-1,6
 765 479 765 479 655 479 c 2,7,-1
 582 479 l 1,0,-1
582 698 m 1,8,-1
 709 698 l 2,9,10
 921 698 921 698 1042.5 612 c 128,-1,11
 1164 526 1164 526 1164 350 c 128,-1,12
 1164 174 1164 174 1042.5 87 c 128,-1,13
 921 0 921 0 709 0 c 2,14,-1
 291 0 l 1,15,-1
 291 895 l 1,16,-1
 40 895 l 1,17,-1
 40 1120 l 1,18,-1
 582 1120 l 1,19,-1
 582 698 l 1,8,-1
EndSplineSet
EndChar

StartChar: uni044B
Encoding: 1099 1099 299
Width: 1233
Flags: W
LayerCount: 2
Back
Fore
SplineSet
322 479 m 1,0,-1
 322 219 l 1,1,-1
 349 219 l 2,2,3
 399 219 399 219 452 249.5 c 128,-1,4
 505 280 505 280 505 350 c 128,-1,5
 505 420 505 420 452 449.5 c 128,-1,6
 399 479 399 479 349 479 c 2,7,-1
 322 479 l 1,0,-1
322 1120 m 1,8,-1
 322 698 l 1,9,-1
 343 698 l 2,10,11
 555 698 555 698 676.5 612 c 128,-1,12
 798 526 798 526 798 350 c 128,-1,13
 798 174 798 174 676.5 87 c 128,-1,14
 555 0 555 0 343 0 c 2,15,-1
 31 0 l 1,16,-1
 31 1120 l 1,17,-1
 322 1120 l 1,8,-1
908 0 m 1,18,-1
 908 1120 l 1,19,-1
 1201 1120 l 1,20,-1
 1201 0 l 1,21,-1
 908 0 l 1,18,-1
EndSplineSet
EndChar

StartChar: uni044C
Encoding: 1100 1100 300
Width: 1233
Flags: W
LayerCount: 2
Back
Fore
SplineSet
428 479 m 1,0,-1
 428 219 l 1,1,-1
 551 219 l 2,2,3
 661 219 661 219 714 249.5 c 128,-1,4
 767 280 767 280 767 350 c 256,5,6
 767 420 767 420 714 449.5 c 128,-1,7
 661 479 661 479 551 479 c 2,8,-1
 428 479 l 1,0,-1
428 1120 m 1,9,-1
 428 698 l 1,10,-1
 605 698 l 2,11,12
 817 698 817 698 938.5 612 c 128,-1,13
 1060 526 1060 526 1060 350 c 256,14,15
 1060 174 1060 174 938.5 87 c 128,-1,16
 817 0 817 0 605 0 c 2,17,-1
 137 0 l 1,18,-1
 137 1120 l 1,19,-1
 428 1120 l 1,9,-1
EndSplineSet
EndChar

StartChar: uni044D
Encoding: 1101 1101 301
Width: 1233
Flags: W
LayerCount: 2
Back
Fore
SplineSet
510 -29 m 0,0,1
 313 -29 313 -29 168 57 c 1,2,-1
 168 326 l 1,3,4
 301 209 301 209 454 209 c 0,5,6
 712 209 712 209 758 458 c 1,7,-1
 281 458 l 1,8,-1
 281 677 l 1,9,-1
 753 677 l 1,10,11
 700 909 700 909 467 909 c 0,12,13
 300 909 300 909 168 795 c 1,14,-1
 168 1063 l 1,15,16
 324 1147 324 1147 508 1147 c 0,17,18
 769 1147 769 1147 915 991.5 c 128,-1,19
 1061 836 1061 836 1061 560 c 128,-1,20
 1061 284 1061 284 915.5 127.5 c 128,-1,21
 770 -29 770 -29 510 -29 c 0,0,1
EndSplineSet
EndChar

StartChar: uni044E
Encoding: 1102 1102 302
Width: 1233
Flags: W
LayerCount: 2
Back
Fore
SplineSet
780 909 m 0,0,1
 736 909 736 909 689 831 c 128,-1,2
 642 753 642 753 642 559 c 1,3,4
 638 370 638 370 687.5 289.5 c 128,-1,5
 737 209 737 209 780 209 c 0,6,7
 836 209 836 209 878 294.5 c 128,-1,8
 920 380 920 380 920 559 c 0,9,10
 920 753 920 753 874 830.5 c 128,-1,11
 828 908 828 908 780 909 c 0,0,1
56 0 m 1,12,-1
 56 1120 l 1,13,-1
 296 1120 l 1,14,-1
 296 689 l 1,15,-1
 403 689 l 1,16,17
 437 904 437 904 503 995 c 0,18,19
 613 1149 613 1149 780 1147 c 0,20,21
 917 1145 917 1145 1040.5 998 c 128,-1,22
 1164 851 1164 851 1164 559 c 0,23,24
 1164 265 1164 265 1037 118 c 128,-1,25
 910 -29 910 -29 780 -29 c 0,26,27
 611 -29 611 -29 502 119 c 0,28,29
 416 236 416 236 398 480 c 1,30,-1
 296 480 l 1,31,-1
 296 0 l 1,32,-1
 56 0 l 1,12,-1
EndSplineSet
EndChar

StartChar: uni044F
Encoding: 1103 1103 303
Width: 1233
Flags: W
LayerCount: 2
Back
Fore
SplineSet
454 779 m 256,0,1
 454 709 454 709 509 678.5 c 128,-1,2
 564 648 564 648 644 648 c 2,3,-1
 817 648 l 1,4,-1
 817 909 l 1,5,-1
 644 909 l 2,6,7
 564 909 564 909 509 879 c 128,-1,8
 454 849 454 849 454 779 c 256,0,1
96 0 m 1,9,-1
 393 488 l 1,10,11
 350 510 350 510 261 579 c 128,-1,12
 172 648 172 648 172 808 c 0,13,14
 172 967 172 967 291 1043.5 c 128,-1,15
 410 1120 410 1120 684 1120 c 2,16,-1
 1108 1120 l 1,17,-1
 1108 0 l 1,18,-1
 817 0 l 1,19,-1
 817 429 l 1,20,-1
 696 429 l 1,21,-1
 435 0 l 1,22,-1
 96 0 l 1,9,-1
EndSplineSet
EndChar

StartChar: uni1D2C
Encoding: 7468 7468 305
Width: 1233
Flags: W
LayerCount: 2
Back
Fore
SplineSet
616 1353 m 1,0,-1
 528 1011 l 1,1,-1
 704 1011 l 1,2,-1
 616 1353 l 1,0,-1
502 1504 m 1,3,-1
 730 1504 l 1,4,-1
 984 668 l 1,5,-1
 798 668 l 1,6,-1
 740 875 l 1,7,-1
 490 875 l 1,8,-1
 434 668 l 1,9,-1
 248 668 l 1,10,-1
 502 1504 l 1,3,-1
EndSplineSet
EndChar

StartChar: uni1D2E
Encoding: 7470 7470 306
Width: 1233
Flags: W
LayerCount: 2
Back
Fore
SplineSet
470 1048 m 1,0,-1
 470 800 l 1,1,-1
 594 800 l 2,2,3
 682 800 682 800 718 827 c 128,-1,4
 754 854 754 854 754 921 c 128,-1,5
 754 988 754 988 716 1018 c 128,-1,6
 678 1048 678 1048 594 1048 c 2,7,-1
 470 1048 l 1,0,-1
470 1374 m 1,8,-1
 470 1179 l 1,9,-1
 594 1179 l 2,10,11
 664 1179 664 1179 694 1201.5 c 128,-1,12
 724 1224 724 1224 724 1276 c 0,13,14
 724 1327 724 1327 693 1350.5 c 128,-1,15
 662 1374 662 1374 594 1374 c 2,16,-1
 470 1374 l 1,8,-1
290 1505 m 1,17,-1
 594 1505 l 2,18,19
 750 1505 750 1505 829 1452 c 128,-1,20
 908 1399 908 1399 908 1294 c 0,21,22
 908 1213 908 1213 862 1168 c 128,-1,23
 816 1123 816 1123 724 1115 c 1,24,25
 832 1106 832 1106 887 1051 c 128,-1,26
 942 996 942 996 942 898 c 0,27,28
 942 777 942 777 860 722.5 c 128,-1,29
 778 668 778 668 594 668 c 2,30,-1
 290 668 l 1,31,-1
 290 1505 l 1,17,-1
EndSplineSet
EndChar

StartChar: uni1D30
Encoding: 7472 7472 307
Width: 1233
Flags: W
LayerCount: 2
Back
Fore
SplineSet
486 1355 m 1,0,-1
 486 817 l 1,1,-1
 536 817 l 2,2,3
 646 817 646 817 692 878.5 c 128,-1,4
 738 940 738 940 738 1087 c 0,5,6
 738 1233 738 1233 692 1294 c 128,-1,7
 646 1355 646 1355 536 1355 c 2,8,-1
 486 1355 l 1,0,-1
300 1504 m 1,9,-1
 498 1504 l 2,10,11
 730 1504 730 1504 831 1406.5 c 128,-1,12
 932 1309 932 1309 932 1087 c 128,-1,13
 932 865 932 865 831 766.5 c 128,-1,14
 730 668 730 668 498 668 c 2,15,-1
 300 668 l 1,16,-1
 300 1504 l 1,9,-1
EndSplineSet
EndChar

StartChar: uni1D31
Encoding: 7473 7473 308
Width: 1233
Flags: W
LayerCount: 2
Back
Fore
SplineSet
910 668 m 1,0,-1
 324 668 l 1,1,-1
 324 1504 l 1,2,-1
 910 1504 l 1,3,-1
 910 1358 l 1,4,-1
 510 1358 l 1,5,-1
 510 1178 l 1,6,-1
 872 1178 l 1,7,-1
 872 1033 l 1,8,-1
 510 1033 l 1,9,-1
 510 814 l 1,10,-1
 910 814 l 1,11,-1
 910 668 l 1,0,-1
EndSplineSet
EndChar

StartChar: uni1D32
Encoding: 7474 7474 309
Width: 1233
Flags: W
LayerCount: 2
Back
Fore
SplineSet
324 814 m 1,0,-1
 724 814 l 1,1,-1
 724 1033 l 1,2,-1
 362 1033 l 1,3,-1
 362 1178 l 1,4,-1
 724 1178 l 1,5,-1
 724 1358 l 1,6,-1
 324 1358 l 1,7,-1
 324 1504 l 1,8,-1
 910 1504 l 1,9,-1
 910 668 l 1,10,-1
 324 668 l 1,11,-1
 324 814 l 1,0,-1
EndSplineSet
EndChar

StartChar: uni1D33
Encoding: 7475 7475 310
Width: 1233
Flags: W
LayerCount: 2
Back
Fore
SplineSet
772 819 m 1,0,-1
 772 979 l 1,1,-1
 646 979 l 1,2,-1
 646 1118 l 1,3,-1
 936 1118 l 1,4,-1
 936 735 l 1,5,6
 882 694 882 694 817 673 c 128,-1,7
 752 652 752 652 678 652 c 0,8,9
 496 652 496 652 397 764.5 c 128,-1,10
 298 877 298 877 298 1085 c 0,11,12
 298 1296 298 1296 398 1407.5 c 128,-1,13
 498 1519 498 1519 688 1519 c 0,14,15
 744 1519 744 1519 799 1505 c 128,-1,16
 854 1491 854 1491 902 1464 c 1,17,-1
 902 1281 l 1,18,19
 862 1325 862 1325 812 1348 c 128,-1,20
 762 1371 762 1371 702 1371 c 0,21,22
 596 1371 596 1371 543 1300 c 128,-1,23
 490 1229 490 1229 490 1085 c 0,24,25
 490 946 490 946 541 873 c 128,-1,26
 592 800 592 800 688 800 c 0,27,28
 716 800 716 800 738 805 c 128,-1,29
 760 810 760 810 772 819 c 1,0,-1
EndSplineSet
EndChar

StartChar: uni1D34
Encoding: 7476 7476 311
Width: 1233
Flags: W
LayerCount: 2
Back
Fore
SplineSet
314 1504 m 1,0,-1
 500 1504 l 1,1,-1
 500 1185 l 1,2,-1
 734 1185 l 1,3,-1
 734 1504 l 1,4,-1
 918 1504 l 1,5,-1
 918 668 l 1,6,-1
 734 668 l 1,7,-1
 734 1040 l 1,8,-1
 500 1040 l 1,9,-1
 500 668 l 1,10,-1
 314 668 l 1,11,-1
 314 1504 l 1,0,-1
EndSplineSet
EndChar

StartChar: uni1D35
Encoding: 7477 7477 312
Width: 1233
Flags: W
LayerCount: 2
Back
Fore
SplineSet
336 1358 m 1,0,-1
 336 1504 l 1,1,-1
 896 1504 l 1,2,-1
 896 1358 l 1,3,-1
 710 1358 l 1,4,-1
 710 814 l 1,5,-1
 896 814 l 1,6,-1
 896 668 l 1,7,-1
 336 668 l 1,8,-1
 336 814 l 1,9,-1
 524 814 l 1,10,-1
 524 1358 l 1,11,-1
 336 1358 l 1,0,-1
EndSplineSet
EndChar

StartChar: uni1D36
Encoding: 7478 7478 313
Width: 1233
Flags: W
LayerCount: 2
Back
Fore
SplineSet
334 709 m 1,0,-1
 334 901 l 1,1,2
 388 852 388 852 449 826 c 128,-1,3
 510 800 510 800 572 800 c 0,4,5
 646 800 646 800 680 832.5 c 128,-1,6
 714 865 714 865 714 936 c 2,7,-1
 714 1358 l 1,8,-1
 486 1358 l 1,9,-1
 486 1504 l 1,10,-1
 900 1504 l 1,11,-1
 900 936 l 2,12,13
 900 783 900 783 828 717.5 c 128,-1,14
 756 652 756 652 590 652 c 0,15,16
 530 652 530 652 465 666.5 c 128,-1,17
 400 681 400 681 334 709 c 1,0,-1
EndSplineSet
EndChar

StartChar: uni1D37
Encoding: 7479 7479 314
Width: 1233
Flags: W
LayerCount: 2
Back
Fore
SplineSet
268 1504 m 1,0,-1
 454 1504 l 1,1,-1
 454 1174 l 1,2,-1
 744 1504 l 1,3,-1
 954 1504 l 1,4,-1
 658 1175 l 1,5,-1
 966 668 l 1,6,-1
 758 668 l 1,7,-1
 536 1044 l 1,8,-1
 454 951 l 1,9,-1
 454 668 l 1,10,-1
 268 668 l 1,11,-1
 268 1504 l 1,0,-1
EndSplineSet
EndChar

StartChar: uni1D38
Encoding: 7480 7480 315
Width: 1233
Flags: W
LayerCount: 2
Back
Fore
SplineSet
324 668 m 1,0,-1
 324 1504 l 1,1,-1
 510 1504 l 1,2,-1
 510 814 l 1,3,-1
 908 814 l 1,4,-1
 908 668 l 1,5,-1
 324 668 l 1,0,-1
EndSplineSet
EndChar

StartChar: uni1D39
Encoding: 7481 7481 316
Width: 1233
Flags: W
LayerCount: 2
Back
Fore
SplineSet
282 1504 m 1,0,-1
 504 1504 l 1,1,-1
 616 1137 l 1,2,-1
 728 1504 l 1,3,-1
 950 1504 l 1,4,-1
 950 668 l 1,5,-1
 790 668 l 1,6,-1
 790 1338 l 1,7,-1
 690 972 l 1,8,-1
 542 972 l 1,9,-1
 442 1338 l 1,10,-1
 442 668 l 1,11,-1
 282 668 l 1,12,-1
 282 1504 l 1,0,-1
EndSplineSet
EndChar

StartChar: uni1D3A
Encoding: 7482 7482 317
Width: 1233
Flags: W
LayerCount: 2
Back
Fore
SplineSet
304 1504 m 1,0,-1
 504 1504 l 1,1,-1
 766 896 l 1,2,-1
 766 1504 l 1,3,-1
 930 1504 l 1,4,-1
 930 668 l 1,5,-1
 730 668 l 1,6,-1
 468 1276 l 1,7,-1
 468 668 l 1,8,-1
 304 668 l 1,9,-1
 304 1504 l 1,0,-1
EndSplineSet
EndChar

StartChar: uni1D3C
Encoding: 7484 7484 318
Width: 1233
Flags: W
LayerCount: 2
Back
Fore
SplineSet
616 1371 m 128,-1,1
 544 1371 544 1371 511 1303.5 c 128,-1,2
 478 1236 478 1236 478 1085 c 0,3,4
 478 935 478 935 511 867.5 c 128,-1,5
 544 800 544 800 616 800 c 128,-1,6
 688 800 688 800 720 867.5 c 128,-1,7
 752 935 752 935 752 1085 c 0,8,9
 752 1236 752 1236 720 1303.5 c 128,-1,0
 688 1371 688 1371 616 1371 c 128,-1,1
286 1085 m 0,10,11
 286 1300 286 1300 369 1409.5 c 128,-1,12
 452 1519 452 1519 616 1519 c 128,-1,13
 780 1519 780 1519 863 1409.5 c 128,-1,14
 946 1300 946 1300 946 1085 c 0,15,16
 946 871 946 871 863 761.5 c 128,-1,17
 780 652 780 652 616 652 c 128,-1,18
 452 652 452 652 369 761.5 c 128,-1,19
 286 871 286 871 286 1085 c 0,10,11
EndSplineSet
EndChar

StartChar: uni1D3E
Encoding: 7486 7486 319
Width: 1233
Flags: W
LayerCount: 2
Back
Fore
SplineSet
492 1365 m 1,0,-1
 492 1120 l 1,1,-1
 568 1120 l 2,2,3
 658 1120 658 1120 695 1147.5 c 128,-1,4
 732 1175 732 1175 732 1243 c 0,5,6
 732 1310 732 1310 695 1337.5 c 128,-1,7
 658 1365 658 1365 568 1365 c 2,8,-1
 492 1365 l 1,0,-1
306 1504 m 1,9,-1
 560 1504 l 2,10,11
 756 1504 756 1504 841 1442.5 c 128,-1,12
 926 1381 926 1381 926 1243 c 0,13,14
 926 1104 926 1104 841 1042.5 c 128,-1,15
 756 981 756 981 560 981 c 2,16,-1
 492 981 l 1,17,-1
 492 668 l 1,18,-1
 306 668 l 1,19,-1
 306 1504 l 1,9,-1
EndSplineSet
EndChar

StartChar: uni1D3F
Encoding: 7487 7487 320
Width: 1233
Flags: W
LayerCount: 2
Back
Fore
SplineSet
694 1063 m 1,0,1
 722 1058 722 1058 742 1039.5 c 128,-1,2
 762 1021 762 1021 792 969 c 2,3,-1
 962 668 l 1,4,-1
 758 668 l 1,5,-1
 644 879 l 2,6,7
 640 888 640 888 632 904 c 0,8,9
 582 998 582 998 514 998 c 2,10,-1
 456 998 l 1,11,-1
 456 668 l 1,12,-1
 270 668 l 1,13,-1
 270 1504 l 1,14,-1
 538 1504 l 2,15,16
 720 1504 720 1504 799 1447 c 128,-1,17
 878 1390 878 1390 878 1261 c 0,18,19
 878 1175 878 1175 830 1124 c 128,-1,20
 782 1073 782 1073 694 1063 c 1,0,1
456 1365 m 1,21,-1
 456 1137 l 1,22,-1
 542 1137 l 2,23,24
 618 1137 618 1137 652 1163.5 c 128,-1,25
 686 1190 686 1190 686 1252 c 0,26,27
 686 1313 686 1313 653 1339 c 128,-1,28
 620 1365 620 1365 542 1365 c 2,29,-1
 456 1365 l 1,21,-1
EndSplineSet
EndChar

StartChar: uni1D40
Encoding: 7488 7488 321
Width: 1233
Flags: W
LayerCount: 2
Back
Fore
SplineSet
708 668 m 1,0,-1
 522 668 l 1,1,-1
 522 1360 l 1,2,-1
 284 1360 l 1,3,-1
 284 1504 l 1,4,-1
 948 1504 l 1,5,-1
 948 1360 l 1,6,-1
 708 1360 l 1,7,-1
 708 668 l 1,0,-1
EndSplineSet
EndChar

StartChar: uni1D41
Encoding: 7489 7489 322
Width: 1233
Flags: W
LayerCount: 2
Back
Fore
SplineSet
296 977 m 2,0,-1
 296 1504 l 1,1,-1
 482 1504 l 1,2,-1
 482 935 l 2,3,4
 482 872 482 872 517 836.5 c 128,-1,5
 552 801 552 801 616 801 c 128,-1,6
 680 801 680 801 716 836.5 c 128,-1,7
 752 872 752 872 752 935 c 2,8,-1
 752 1504 l 1,9,-1
 938 1504 l 1,10,-1
 938 977 l 2,11,12
 938 806 938 806 862 729 c 128,-1,13
 786 652 786 652 616 652 c 0,14,15
 448 652 448 652 372 729 c 128,-1,16
 296 806 296 806 296 977 c 2,0,-1
EndSplineSet
EndChar

StartChar: uni1D42
Encoding: 7490 7490 323
Width: 1233
Flags: W
LayerCount: 2
Back
Fore
SplineSet
228 1504 m 1,0,-1
 390 1504 l 1,1,-1
 458 890 l 1,2,-1
 538 1287 l 1,3,-1
 694 1287 l 1,4,-1
 788 890 l 1,5,-1
 840 1504 l 1,6,-1
 1004 1504 l 1,7,-1
 896 668 l 1,8,-1
 722 668 l 1,9,-1
 616 1107 l 1,10,-1
 516 668 l 1,11,-1
 344 668 l 1,12,-1
 228 1504 l 1,0,-1
EndSplineSet
EndChar

StartChar: uni1D43
Encoding: 7491 7491 324
Width: 1233
Flags: W
LayerCount: 2
Back
Fore
SplineSet
679 963 m 2,0,1
 576 963 576 963 535 939.5 c 128,-1,2
 494 916 494 916 494 858 c 0,3,4
 494 816 494 816 522 790.5 c 128,-1,5
 550 765 550 765 599 765 c 0,6,7
 672 765 672 765 712.5 814 c 128,-1,8
 753 863 753 863 753 951 c 2,9,-1
 753 963 l 1,10,-1
 679 963 l 2,0,1
936 1026 m 2,11,-1
 936 668 l 1,12,-1
 753 668 l 1,13,-1
 753 738 l 1,14,15
 719 697 719 697 667 674.5 c 128,-1,16
 615 652 615 652 552 652 c 0,17,18
 431 652 431 652 364 708.5 c 128,-1,19
 297 765 297 765 297 866 c 0,20,21
 297 976 297 976 377 1028.5 c 128,-1,22
 457 1081 457 1081 625 1081 c 2,23,-1
 753 1081 l 1,24,-1
 753 1108 l 2,25,26
 753 1148 753 1148 720.5 1168.5 c 128,-1,27
 688 1189 688 1189 625 1189 c 0,28,29
 559 1189 559 1189 496.5 1174 c 128,-1,30
 434 1159 434 1159 367 1127 c 1,31,-1
 367 1267 l 1,32,33
 428 1289 428 1289 491 1299.5 c 128,-1,34
 554 1310 554 1310 625 1310 c 0,35,36
 797 1310 797 1310 866.5 1248 c 128,-1,37
 936 1186 936 1186 936 1026 c 2,11,-1
EndSplineSet
EndChar

StartChar: uni1D47
Encoding: 7495 7495 325
Width: 1233
Flags: W
LayerCount: 2
Back
Fore
SplineSet
745 980 m 128,-1,1
 745 1071 745 1071 711 1122.5 c 128,-1,2
 677 1174 677 1174 617 1174 c 128,-1,3
 557 1174 557 1174 522.5 1122.5 c 128,-1,4
 488 1071 488 1071 488 980 c 128,-1,5
 488 889 488 889 522.5 837.5 c 128,-1,6
 557 786 557 786 617 786 c 128,-1,7
 677 786 677 786 711 837.5 c 128,-1,0
 745 889 745 889 745 980 c 128,-1,1
488 1206 m 1,8,9
 522 1258 522 1258 567 1284 c 128,-1,10
 612 1310 612 1310 668 1310 c 0,11,12
 794 1310 794 1310 861.5 1225 c 128,-1,13
 929 1140 929 1140 929 981 c 0,14,15
 929 824 929 824 862.5 738 c 128,-1,16
 796 652 796 652 675 652 c 0,17,18
 611 652 611 652 564 679.5 c 128,-1,19
 517 707 517 707 488 761 c 1,20,-1
 488 668 l 1,21,-1
 304 668 l 1,22,-1
 304 1539 l 1,23,-1
 488 1539 l 1,24,-1
 488 1206 l 1,8,9
EndSplineSet
EndChar

StartChar: uni1D48
Encoding: 7496 7496 326
Width: 1233
Flags: W
LayerCount: 2
Back
Fore
SplineSet
745 1206 m 1,0,-1
 745 1539 l 1,1,-1
 929 1539 l 1,2,-1
 929 668 l 1,3,-1
 745 668 l 1,4,-1
 745 761 l 1,5,6
 716 707 716 707 669 679.5 c 128,-1,7
 622 652 622 652 558 652 c 0,8,9
 437 652 437 652 370.5 738 c 128,-1,10
 304 824 304 824 304 981 c 0,11,12
 304 1140 304 1140 371.5 1225 c 128,-1,13
 439 1310 439 1310 565 1310 c 0,14,15
 621 1310 621 1310 666 1284 c 128,-1,16
 711 1258 711 1258 745 1206 c 1,0,-1
488 980 m 128,-1,18
 488 889 488 889 522 837.5 c 128,-1,19
 556 786 556 786 616 786 c 128,-1,20
 676 786 676 786 710.5 837.5 c 128,-1,21
 745 889 745 889 745 980 c 128,-1,22
 745 1071 745 1071 710.5 1122.5 c 128,-1,23
 676 1174 676 1174 616 1174 c 128,-1,24
 556 1174 556 1174 522 1122.5 c 128,-1,17
 488 1071 488 1071 488 980 c 128,-1,18
EndSplineSet
EndChar

StartChar: uni1D49
Encoding: 7497 7497 327
Width: 1233
Flags: W
LayerCount: 2
Back
Fore
SplineSet
920 699 m 1,0,1
 856 675 856 675 789 663.5 c 128,-1,2
 722 652 722 652 648 652 c 0,3,4
 471 652 471 652 377.5 736 c 128,-1,5
 284 820 284 820 284 979 c 0,6,7
 284 1132 284 1132 374 1221 c 128,-1,8
 464 1310 464 1310 619 1310 c 0,9,10
 776 1310 776 1310 862.5 1227.5 c 128,-1,11
 949 1145 949 1145 949 995 c 2,12,-1
 949 928 l 1,13,-1
 471 928 l 1,14,15
 472 854 472 854 520.5 818 c 128,-1,16
 569 782 569 782 665 782 c 0,17,18
 729 782 729 782 790.5 798 c 128,-1,19
 852 814 852 814 920 849 c 1,20,-1
 920 699 l 1,0,1
764 1052 m 1,21,22
 762 1117 762 1117 726 1150 c 128,-1,23
 690 1183 690 1183 619 1183 c 0,24,25
 556 1183 556 1183 518 1148.5 c 128,-1,26
 480 1114 480 1114 473 1051 c 1,27,-1
 764 1052 l 1,21,22
EndSplineSet
EndChar

StartChar: uni1D4D
Encoding: 7501 7501 328
Width: 1233
Flags: W
LayerCount: 2
Back
Fore
SplineSet
746 992 m 0,0,1
 746 1076 746 1076 710 1126.5 c 128,-1,2
 674 1177 674 1177 616 1177 c 128,-1,3
 558 1177 558 1177 522.5 1126.5 c 128,-1,4
 487 1076 487 1076 487 992 c 0,5,6
 487 907 487 907 522.5 856.5 c 128,-1,7
 558 806 558 806 616 806 c 128,-1,8
 674 806 674 806 710 856.5 c 128,-1,9
 746 907 746 907 746 992 c 0,0,1
931 715 m 2,10,11
 931 564 931 564 854.5 497.5 c 128,-1,12
 778 431 778 431 606 431 c 0,13,14
 548 431 548 431 491 438.5 c 128,-1,15
 434 446 434 446 376 461 c 1,16,-1
 376 612 l 1,17,18
 428 586 428 586 482 574 c 128,-1,19
 536 562 536 562 594 562 c 0,20,21
 672 562 672 562 709 594.5 c 128,-1,22
 746 627 746 627 746 697 c 2,23,-1
 746 764 l 1,24,25
 719 720 719 720 674.5 698 c 128,-1,26
 630 676 630 676 565 676 c 0,27,28
 445 676 445 676 373.5 760 c 128,-1,29
 302 844 302 844 302 988 c 0,30,31
 302 1137 302 1137 373.5 1224 c 128,-1,32
 445 1311 445 1311 564 1311 c 0,33,34
 625 1311 625 1311 672 1286 c 128,-1,35
 719 1261 719 1261 746 1215 c 1,36,-1
 746 1295 l 1,37,-1
 931 1295 l 1,38,-1
 931 715 l 2,10,11
EndSplineSet
EndChar

StartChar: uni1D4F
Encoding: 7503 7503 329
Width: 1233
Flags: W
LayerCount: 2
Back
Fore
SplineSet
294 1539 m 1,0,-1
 479 1539 l 1,1,-1
 479 1082 l 1,2,-1
 700 1295 l 1,3,-1
 924 1295 l 1,4,-1
 657 1061 l 1,5,-1
 939 668 l 1,6,-1
 735 668 l 1,7,-1
 542 961 l 1,8,-1
 479 908 l 1,9,-1
 479 668 l 1,10,-1
 294 668 l 1,11,-1
 294 1539 l 1,0,-1
EndSplineSet
EndChar

StartChar: uni1D50
Encoding: 7504 7504 330
Width: 1233
Flags: W
LayerCount: 2
Back
Fore
SplineSet
662 1232 m 1,0,1
 682 1272 682 1272 714.5 1291 c 128,-1,2
 747 1310 747 1310 793 1310 c 0,3,4
 885 1310 885 1310 919.5 1254 c 128,-1,5
 954 1198 954 1198 954 1021 c 2,6,-1
 954 668 l 1,7,-1
 803 668 l 1,8,-1
 803 1071 l 2,9,10
 803 1141 803 1141 791 1164.5 c 128,-1,11
 779 1188 779 1188 747.5 1188 c 128,-1,12
 716 1188 716 1188 703.5 1164 c 128,-1,13
 691 1140 691 1140 691 1071 c 2,14,-1
 691 668 l 1,15,-1
 542 668 l 1,16,-1
 542 1071 l 2,17,18
 542 1140 542 1140 529.5 1164 c 128,-1,19
 517 1188 517 1188 485.5 1188 c 128,-1,20
 454 1188 454 1188 442 1164.5 c 128,-1,21
 430 1141 430 1141 430 1071 c 2,22,-1
 430 668 l 1,23,-1
 279 668 l 1,24,-1
 279 1295 l 1,25,-1
 413 1295 l 1,26,-1
 413 1230 l 1,27,28
 428 1267 428 1267 463 1288.5 c 128,-1,29
 498 1310 498 1310 540.5 1310 c 128,-1,30
 583 1310 583 1310 618.5 1287.5 c 128,-1,31
 654 1265 654 1265 662 1232 c 1,0,1
EndSplineSet
EndChar

StartChar: uni1D52
Encoding: 7506 7506 331
Width: 1233
Flags: W
LayerCount: 2
Back
Fore
SplineSet
616 1177 m 0,0,1
 550 1177 550 1177 512 1125 c 128,-1,2
 474 1073 474 1073 474 981 c 128,-1,3
 474 889 474 889 512 837 c 128,-1,4
 550 785 550 785 616 785 c 0,5,6
 683 785 683 785 721 837 c 128,-1,7
 759 889 759 889 759 981 c 128,-1,8
 759 1073 759 1073 721 1125 c 128,-1,9
 683 1177 683 1177 616 1177 c 0,0,1
290 981 m 128,-1,11
 290 1133 290 1133 378.5 1221.5 c 128,-1,12
 467 1310 467 1310 616 1310 c 0,13,14
 766 1310 766 1310 854.5 1221.5 c 128,-1,15
 943 1133 943 1133 943 981 c 128,-1,16
 943 829 943 829 854.5 740.5 c 128,-1,17
 766 652 766 652 616 652 c 0,18,19
 467 652 467 652 378.5 740.5 c 128,-1,10
 290 829 290 829 290 981 c 128,-1,11
EndSplineSet
EndChar

StartChar: uni1D56
Encoding: 7510 7510 332
Width: 1233
Flags: W
LayerCount: 2
Back
Fore
SplineSet
488 756 m 1,0,-1
 488 429 l 1,1,-1
 304 429 l 1,2,-1
 304 1295 l 1,3,-1
 488 1295 l 1,4,-1
 488 1201 l 1,5,6
 517 1255 517 1255 564 1282.5 c 128,-1,7
 611 1310 611 1310 675 1310 c 0,8,9
 796 1310 796 1310 862.5 1224 c 128,-1,10
 929 1138 929 1138 929 981 c 0,11,12
 929 822 929 822 861.5 737 c 128,-1,13
 794 652 794 652 668 652 c 0,14,15
 612 652 612 652 567 678 c 128,-1,16
 522 704 522 704 488 756 c 1,0,-1
745 982 m 128,-1,18
 745 1073 745 1073 711 1124.5 c 128,-1,19
 677 1176 677 1176 617 1176 c 128,-1,20
 557 1176 557 1176 522.5 1124.5 c 128,-1,21
 488 1073 488 1073 488 982 c 128,-1,22
 488 891 488 891 522.5 839.5 c 128,-1,23
 557 788 557 788 617 788 c 128,-1,24
 677 788 677 788 711 839.5 c 128,-1,17
 745 891 745 891 745 982 c 128,-1,18
EndSplineSet
EndChar

StartChar: uni1D57
Encoding: 7511 7511 333
Width: 1233
Flags: W
LayerCount: 2
Back
Fore
SplineSet
678 1473 m 1,0,-1
 678 1295 l 1,1,-1
 920 1295 l 1,2,-1
 920 1169 l 1,3,-1
 678 1169 l 1,4,-1
 678 872 l 2,5,6
 678 830 678 830 701 812 c 128,-1,7
 724 794 724 794 778 794 c 2,8,-1
 920 794 l 1,9,-1
 920 668 l 1,10,-1
 765 668 l 2,11,12
 606 668 606 668 550 713 c 128,-1,13
 494 758 494 758 494 880 c 2,14,-1
 494 1169 l 1,15,-1
 313 1169 l 1,16,-1
 313 1295 l 1,17,-1
 494 1295 l 1,18,-1
 494 1473 l 1,19,-1
 678 1473 l 1,0,-1
EndSplineSet
EndChar

StartChar: uni1D58
Encoding: 7512 7512 334
Width: 1233
Flags: W
LayerCount: 2
Back
Fore
SplineSet
333 887 m 2,0,-1
 333 1295 l 1,1,-1
 517 1295 l 1,2,-1
 517 912 l 2,3,4
 517 844 517 844 538.5 815 c 128,-1,5
 560 786 560 786 610 786 c 128,-1,6
 660 786 660 786 688 825.5 c 128,-1,7
 716 865 716 865 716 935 c 2,8,-1
 716 1295 l 1,9,-1
 900 1295 l 1,10,-1
 900 668 l 1,11,-1
 716 668 l 1,12,-1
 716 761 l 1,13,14
 696 709 696 709 649 680.5 c 128,-1,15
 602 652 602 652 536 652 c 0,16,17
 435 652 435 652 384 711 c 128,-1,18
 333 770 333 770 333 887 c 2,0,-1
EndSplineSet
EndChar

StartChar: uni1D5B
Encoding: 7515 7515 335
Width: 1233
Flags: W
LayerCount: 2
Back
Fore
SplineSet
954 1295 m 1,0,-1
 730 668 l 1,1,-1
 503 668 l 1,2,-1
 279 1295 l 1,3,-1
 466 1295 l 1,4,-1
 616 806 l 1,5,-1
 767 1295 l 1,6,-1
 954 1295 l 1,0,-1
EndSplineSet
EndChar

StartChar: uni1D9C
Encoding: 7580 7580 339
Width: 1233
Flags: W
LayerCount: 2
Back
Fore
SplineSet
898 700 m 1,0,1
 851 676 851 676 797.5 664 c 128,-1,2
 744 652 744 652 682 652 c 0,3,4
 519 652 519 652 427 739 c 128,-1,5
 335 826 335 826 335 981 c 128,-1,6
 335 1136 335 1136 427.5 1223.5 c 128,-1,7
 520 1311 520 1311 684 1311 c 0,8,9
 740 1311 740 1311 793 1299.5 c 128,-1,10
 846 1288 846 1288 898 1263 c 1,11,-1
 898 1113 l 1,12,13
 857 1144 857 1144 809 1160.5 c 128,-1,14
 761 1177 761 1177 709 1177 c 0,15,16
 619 1177 619 1177 570.5 1126 c 128,-1,17
 522 1075 522 1075 522 981 c 128,-1,18
 522 887 522 887 570.5 836.5 c 128,-1,19
 619 786 619 786 709 786 c 0,20,21
 763 786 763 786 809.5 802 c 128,-1,22
 856 818 856 818 898 851 c 1,23,-1
 898 700 l 1,0,1
EndSplineSet
EndChar

StartChar: uni1DA0
Encoding: 7584 7584 340
Width: 1233
Flags: W
LayerCount: 2
Back
Fore
SplineSet
686 1350 m 2,0,-1
 686 1295 l 1,1,-1
 903 1295 l 1,2,-1
 903 1169 l 1,3,-1
 686 1169 l 1,4,-1
 686 668 l 1,5,-1
 502 668 l 1,6,-1
 502 1169 l 1,7,-1
 330 1169 l 1,8,-1
 330 1295 l 1,9,-1
 502 1295 l 1,10,-1
 502 1339 l 2,11,12
 502 1452 502 1452 554.5 1495.5 c 128,-1,13
 607 1539 607 1539 751 1539 c 2,14,-1
 903 1539 l 1,15,-1
 903 1413 l 1,16,-1
 759 1413 l 2,17,18
 717 1413 717 1413 702 1399.5 c 128,-1,19
 687 1386 687 1386 686 1350 c 2,0,-1
EndSplineSet
EndChar

StartChar: uni1DBB
Encoding: 7611 7611 341
Width: 1233
Flags: W
LayerCount: 2
Back
Fore
SplineSet
342 1295 m 1,0,-1
 906 1295 l 1,1,-1
 906 1167 l 1,2,-1
 535 791 l 1,3,-1
 906 791 l 1,4,-1
 906 668 l 1,5,-1
 327 668 l 1,6,-1
 327 796 l 1,7,-1
 699 1173 l 1,8,-1
 342 1173 l 1,9,-1
 342 1295 l 1,0,-1
EndSplineSet
EndChar

StartChar: uni1E02
Encoding: 7682 7682 342
Width: 1233
Flags: W
LayerCount: 2
Back
Fore
SplineSet
479 1899 m 5
 754 1899 l 5
 754 1653 l 5
 479 1653 l 5
 479 1899 l 5
EndSplineSet
Refer: 34 66 N 1 0 0 1 0 0 2
EndChar

StartChar: uni1E03
Encoding: 7683 7683 343
Width: 1233
Flags: W
LayerCount: 2
Back
Fore
SplineSet
579 1585 m 5
 854 1585 l 5
 854 1339 l 5
 579 1339 l 5
 579 1585 l 5
EndSplineSet
Refer: 66 98 N 1 0 0 1 0 0 3
EndChar

StartChar: uni1E0A
Encoding: 7690 7690 344
Width: 1233
Flags: W
LayerCount: 2
Back
Fore
SplineSet
430 1899 m 5
 705 1899 l 5
 705 1653 l 5
 430 1653 l 5
 430 1899 l 5
EndSplineSet
Refer: 36 68 N 1 0 0 1 0 0 3
EndChar

StartChar: uni1E0B
Encoding: 7691 7691 345
Width: 1233
Flags: W
LayerCount: 2
Back
Fore
SplineSet
380 1585 m 5
 655 1585 l 5
 655 1339 l 5
 380 1339 l 5
 380 1585 l 5
EndSplineSet
Refer: 68 100 N 1 0 0 1 0 0 3
EndChar

StartChar: uni1E1E
Encoding: 7710 7710 346
Width: 1233
Flags: W
LayerCount: 2
Back
Fore
SplineSet
493 1899 m 5
 768 1899 l 5
 768 1653 l 5
 493 1653 l 5
 493 1899 l 5
EndSplineSet
Refer: 38 70 N 1 0 0 1 0 0 3
EndChar

StartChar: uni1E1F
Encoding: 7711 7711 347
Width: 1233
Flags: W
LayerCount: 2
Back
Fore
SplineSet
479 1899 m 5
 754 1899 l 5
 754 1653 l 5
 479 1653 l 5
 479 1899 l 5
EndSplineSet
Refer: 70 102 N 1 0 0 1 0 0 3
EndChar

StartChar: uni1E22
Encoding: 7714 7714 348
Width: 1233
Flags: W
LayerCount: 2
Back
Fore
SplineSet
479 1899 m 5
 754 1899 l 5
 754 1653 l 5
 479 1653 l 5
 479 1899 l 5
EndSplineSet
Refer: 40 72 N 1 0 0 1 0 0 3
EndChar

StartChar: uni1E23
Encoding: 7715 7715 349
Width: 1233
Flags: W
LayerCount: 2
Back
Fore
SplineSet
479 1899 m 5
 754 1899 l 5
 754 1653 l 5
 479 1653 l 5
 479 1899 l 5
EndSplineSet
Refer: 72 104 N 1 0 0 1 0 0 3
EndChar

StartChar: uni1E26
Encoding: 7718 7718 350
Width: 1233
Flags: W
LayerCount: 2
Back
Fore
SplineSet
696 1899 m 5
 932 1899 l 5
 932 1653 l 5
 696 1653 l 5
 696 1899 l 5
301 1899 m 5
 537 1899 l 5
 537 1653 l 5
 301 1653 l 5
 301 1899 l 5
EndSplineSet
Refer: 40 72 N 1 0 0 1 0 0 2
EndChar

StartChar: uni1E40
Encoding: 7744 7744 352
Width: 1233
Flags: W
LayerCount: 2
Back
Fore
SplineSet
479 1899 m 5
 754 1899 l 5
 754 1653 l 5
 479 1653 l 5
 479 1899 l 5
EndSplineSet
Refer: 45 77 N 1 0 0 1 0 0 3
EndChar

StartChar: uni1E41
Encoding: 7745 7745 353
Width: 1233
Flags: W
LayerCount: 2
Back
Fore
SplineSet
479 1585 m 5
 754 1585 l 5
 754 1339 l 5
 479 1339 l 5
 479 1585 l 5
EndSplineSet
Refer: 77 109 N 1 0 0 1 0 0 3
EndChar

StartChar: uni1E44
Encoding: 7748 7748 354
Width: 1233
Flags: W
LayerCount: 2
Back
Fore
SplineSet
479 1899 m 5
 754 1899 l 5
 754 1653 l 5
 479 1653 l 5
 479 1899 l 5
EndSplineSet
Refer: 46 78 N 1 0 0 1 0 0 3
EndChar

StartChar: uni1E45
Encoding: 7749 7749 355
Width: 1233
Flags: W
LayerCount: 2
Back
Fore
SplineSet
479 1585 m 5
 754 1585 l 5
 754 1339 l 5
 479 1339 l 5
 479 1585 l 5
EndSplineSet
Refer: 78 110 N 1 0 0 1 0 0 3
EndChar

StartChar: uni1E56
Encoding: 7766 7766 356
Width: 1233
Flags: W
LayerCount: 2
Back
Fore
SplineSet
479 1899 m 5
 754 1899 l 5
 754 1653 l 5
 479 1653 l 5
 479 1899 l 5
EndSplineSet
Refer: 48 80 N 1 0 0 1 0 0 3
EndChar

StartChar: uni1E57
Encoding: 7767 7767 357
Width: 1233
Flags: W
LayerCount: 2
Back
Fore
SplineSet
479 1585 m 5
 754 1585 l 5
 754 1339 l 5
 479 1339 l 5
 479 1585 l 5
EndSplineSet
Refer: 80 112 N 1 0 0 1 0 0 3
EndChar

StartChar: uni1E58
Encoding: 7768 7768 358
Width: 1233
Flags: W
LayerCount: 2
Back
Fore
SplineSet
430 1899 m 5
 705 1899 l 5
 705 1653 l 5
 430 1653 l 5
 430 1899 l 5
EndSplineSet
Refer: 50 82 N 1 0 0 1 0 0 3
EndChar

StartChar: uni1E59
Encoding: 7769 7769 359
Width: 1233
Flags: W
LayerCount: 2
Back
Fore
SplineSet
479 1585 m 5
 754 1585 l 5
 754 1339 l 5
 479 1339 l 5
 479 1585 l 5
EndSplineSet
Refer: 82 114 N 1 0 0 1 0 0 3
EndChar

StartChar: uni1E60
Encoding: 7776 7776 360
Width: 1233
Flags: W
LayerCount: 2
Back
Fore
SplineSet
479 1899 m 5
 754 1899 l 5
 754 1653 l 5
 479 1653 l 5
 479 1899 l 5
EndSplineSet
Refer: 51 83 N 1 0 0 1 0 0 3
EndChar

StartChar: uni1E61
Encoding: 7777 7777 361
Width: 1233
Flags: W
LayerCount: 2
Back
Fore
SplineSet
479 1585 m 5
 754 1585 l 5
 754 1339 l 5
 479 1339 l 5
 479 1585 l 5
EndSplineSet
Refer: 83 115 N 1 0 0 1 0 0 3
EndChar

StartChar: uni1E6A
Encoding: 7786 7786 362
Width: 1233
Flags: W
LayerCount: 2
Back
Fore
SplineSet
479 1899 m 5
 754 1899 l 5
 754 1653 l 5
 479 1653 l 5
 479 1899 l 5
EndSplineSet
Refer: 52 84 N 1 0 0 1 0 0 3
EndChar

StartChar: uni1E6B
Encoding: 7787 7787 363
Width: 1233
Flags: W
LayerCount: 2
Back
Fore
SplineSet
479 1899 m 5
 754 1899 l 5
 754 1653 l 5
 479 1653 l 5
 479 1899 l 5
EndSplineSet
Refer: 84 116 N 1 0 0 1 0 0 3
EndChar

StartChar: uni1E86
Encoding: 7814 7814 366
Width: 1233
Flags: W
LayerCount: 2
Back
Fore
SplineSet
479 1899 m 5
 754 1899 l 5
 754 1653 l 5
 479 1653 l 5
 479 1899 l 5
EndSplineSet
Refer: 55 87 N 1 0 0 1 0 0 3
EndChar

StartChar: uni1E87
Encoding: 7815 7815 367
Width: 1233
Flags: W
LayerCount: 2
Back
Fore
SplineSet
479 1585 m 5
 754 1585 l 5
 754 1339 l 5
 479 1339 l 5
 479 1585 l 5
EndSplineSet
Refer: 87 119 N 1 0 0 1 0 0 3
EndChar

StartChar: uni1E8A
Encoding: 7818 7818 368
Width: 1233
Flags: W
LayerCount: 2
Back
Fore
SplineSet
479 1899 m 5
 754 1899 l 5
 754 1653 l 5
 479 1653 l 5
 479 1899 l 5
EndSplineSet
Refer: 56 88 N 1 0 0 1 0 0 3
EndChar

StartChar: uni1E8B
Encoding: 7819 7819 369
Width: 1233
Flags: W
LayerCount: 2
Back
Fore
SplineSet
479 1585 m 5
 754 1585 l 5
 754 1339 l 5
 479 1339 l 5
 479 1585 l 5
EndSplineSet
Refer: 88 120 N 1 0 0 1 0 0 3
EndChar

StartChar: uni1E8C
Encoding: 7820 7820 370
Width: 1233
Flags: W
LayerCount: 2
Back
Fore
SplineSet
696 1899 m 5
 932 1899 l 5
 932 1653 l 5
 696 1653 l 5
 696 1899 l 5
301 1899 m 5
 537 1899 l 5
 537 1653 l 5
 301 1653 l 5
 301 1899 l 5
EndSplineSet
Refer: 56 88 N 1 0 0 1 0 0 2
EndChar

StartChar: uni1E8E
Encoding: 7822 7822 372
Width: 1233
Flags: W
LayerCount: 2
Back
Fore
SplineSet
479 1899 m 5
 754 1899 l 5
 754 1653 l 5
 479 1653 l 5
 479 1899 l 5
EndSplineSet
Refer: 57 89 N 1 0 0 1 0 0 3
EndChar

StartChar: uni1E8F
Encoding: 7823 7823 373
Width: 1233
Flags: W
LayerCount: 2
Back
Fore
SplineSet
479 1585 m 5
 754 1585 l 5
 754 1339 l 5
 479 1339 l 5
 479 1585 l 5
EndSplineSet
Refer: 89 121 N 1 0 0 1 0 0 3
EndChar

StartChar: quotedblleft
Encoding: 8220 8220 376
Width: 1233
Flags: W
LayerCount: 2
Back
Fore
SplineSet
465 903 m 1,0,-1
 152 903 l 1,1,-1
 152 1174 l 1,2,-1
 348 1556 l 1,3,-1
 563 1556 l 1,4,-1
 465 1174 l 1,5,-1
 465 903 l 1,0,-1
985 903 m 1,6,-1
 672 903 l 1,7,-1
 672 1174 l 1,8,-1
 868 1556 l 1,9,-1
 1081 1556 l 1,10,-1
 985 1174 l 1,11,-1
 985 903 l 1,6,-1
EndSplineSet
EndChar

StartChar: quotedblright
Encoding: 8221 8221 377
Width: 1233
Flags: W
LayerCount: 2
Back
Fore
SplineSet
768 1556 m 1,0,-1
 1081 1556 l 1,1,-1
 1081 1286 l 1,2,-1
 885 903 l 1,3,-1
 670 903 l 1,4,-1
 768 1286 l 1,5,-1
 768 1556 l 1,0,-1
248 1556 m 1,6,-1
 561 1556 l 1,7,-1
 561 1286 l 1,8,-1
 365 903 l 1,9,-1
 150 903 l 1,10,-1
 248 1286 l 1,11,-1
 248 1556 l 1,6,-1
EndSplineSet
EndChar

StartChar: quotedblbase
Encoding: 8222 8222 378
Width: 1233
Flags: W
LayerCount: 2
Back
Fore
SplineSet
768 367 m 1,0,-1
 1081 367 l 1,1,-1
 1081 96 l 1,2,-1
 885 -287 l 1,3,-1
 670 -287 l 1,4,-1
 768 96 l 1,5,-1
 768 367 l 1,0,-1
248 367 m 1,6,-1
 561 367 l 1,7,-1
 561 96 l 1,8,-1
 365 -287 l 1,9,-1
 150 -287 l 1,10,-1
 248 96 l 1,11,-1
 248 367 l 1,6,-1
EndSplineSet
EndChar

StartChar: uni201F
Encoding: 8223 8223 379
Width: 1233
Flags: W
LayerCount: 2
Back
Fore
SplineSet
463 1556 m 1,0,-1
 463 1286 l 1,1,-1
 561 903 l 1,2,-1
 346 903 l 1,3,-1
 150 1286 l 1,4,-1
 150 1556 l 1,5,-1
 463 1556 l 1,0,-1
983 1556 m 1,6,-1
 983 1286 l 1,7,-1
 1081 903 l 1,8,-1
 866 903 l 1,9,-1
 670 1286 l 1,10,-1
 670 1556 l 1,11,-1
 983 1556 l 1,6,-1
EndSplineSet
EndChar

StartChar: minute
Encoding: 8242 8242 380
Width: 1233
Flags: W
LayerCount: 2
Back
Fore
SplineSet
391 1120 m 1,0,-1
 564 1493 l 1,1,-1
 842 1493 l 1,2,-1
 553 1120 l 1,3,-1
 391 1120 l 1,0,-1
EndSplineSet
EndChar

StartChar: guilsinglleft
Encoding: 8249 8249 383
Width: 1233
Flags: W
LayerCount: 2
Back
Fore
SplineSet
815 1059 m 1,0,-1
 815 821 l 1,1,-1
 539 600 l 1,2,-1
 815 379 l 1,3,-1
 815 141 l 1,4,-1
 346 535 l 1,5,-1
 346 666 l 1,6,-1
 815 1059 l 1,0,-1
EndSplineSet
EndChar

StartChar: guilsinglright
Encoding: 8250 8250 384
Width: 1233
Flags: W
LayerCount: 2
Back
Fore
SplineSet
420 1059 m 1,0,-1
 889 666 l 1,1,-1
 889 535 l 1,2,-1
 420 141 l 1,3,-1
 420 379 l 1,4,-1
 698 600 l 1,5,-1
 420 821 l 1,6,-1
 420 1059 l 1,0,-1
EndSplineSet
EndChar

StartChar: uni2047
Encoding: 8263 8263 386
Width: 1233
Flags: W
LayerCount: 2
Back
Fore
SplineSet
748 283 m 5,0,-1
 1015 283 l 5,1,-1
 1015 0 l 5,2,-1
 748 0 l 5,3,-1
 748 283 l 5,0,-1
1015 401 m 5,4,-1
 748 401 l 5,5,-1
 748 555 l 5,6,7
 766 710 766 710 768 724 c 4,8,9
 795 840 795 840 858 920 c 4,10,11
 904 979 904 979 914 1021 c 4,12,13
 928 1086 928 1086 928 1104 c 4,14,15
 928 1173 928 1173 898 1205 c 4,16,17
 854 1254 854 1254 789 1213 c 5,18,19
 728 1188 728 1188 654 1098 c 5,20,-1
 654 1407 l 5,21,22
 718 1463 718 1463 783 1492 c 4,23,24
 848 1520 848 1520 914 1520 c 4,25,26
 1045 1520 1045 1520 1120 1426 c 132,-1,27
 1195 1332 1195 1332 1195 1167 c 4,28,29
 1195 1101 1195 1101 1173 1026 c 4,30,31
 1148 943 1148 943 1112 884 c 4,32,33
 1041 770 1041 770 1029 674 c 4,34,35
 1016 581 1016 581 1016 571 c 6,36,-1
 1015 524 l 5,37,-1
 1015 401 l 5,4,-1
133 283 m 5,38,-1
 400 283 l 5,39,-1
 400 0 l 5,40,-1
 133 0 l 5,41,-1
 133 283 l 5,38,-1
400 401 m 5,42,-1
 133 401 l 5,43,-1
 133 555 l 5,44,45
 151 710 151 710 153 724 c 4,46,47
 180 840 180 840 243 920 c 4,48,49
 289 979 289 979 299 1021 c 4,50,51
 313 1086 313 1086 313 1104 c 4,52,53
 313 1173 313 1173 283 1205 c 4,54,55
 239 1254 239 1254 174 1213 c 5,56,57
 113 1188 113 1188 39 1098 c 5,58,-1
 39 1407 l 5,59,60
 103 1463 103 1463 168 1492 c 4,61,62
 233 1520 233 1520 299 1520 c 4,63,64
 430 1520 430 1520 505 1426 c 132,-1,65
 580 1332 580 1332 580 1167 c 4,66,67
 580 1101 580 1101 558 1026 c 4,68,69
 533 943 533 943 497 884 c 4,70,71
 426 770 426 770 414 674 c 4,72,73
 401 581 401 581 401 571 c 6,74,-1
 400 524 l 5,75,-1
 400 401 l 5,42,-1
EndSplineSet
EndChar

StartChar: uni2048
Encoding: 8264 8264 387
Width: 1233
Flags: W
LayerCount: 2
Back
Fore
SplineSet
133 283 m 5
 400 283 l 5
 400 0 l 5
 133 0 l 5
 133 283 l 5
400 401 m 5
 133 401 l 5
 133 555 l 5
 151 710 151 710 153 724 c 4
 180 840 180 840 243 920 c 4
 289 979 289 979 299 1021 c 4
 313 1086 313 1086 313 1104 c 4
 313 1173 313 1173 283 1205 c 4
 239 1254 239 1254 174 1213 c 5
 113 1188 113 1188 39 1098 c 5
 39 1407 l 5
 103 1463 103 1463 168 1492 c 4
 233 1520 233 1520 299 1520 c 4
 430 1520 430 1520 505 1426 c 4
 580 1332 580 1332 580 1167 c 4
 580 1101 580 1101 558 1026 c 4
 533 943 533 943 497 884 c 4
 426 770 426 770 414 674 c 4
 401 581 401 581 401 571 c 6
 400 524 l 5
 400 401 l 5
EndSplineSet
Refer: 1 33 N 1 0 0 1 324 0 2
EndChar

StartChar: uni2049
Encoding: 8265 8265 388
Width: 1233
Flags: W
LayerCount: 2
Back
Fore
SplineSet
748 283 m 5
 1015 283 l 5
 1015 0 l 5
 748 0 l 5
 748 283 l 5
1015 401 m 5
 748 401 l 5
 748 555 l 5
 766 710 766 710 768 724 c 4
 795 840 795 840 858 920 c 4
 904 979 904 979 914 1021 c 4
 928 1086 928 1086 928 1104 c 4
 928 1173 928 1173 898 1205 c 4
 854 1254 854 1254 789 1213 c 5
 728 1188 728 1188 654 1098 c 5
 654 1407 l 5
 718 1463 718 1463 783 1492 c 4
 848 1520 848 1520 914 1520 c 4
 1045 1520 1045 1520 1120 1426 c 4
 1195 1332 1195 1332 1195 1167 c 4
 1195 1101 1195 1101 1173 1026 c 4
 1148 943 1148 943 1112 884 c 4
 1041 770 1041 770 1029 674 c 4
 1016 581 1016 581 1016 571 c 6
 1015 524 l 5
 1015 401 l 5
EndSplineSet
Refer: 1 33 N 1 0 0 1 -323 0 3
EndChar

StartChar: uni2070
Encoding: 8304 8304 389
Width: 1233
Flags: W
LayerCount: 2
Back
Fore
SplineSet
531 1086 m 128,-1,1
 531 1116 531 1116 555 1136 c 0,2,3
 580 1157 580 1157 616 1157 c 0,4,5
 650 1157 650 1157 676 1136 c 0,6,7
 701 1116 701 1116 701 1086 c 0,8,9
 701 1057 701 1057 676 1036 c 0,10,11
 652 1016 652 1016 616 1016 c 128,-1,12
 580 1016 580 1016 555 1036 c 0,13,0
 531 1056 531 1056 531 1086 c 128,-1,1
616 1380 m 128,-1,15
 546 1380 546 1380 514 1310 c 0,16,17
 481 1240 481 1240 481 1086 c 0,18,19
 481 935 481 935 514 863 c 0,20,21
 546 793 546 793 616 793 c 128,-1,22
 686 793 686 793 718 863 c 0,23,24
 750 932 750 932 750 1086 c 128,-1,25
 750 1240 750 1240 718 1310 c 128,-1,14
 686 1380 686 1380 616 1380 c 128,-1,15
278 1086 m 0,26,27
 278 1304 278 1304 362 1412 c 128,-1,28
 446 1520 446 1520 616 1520 c 0,29,30
 785 1520 785 1520 869 1412 c 0,31,32
 954 1304 954 1304 954 1086 c 0,33,34
 954 869 954 869 869 761 c 0,35,36
 785 653 785 653 616 653 c 0,37,38
 446 653 446 653 362 761 c 128,-1,39
 278 869 278 869 278 1086 c 0,26,27
EndSplineSet
EndChar

StartChar: uni2074
Encoding: 8308 8308 390
Width: 1233
Flags: W
LayerCount: 2
Back
Fore
SplineSet
639 1321 m 1,0,-1
 389 991 l 1,1,-1
 639 991 l 1,2,-1
 639 1321 l 1,0,-1
621 1503 m 1,3,-1
 825 1503 l 1,4,-1
 825 991 l 1,5,-1
 934 991 l 1,6,-1
 934 848 l 1,7,-1
 825 848 l 1,8,-1
 825 668 l 1,9,-1
 639 668 l 1,10,-1
 639 848 l 1,11,-1
 246 848 l 1,12,-1
 246 1010 l 1,13,-1
 621 1503 l 1,3,-1
EndSplineSet
EndChar

StartChar: uni2075
Encoding: 8309 8309 391
Width: 1233
Flags: W
LayerCount: 2
Back
Fore
SplineSet
327 1503 m 1,0,-1
 882 1503 l 1,1,-1
 882 1358 l 1,2,-1
 491 1358 l 1,3,-1
 491 1204 l 1,4,5
 515 1211 515 1211 543 1215 c 128,-1,6
 571 1219 571 1219 603 1219 c 0,7,8
 753 1219 753 1219 849 1140 c 0,9,10
 944 1062 944 1062 944 937 c 0,11,12
 944 805 944 805 841 729 c 0,13,14
 739 653 739 653 562 653 c 0,15,16
 497 653 497 653 430 662 c 128,-1,17
 363 671 363 671 293 689 c 1,18,-1
 293 837 l 1,19,20
 344 816 344 816 410 803 c 0,21,22
 469 791 469 791 530 791 c 0,23,24
 636 791 636 791 692 829 c 0,25,26
 747 866 747 866 747 937 c 0,27,28
 747 1002 747 1002 692 1042 c 0,29,30
 637 1081 637 1081 545 1081 c 0,31,32
 491 1081 491 1081 437 1070 c 0,33,34
 382 1059 382 1059 327 1038 c 1,35,-1
 327 1503 l 1,0,-1
EndSplineSet
EndChar

StartChar: uni2076
Encoding: 8310 8310 392
Width: 1233
Flags: W
LayerCount: 2
Back
Fore
SplineSet
637 1087 m 128,-1,1
 571 1087 571 1087 537 1048 c 0,2,3
 502 1010 502 1010 502 936 c 0,4,5
 502 863 502 863 537 824 c 0,6,7
 571 785 571 785 637 785 c 128,-1,8
 703 785 703 785 738 824 c 128,-1,9
 773 863 773 863 773 936 c 128,-1,10
 773 1009 773 1009 738 1048 c 128,-1,0
 703 1087 703 1087 637 1087 c 128,-1,1
902 1486 m 1,11,-1
 902 1337 l 1,12,13
 854 1359 854 1359 798 1374 c 0,14,15
 749 1387 749 1387 703 1387 c 0,16,17
 593 1387 593 1387 536 1327 c 128,-1,18
 479 1267 479 1267 476 1149 c 1,19,20
 508 1186 508 1186 558 1204 c 128,-1,21
 608 1222 608 1222 676 1222 c 0,22,23
 814 1222 814 1222 889 1151 c 0,24,25
 965 1079 965 1079 965 946 c 0,26,27
 965 806 965 806 880 729 c 0,28,29
 796 652 796 652 642 652 c 0,30,31
 456 652 456 652 371 754 c 0,32,33
 287 856 287 856 287 1085 c 0,34,35
 287 1304 287 1304 390 1412 c 128,-1,36
 493 1520 493 1520 700 1520 c 0,37,38
 748 1520 748 1520 799 1512 c 0,39,40
 850 1503 850 1503 902 1486 c 1,11,-1
EndSplineSet
EndChar

StartChar: uni2077
Encoding: 8311 8311 393
Width: 1233
Flags: W
LayerCount: 2
Back
Fore
SplineSet
284 1503 m 1,0,-1
 930 1503 l 1,1,-1
 930 1386 l 1,2,-1
 584 668 l 1,3,-1
 378 668 l 1,4,-1
 711 1358 l 1,5,-1
 284 1358 l 1,6,-1
 284 1503 l 1,0,-1
EndSplineSet
EndChar

StartChar: uni2078
Encoding: 8312 8312 394
Width: 1233
Flags: W
LayerCount: 2
Back
Fore
SplineSet
616 1041 m 128,-1,1
 548 1041 548 1041 506 1007 c 0,2,3
 464 972 464 972 464 914 c 128,-1,4
 464 856 464 856 506 821 c 128,-1,5
 548 786 548 786 616 786 c 0,6,7
 683 786 683 786 725 822 c 0,8,9
 767 857 767 857 767 914 c 0,10,11
 767 972 767 972 726 1007 c 0,12,0
 684 1041 684 1041 616 1041 c 128,-1,1
466 1112 m 1,13,14
 388 1134 388 1134 348 1181 c 128,-1,15
 308 1228 308 1228 308 1295 c 0,16,17
 308 1401 308 1401 390 1460 c 0,18,19
 473 1520 473 1520 616 1520 c 128,-1,20
 759 1520 759 1520 841 1460 c 0,21,22
 924 1399 924 1399 924 1295 c 0,23,24
 924 1228 924 1228 884 1181 c 0,25,26
 845 1135 845 1135 769 1112 c 1,27,28
 853 1091 853 1091 902 1035 c 0,29,30
 949 981 949 981 949 904 c 0,31,32
 949 782 949 782 863 718 c 0,33,34
 776 653 776 653 616 653 c 128,-1,35
 456 653 456 653 369 718 c 0,36,37
 282 784 282 784 282 904 c 0,38,39
 282 979 282 979 331 1036 c 0,40,41
 380 1091 380 1091 466 1112 c 1,13,14
487 1282 m 0,42,43
 487 1233 487 1233 521 1204 c 0,44,45
 556 1175 556 1175 616 1175 c 128,-1,46
 676 1175 676 1175 710 1204 c 0,47,48
 745 1233 745 1233 745 1282 c 128,-1,49
 745 1331 745 1331 710 1359 c 0,50,51
 676 1387 676 1387 616 1387 c 0,52,53
 557 1387 557 1387 522 1358 c 0,54,55
 487 1330 487 1330 487 1282 c 0,42,43
EndSplineSet
EndChar

StartChar: uni2079
Encoding: 8313 8313 395
Width: 1233
Flags: W
LayerCount: 2
Back
Fore
SplineSet
330 686 m 1,0,-1
 330 837 l 1,1,2
 378 814 378 814 434 799 c 0,3,4
 483 786 483 786 529 786 c 0,5,6
 638 786 638 786 695 846 c 0,7,8
 752 905 752 905 756 1024 c 1,9,10
 723 988 723 988 673 969 c 0,11,12
 623 951 623 951 555 951 c 0,13,14
 417 951 417 951 342 1023 c 0,15,16
 267 1094 267 1094 267 1227 c 0,17,18
 267 1367 267 1367 351 1443 c 0,19,20
 435 1520 435 1520 589 1520 c 0,21,22
 776 1520 776 1520 861 1418 c 0,23,24
 945 1316 945 1316 945 1088 c 0,25,26
 945 868 945 868 842 761 c 0,27,28
 738 653 738 653 532 653 c 0,29,30
 484 653 484 653 433 662 c 0,31,32
 382 670 382 670 330 686 c 1,0,-1
595 1091 m 0,33,34
 660 1091 660 1091 694 1130 c 0,35,36
 729 1169 729 1169 729 1243 c 0,37,38
 729 1316 729 1316 694 1355 c 0,39,40
 660 1394 660 1394 595 1394 c 0,41,42
 529 1394 529 1394 494 1355 c 128,-1,43
 459 1316 459 1316 459 1243 c 128,-1,44
 459 1170 459 1170 494 1131 c 0,45,46
 529 1091 529 1091 595 1091 c 0,33,34
EndSplineSet
EndChar

StartChar: uni207A
Encoding: 8314 8314 396
Width: 1233
Flags: W
LayerCount: 2
Back
Fore
SplineSet
692 1336 m 1,0,-1
 692 1095 l 1,1,-1
 962 1095 l 1,2,-1
 962 961 l 1,3,-1
 692 961 l 1,4,-1
 692 720 l 1,5,-1
 542 720 l 1,6,-1
 542 961 l 1,7,-1
 270 961 l 1,8,-1
 270 1095 l 1,9,-1
 542 1095 l 1,10,-1
 542 1336 l 1,11,-1
 692 1336 l 1,0,-1
EndSplineSet
EndChar

StartChar: uni207B
Encoding: 8315 8315 397
Width: 1233
Flags: W
LayerCount: 2
Back
Fore
SplineSet
270 1095 m 1,0,-1
 962 1095 l 1,1,-1
 962 961 l 1,2,-1
 270 961 l 1,3,-1
 270 1095 l 1,0,-1
EndSplineSet
EndChar

StartChar: uni207D
Encoding: 8317 8317 398
Width: 1233
Flags: W
LayerCount: 2
Back
Fore
SplineSet
787 1538 m 1,0,1
 704 1404 704 1404 663.5 1279 c 128,-1,2
 623 1154 623 1154 623 1028 c 0,3,4
 623 904 623 904 663.5 777.5 c 128,-1,5
 704 651 704 651 787 517 c 1,6,-1
 643 517 l 1,7,8
 543 646 543 646 494.5 772 c 128,-1,9
 446 898 446 898 446 1028 c 128,-1,10
 446 1158 446 1158 495 1284.5 c 128,-1,11
 544 1411 544 1411 643 1538 c 1,12,-1
 787 1538 l 1,0,1
EndSplineSet
EndChar

StartChar: uni207E
Encoding: 8318 8318 399
Width: 1233
Flags: W
LayerCount: 2
Back
Fore
SplineSet
446 1538 m 1,0,-1
 589 1538 l 1,1,2
 689 1411 689 1411 738 1284.5 c 128,-1,3
 787 1158 787 1158 787 1028 c 128,-1,4
 787 898 787 898 738 772 c 128,-1,5
 689 646 689 646 589 517 c 1,6,-1
 446 517 l 1,7,8
 529 651 529 651 569 777.5 c 128,-1,9
 609 904 609 904 609 1028 c 0,10,11
 609 1154 609 1154 569 1279 c 128,-1,12
 529 1404 529 1404 446 1538 c 1,0,-1
EndSplineSet
EndChar

StartChar: uni207F
Encoding: 8319 8319 400
Width: 1233
Flags: W
LayerCount: 2
Back
Fore
SplineSet
904 1075 m 2,0,-1
 904 668 l 1,1,-1
 718 668 l 1,2,-1
 718 1050 l 2,3,4
 718 1118 718 1118 696 1148 c 0,5,6
 674 1177 674 1177 624 1177 c 0,7,8
 573 1177 573 1177 544 1137 c 0,9,10
 515 1098 515 1098 515 1027 c 2,11,-1
 515 668 l 1,12,-1
 329 668 l 1,13,-1
 329 1295 l 1,14,-1
 515 1295 l 1,15,-1
 515 1201 l 1,16,17
 535 1253 535 1253 583 1282 c 0,18,19
 631 1310 631 1310 699 1310 c 0,20,21
 801 1310 801 1310 853 1251 c 0,22,23
 904 1192 904 1192 904 1075 c 2,0,-1
EndSplineSet
EndChar

StartChar: uni2093
Encoding: 8339 8339 418
Width: 1233
Flags: W
LayerCount: 2
Back
Fore
SplineSet
955 629 m 5,0,-1
 713 328 l 5,1,-1
 976 1 l 5,2,-1
 757 1 l 5,3,-1
 616 213 l 5,4,-1
 476 1 l 5,5,-1
 257 1 l 5,6,-1
 522 328 l 5,7,-1
 278 629 l 5,8,-1
 497 629 l 5,9,-1
 616 442 l 5,10,-1
 736 629 l 5,11,-1
 955 629 l 5,0,-1
EndSplineSet
EndChar

StartChar: uni2102
Encoding: 8450 8450 419
Width: 1233
Flags: W
LayerCount: 2
Back
Fore
SplineSet
564 161.821245015 m 1,0,1
 588.54874443 150.284240205 588.54874443 150.284240205 615.07710408 142.584395137 c 128,-1,2
 641.605463731 134.884550069 641.605463731 134.884550069 670.922523041 130.942275034 c 128,-1,3
 700.239582352 127 700.239582352 127 732 127 c 0,4,5
 822.004394659 127 822.004394659 127 891.248304071 155.226816576 c 0,6,7
 967.493040067 186.307473287 967.493040067 186.307473287 1049.33564327 229.177408299 c 2,8,-1
 1124 268.287309443 l 1,9,-1
 1124 22.9914292011 l 1,10,-1
 1097.76778949 8.4179789178 l 2,11,12
 1094.37069144 6.53070222415 1094.37069144 6.53070222415 1090.21530528 4.543995479 c 128,-1,13
 1086.05991912 2.55728873385 1086.05991912 2.55728873385 1079.6082625 -0.137286369783 c 128,-1,14
 1073.15660589 -2.83186147341 1073.15660589 -2.83186147341 1067.50114855 -5.10765827599 c 128,-1,15
 1061.84569122 -7.38345507857 1061.84569122 -7.38345507857 1051.23848073 -11.448759759 c 128,-1,16
 1040.63127025 -15.5140644394 1040.63127025 -15.5140644394 1032.65541111 -18.5357259414 c 128,-1,17
 1024.67955198 -21.5573874434 1024.67955198 -21.5573874434 1009.096457 -27.4501963426 c 128,-1,18
 993.513362024 -33.3430052418 993.513362024 -33.3430052418 982.116105792 -37.67396261 c 0,19,20
 945.464940796 -51.6014053086 945.464940796 -51.6014053086 905.149195528 -60.8185026585 c 128,-1,21
 864.83345026 -70.0356000084 864.83345026 -70.0356000084 821.752394158 -74.5178000042 c 128,-1,22
 778.671338056 -79 778.671338056 -79 732 -79 c 0,23,24
 548.32942418 -79 548.32942418 -79 407.858156665 15.6503798865 c 0,25,26
 328.267550294 69.2790063072 328.267550294 69.2790063072 263.661209239 152.794520354 c 0,27,28
 89 378.576083517 89 378.576083517 89 745 c 0,29,30
 89 1132.93290959 89 1132.93290959 262.723644635 1349.41929752 c 0,31,32
 440.535319468 1571 440.535319468 1571 743 1571 c 0,33,34
 876.926249178 1571 876.926249178 1571 957.321867653 1541.96824888 c 0,35,36
 1031.97553251 1515.00998102 1031.97553251 1515.00998102 1095.50730243 1483.76484827 c 2,37,-1
 1124 1469.75204619 l 1,38,-1
 1124 1228.29162506 l 1,39,-1
 1051.62803295 1261.69407139 l 2,40,41
 960.64438222 1303.68652557 960.64438222 1303.68652557 897.674676118 1332.67257226 c 0,42,43
 844.825436537 1357 844.825436537 1357 740 1357 c 0,44,45
 650.68752182 1357 650.68752182 1357 564 1325.44858169 c 1,46,-1
 564 161.821245015 l 1,0,1
357 1096.34164131 m 1,47,48
 303 953.289895788 303 953.289895788 303 745 c 0,49,50
 303 553.218019576 303 553.218019576 357 410.690258382 c 1,51,-1
 357 1096.34164131 l 1,47,48
EndSplineSet
EndChar

StartChar: uni210D
Encoding: 8461 8461 420
Width: 1233
Flags: W
LayerCount: 2
Back
Fore
SplineSet
960 1342 m 1
 960 151 l 1
 1047 151 l 1
 1047 1342 l 1
 960 1342 l 1
193 1342 m 1
 193 151 l 1
 281 151 l 1
 281 1342 l 1
 193 1342 l 1
7 1544 m 1
 467 1544 l 1
 467 912 l 1
 774 912 l 1
 774 1544 l 1
 1233 1544 l 1
 1233 -51 l 1
 774 -51 l 1
 774 680 l 1
 467 680 l 1
 467 -51 l 1
 7 -51 l 1
 7 1544 l 1
EndSplineSet
EndChar

StartChar: uni2115
Encoding: 8469 8469 421
Width: 1233
Flags: W
LayerCount: 2
Back
Fore
SplineSet
970.57019326 151 m 1
 328.553951961 1342 l 1
 260.42980674 1342 l 1
 902.446048039 151 l 1
 970.57019326 151 l 1
23 1544 m 1
 432.345049792 1544 l 1
 1029 444.852458983 l 1
 1029 1544 l 1
 1208 1544 l 1
 1208 -51 l 1
 798.654950208 -51 l 1
 202 1048.14754102 l 1
 202 -51 l 1
 23 -51 l 1
 23 1544 l 1
EndSplineSet
EndChar

StartChar: uni2119
Encoding: 8473 8473 422
Width: 1233
Flags: W
LayerCount: 2
Back
Fore
SplineSet
213 1342 m 1,0,-1
 213 151 l 1,1,-1
 303 151 l 1,2,-1
 303 1342 l 1,3,-1
 213 1342 l 1,0,-1
501 1342 m 1,4,-1
 501 782 l 1,5,-1
 732 782 l 1,6,-1
 732 1342 l 1,7,-1
 501 1342 l 1,4,-1
15 1544 m 1,8,-1
 693 1544 l 2,9,10
 951.412245816 1544 951.412245816 1544 1088.91137957 1421.59223459 c 0,11,12
 1229 1296.87919445 1229 1296.87919445 1229 1063 c 0,13,14
 1229 827.051163685 1229 827.051163685 1088.82473338 702.830805457 c 0,15,16
 951.345934557 581 951.345934557 581 692 581 c 2,17,-1
 501 581 l 1,18,-1
 501 -51 l 1,19,-1
 15 -51 l 1,20,-1
 15 1544 l 1,8,-1
934 1284.12740749 m 1,21,-1
 934 841.909603682 l 1,22,23
 941.771009818 848.202682817 941.771009818 848.202682817 948.683174169 854.793351152 c 0,24,25
 1022 925.638823303 1022 925.638823303 1022 1063 c 0,26,27
 1022 1199.53091919 1022 1199.53091919 949.374627036 1270.5057155 c 0,28,29
 942.156210513 1277.55226496 942.156210513 1277.55226496 934 1284.12740749 c 1,21,-1
EndSplineSet
EndChar

StartChar: uni211A
Encoding: 8474 8474 423
Width: 1233
Flags: W
LayerCount: 2
Back
Fore
SplineSet
936.574166299 12.3643181233 m 1,0,-1
 1195.31572358 -315 l 1,1,-1
 854.472107074 -315 l 1,2,-1
 664.829268779 -77.6982285211 l 1,3,-1
 647.430845867 -78.8844846287 l 2,4,5
 639.051537489 -79.4431051872 639.051537489 -79.4431051872 630.979167402 -79.7215525936 c 128,-1,6
 622.906797315 -80 622.906797315 -80 615 -80 c 0,7,8
 317.989025279 -80 317.989025279 -80 139.676082314 150.275303645 c 0,9,10
 -34 374.562514241 -34 374.562514241 -34 745 c 0,11,12
 -34 929.097142464 -34 929.097142464 9.12794258604 1078.46321543 c 128,-1,13
 52.2558851721 1227.82928839 52.2558851721 1227.82928839 139.676082314 1340.72469636 c 0,14,15
 227.945470481 1454.71675899 227.945470481 1454.71675899 348.094984398 1512.85837949 c 128,-1,16
 468.244498316 1571 468.244498316 1571 615 1571 c 0,17,18
 912.058018134 1571 912.058018134 1571 1089.87029262 1340.66471521 c 0,19,20
 1263 1116.3951558 1263 1116.3951558 1263 745 c 0,21,22
 1263 473.194131293 1263 473.194131293 1167.31217267 277.589180397 c 0,23,24
 1084.0887938 107.464041276 1084.0887938 107.464041276 936.574166299 12.3643181233 c 1,0,-1
455 157.936114292 m 1,25,26
 490.728526884 142.514444376 490.728526884 142.514444376 530.549715646 134.757222188 c 128,-1,27
 570.370904407 127 570.370904407 127 615 127 c 0,28,29
 703.328008759 127 703.328008759 127 775 157.936114292 c 1,30,-1
 775 1333.06388571 l 1,31,32
 703.328008759 1364 703.328008759 1364 615 1364 c 128,-1,33
 526.671991241 1364 526.671991241 1364 455 1333.06388571 c 1,34,-1
 455 157.936114292 l 1,25,26
262 338.834949832 m 1,35,-1
 262 1151.89443778 l 1,36,37
 171 992.739512412 171 992.739512412 171 745 c 128,-1,38
 171 497.389964292 171 497.389964292 262 338.834949832 c 1,35,-1
968 1148.37906579 m 1,39,-1
 968 342.620934211 l 1,40,41
 1057 500.891083465 1057 500.891083465 1057 745.5 c 128,-1,42
 1057 990.108916535 1057 990.108916535 968 1148.37906579 c 1,39,-1
EndSplineSet
EndChar

StartChar: uni211D
Encoding: 8477 8477 424
Width: 1233
Flags: W
LayerCount: 2
Back
Fore
SplineSet
903.100887968 362.962721052 m 2
 843.015346926 502.546054857 843.015346926 502.546054857 794.284714206 542.874854349 c 0
 789.117503753 547.240256284 789.117503753 547.240256284 783.413548663 551.092928308 c 0
 777.709593573 554.945600332 777.709593573 554.945600332 771.459970385 558.29022261 c 0
 765.210347197 561.634844888 765.210347197 561.634844888 758.410371528 564.466836864 c 0
 751.61039586 567.298828839 751.61039586 567.298828839 744.272697774 569.611525277 c 1
 757.674969234 547.385438933 757.674969234 547.385438933 771.287466461 521.478312329 c 0
 784.899963688 495.571185726 784.899963688 495.571185726 798.63181436 466.29019013 c 0
 812.363665032 437.009194534 812.363665032 437.009194534 826.893521001 403.049880004 c 2
 934.660430826 151 l 1
 992.979073573 151 l 1
 903.100887968 362.962721052 l 2
936.285067707 683.229000728 m 1
 958.233382716 660.263473259 958.233382716 660.263473259 980.245540299 629.996756581 c 0
 1031.72001097 559.219359414 1031.72001097 559.219359414 1086.98202474 427.841741753 c 2
 1290.0203123 -51 l 1
 806.197234996 -51 l 1
 631.003870113 363.191720681 l 2
 572.812829135 501.741818249 572.812829135 501.741818249 523.416048846 542.766262896 c 0
 488.319215744 571.914480217 488.319215744 571.914480217 429 578.293357111 c 1
 429 -51 l 1
 -14 -51 l 1
 -14 1544 l 1
 614 1544 l 2
 730.59725757 1544 730.59725757 1544 821.313448202 1514.04762642 c 0
 912.029638835 1484.09525285 912.029638835 1484.09525285 974.062445841 1422.06244584 c 0
 1036.06781647 1360.05707521 1036.06781647 1360.05707521 1066.03390824 1269.58088093 c 0
 1096 1179.10468665 1096 1179.10468665 1096 1063 c 0
 1096 833.572714657 1096 833.572714657 980.880316921 720.75542524 c 0
 971.151101814 711.026210133 971.151101814 711.026210133 959.32969602 701.107223991 c 0
 947.508290227 691.188237849 947.508290227 691.188237849 936.285067707 683.229000728 c 1
429 1342 m 1
 429 782 l 1
 643 782 l 1
 643 1342 l 1
 429 1342 l 1
834 1277.39598645 m 1
 834 848.778320973 l 2
 835.340240933 850.190433068 835.340240933 850.190433068 836.951446707 851.960879232 c 0
 867.886992733 887.207488191 867.886992733 887.207488191 883.943496366 939.182392208 c 0
 900 991.157296224 900 991.157296224 900 1063 c 0
 900 1202.71666847 900 1202.71666847 837.717352658 1273.30366879 c 0
 836.01686133 1275.24033947 836.01686133 1275.24033947 834 1277.39598645 c 1
173 1342 m 1
 173 151 l 1
 243 151 l 1
 243 1342 l 1
 173 1342 l 1
EndSplineSet
EndChar

StartChar: uni2124
Encoding: 8484 8484 425
Width: 1233
Flags: W
LayerCount: 2
Back
Fore
SplineSet
323.491676787 151 m 1
 962.744577019 1342 l 1
 881.508323213 1342 l 1
 242.255422981 151 l 1
 323.491676787 151 l 1
16 1544 m 1
 1209 1544 l 1
 1209 1380.17829695 l 1
 549.255422981 151 l 1
 1228 151 l 1
 1228 -51 l 1
 -3 -51 l 1
 -3 112.821703047 l 1
 656.744577019 1342 l 1
 16 1342 l 1
 16 1544 l 1
EndSplineSet
EndChar

StartChar: universal
Encoding: 8704 8704 426
Width: 1233
Flags: W
LayerCount: 2
Back
Fore
SplineSet
616 270 m 1,0,-1
 756 881 l 1,1,-1
 477 881 l 1,2,-1
 616 270 l 1,0,-1
436 0 m 1,3,-1
 33 1493 l 1,4,-1
 328 1493 l 1,5,-1
 418 1124 l 1,6,-1
 813 1124 l 1,7,-1
 905 1493 l 1,8,-1
 1200 1493 l 1,9,-1
 797 0 l 1,10,-1
 436 0 l 1,3,-1
EndSplineSet
EndChar

StartChar: uni2201
Encoding: 8705 8705 427
Width: 1233
Flags: W
LayerCount: 2
Back
Fore
SplineSet
23 746 m 2,0,1
 23 1117 23 1117 183 1319 c 0,2,3
 343 1520 343 1520 638 1520 c 0,4,5
 932 1520 932 1520 1092 1319 c 0,6,7
 1173 1217 1173 1217 1213 1071 c 1,8,-1
 838 1071 l 1,9,10
 828 1112 828 1112 815 1143 c 0,11,12
 762 1257 762 1257 638 1257 c 128,-1,13
 514 1257 514 1257 461 1142.5 c 128,-1,14
 408 1028 408 1028 408 748 c 2,15,-1
 408 743 l 2,16,17
 408 463 408 463 461 348.5 c 128,-1,18
 514 234 514 234 638 234 c 128,-1,19
 762 234 762 234 815 348 c 0,20,21
 828 379 828 379 838 420 c 1,22,-1
 1213 420 l 1,23,24
 1173 274 1173 274 1092 172 c 0,25,26
 932 -29 932 -29 638 -29 c 0,27,28
 343 -29 343 -29 183 173 c 0,29,30
 23 374 23 374 23 745 c 2,31,-1
 23 746 l 2,0,1
EndSplineSet
EndChar

StartChar: partialdiff
Encoding: 8706 8706 428
Width: 1233
Flags: W
LayerCount: 2
Back
Fore
SplineSet
364 1125 m 1,0,-1
 364 1345 l 1,1,2
 510 1381 510 1381 616 1381 c 0,3,4
 919 1381 919 1381 1054 1120 c 0,5,6
 1114 1004 1114 1004 1114 821 c 0,7,8
 1114 708 1114 708 1086 577 c 0,9,10
 1016 250 1016 250 827 93 c 0,11,12
 680 -29 680 -29 517 -29 c 0,13,14
 347 -29 347 -29 243 62 c 0,15,16
 119 172 119 172 119 356 c 0,17,18
 119 560 119 560 230 720 c 0,19,20
 338 877 338 877 550 877 c 0,21,22
 660 877 660 877 764 808 c 0,23,24
 803 782 803 782 859 700 c 1,25,26
 868 765 868 765 868 838 c 0,27,28
 868 949 868 949 836 1007 c 0,29,30
 741 1178 741 1178 574 1178 c 0,31,32
 491 1178 491 1178 364 1125 c 1,0,-1
366 331 m 0,33,34
 366 258 366 258 406 213 c 0,35,36
 447 167 447 167 518 167 c 0,37,38
 576 167 576 167 627 203 c 0,39,40
 690 247 690 247 739 328 c 0,41,42
 777 391 777 391 799 464 c 1,43,44
 718 637 718 637 580 637 c 0,45,46
 450 637 450 637 399 497 c 0,47,48
 366 408 366 408 366 331 c 0,33,34
EndSplineSet
EndChar

StartChar: existential
Encoding: 8707 8707 429
Width: 1233
Flags: W
LayerCount: 2
Back
Fore
SplineSet
163 251 m 1,0,-1
 787 251 l 1,1,-1
 787 631 l 1,2,-1
 163 631 l 1,3,-1
 163 862 l 1,4,-1
 787 862 l 1,5,-1
 787 1252 l 1,6,-1
 163 1252 l 1,7,-1
 163 1493 l 1,8,-1
 1091 1493 l 1,9,-1
 1091 0 l 1,10,-1
 163 0 l 1,11,-1
 163 251 l 1,0,-1
EndSplineSet
EndChar

StartChar: uni2204
Encoding: 8708 8708 430
Width: 1233
Flags: W
LayerCount: 2
Back
Fore
SplineSet
660 1588 m 1,0,-1
 852 1588 l 1,1,-1
 826 1493 l 1,2,-1
 1091 1493 l 1,3,-1
 1091 0 l 1,4,-1
 422 0 l 1,5,-1
 396 -95 l 1,6,-1
 205 -95 l 1,7,-1
 231 0 l 1,8,-1
 163 0 l 1,9,-1
 163 251 l 1,10,-1
 310 251 l 1,11,-1
 414 631 l 1,12,-1
 163 631 l 1,13,-1
 163 862 l 1,14,-1
 481 862 l 1,15,-1
 585 1252 l 1,16,-1
 163 1252 l 1,17,-1
 163 1493 l 1,18,-1
 634 1493 l 1,19,-1
 660 1588 l 1,0,-1
787 1252 m 1,20,-1
 673 862 l 1,21,-1
 787 862 l 1,22,-1
 787 1252 l 1,20,-1
605 631 m 1,23,-1
 501 251 l 1,24,-1
 787 251 l 1,25,-1
 787 631 l 1,26,-1
 605 631 l 1,23,-1
EndSplineSet
EndChar

StartChar: emptyset
Encoding: 8709 8709 431
Width: 1233
Flags: W
LayerCount: 2
Back
Fore
SplineSet
1052 1196 m 1,0,-1
 1171 1077 l 1,1,-1
 1052 958 l 1,2,3
 1090 906 1090 906 1114 849 c 0,4,5
 1153 754 1153 754 1153 642 c 0,6,7
 1153 533 1153 533 1114 438 c 256,8,9
 1075 343 1075 343 996 264 c 0,10,11
 917 186 917 186 822 146 c 128,-1,12
 727 106 727 106 616.5 106 c 128,-1,13
 506 106 506 106 411 146 c 0,14,15
 353 170 353 170 302 208 c 1,16,-1
 183 89 l 1,17,-1
 64 208 l 1,18,-1
 183 327 l 1,19,20
 143 379 143 379 119 438 c 0,21,22
 80 533 80 533 80 642 c 0,23,24
 80 754 80 754 119 849 c 256,25,26
 158 944 158 944 237 1023 c 256,27,28
 316 1102 316 1102 411 1142 c 128,-1,29
 506 1182 506 1182 616.5 1182 c 128,-1,30
 727 1182 727 1182 822 1142 c 0,31,32
 881 1117 881 1117 933 1077 c 1,33,-1
 1052 1196 l 1,0,-1
616.5 1009 m 128,-1,35
 542 1009 542 1009 477 982 c 0,36,37
 412 954 412 954 359 901 c 0,38,39
 305 847 305 847 278.5 783 c 128,-1,40
 252 719 252 719 252 642 c 0,41,42
 252 568 252 568 279 504 c 0,43,44
 290 476 290 476 307 451 c 1,45,-1
 810 953 l 1,46,47
 784 970 784 970 756 982 c 0,48,34
 691 1009 691 1009 616.5 1009 c 128,-1,35
928 834 m 1,49,-1
 426 332 l 1,50,51
 450 317 450 317 477 305 c 0,52,53
 542 278 542 278 616.5 278 c 128,-1,54
 691 278 691 278 756 305 c 0,55,56
 821 333 821 333 874 386 c 0,57,58
 928 440 928 440 954.5 504 c 128,-1,59
 981 568 981 568 981 642 c 0,60,61
 981 719 981 719 954 783 c 0,62,63
 943 809 943 809 928 834 c 1,49,-1
EndSplineSet
EndChar

StartChar: Delta
Encoding: 8710 8710 432
Width: 1233
Flags: W
LayerCount: 2
Back
Fore
SplineSet
891 221 m 1,0,-1
 616 1042 l 1,1,-1
 342 221 l 1,2,-1
 891 221 l 1,0,-1
487 1423 m 1,3,-1
 745 1423 l 1,4,-1
 1241 0 l 1,5,-1
 -6 0 l 1,6,-1
 487 1423 l 1,3,-1
EndSplineSet
EndChar

StartChar: gradient
Encoding: 8711 8711 433
Width: 1233
Flags: W
LayerCount: 2
Back
Fore
SplineSet
891 1202 m 1,0,-1
 342 1202 l 1,1,-1
 616 381 l 1,2,-1
 891 1202 l 1,0,-1
487 0 m 1,3,-1
 -6 1423 l 1,4,-1
 1241 1423 l 1,5,-1
 745 0 l 1,6,-1
 487 0 l 1,3,-1
EndSplineSet
EndChar

StartChar: element
Encoding: 8712 8712 434
Width: 1233
Flags: W
LayerCount: 2
Back
Fore
SplineSet
337 647 m 1,0,1
 347 567 347 567 371 495 c 0,2,3
 412 372 412 372 482.5 301 c 128,-1,4
 553 230 553 230 636 230 c 2,5,-1
 1133 230 l 1,6,-1
 1133 0 l 1,7,-1
 636 0 l 2,8,9
 490 0 490 0 367 102 c 128,-1,10
 244 204 244 204 172 379.5 c 128,-1,11
 100 555 100 555 100 762 c 128,-1,12
 100 969 100 969 172 1144.5 c 128,-1,13
 244 1320 244 1320 367 1422 c 128,-1,14
 490 1524 490 1524 636 1524 c 2,15,-1
 1133 1524 l 1,16,-1
 1133 1294 l 1,17,-1
 636 1294 l 2,18,19
 553 1294 553 1294 482.5 1223 c 128,-1,20
 412 1152 412 1152 371 1029 c 0,21,22
 347 957 347 957 337 877 c 1,23,-1
 1133 877 l 1,24,-1
 1133 647 l 1,25,-1
 337 647 l 1,0,1
EndSplineSet
EndChar

